<svg width="3605" height="1678" viewBox="0 0 3605 1678" fill="none" xmlns="http://www.w3.org/2000/svg">
<path d="M1239.65 142.797C1240.67 142.08 1241.68 141.371 1242.68 140.671C1267.83 123.217 1293.11 108.161 1326.7 90.5951C1326.72 90.5843 1326.74 90.5735 1326.75 90.5628C1331.81 87.9317 1336.89 85.3525 1342.41 82.5951C1385.6 61.5783 1447.76 31.6146 1543.93 13.0288C1619.08 -0.931083 1678.31 -0.382912 1723.35 0.262093C1741.87 0.647836 1758.06 1.54282 1771.73 2.67417C1780.59 3.42522 1789.74 3.54503 1812.72 3.19318C1827.76 2.98854 1848.12 2.60056 1877.44 2.65771C1893.05 2.69497 1911.21 2.86741 1932.38 3.37261C2002.63 4.78633 2112.38 8.92936 2212.84 18.6916C2273.9 24.4279 2331.55 31.7565 2375.19 38.4621C2393.87 41.3247 2412.28 44.3932 2430.67 47.685C2480.76 56.5664 2529.25 73.2764 2576.07 96.9321C2636.8 127.599 2694.54 169.533 2753.9 221.998C2799.46 262.33 2836.94 306.932 2872.97 352.674C2874.94 355.182 2876.92 357.702 2878.9 360.233C2881.57 363.64 2884.22 367.053 2886.85 370.475C2919.02 412.002 2949.46 457.633 2978.81 506.979C3030.71 595.155 3068.84 664.831 3111.61 742.504C3128.11 772.808 3144.94 804.382 3162.56 839.014C3179.3 871.904 3199.68 913.75 3221.34 959.3C3221.68 959.949 3222.46 961.99 3222.74 962.67C3234.1 994.381 3245.86 1027.63 3257.52 1060.93C3260.03 1068.11 3262.53 1075.24 3264.99 1082.29C3265.01 1082.32 3265.02 1082.36 3265.03 1082.39C3291.72 1158.83 3317.37 1234.07 3336.48 1289.23C3366.76 1376.71 3379.17 1409.75 3389.59 1437.1C3393.41 1447.17 3397.03 1456.83 3401.07 1468.48C3411.34 1500.32 3425.35 1536.71 3434.95 1595.55C3435.07 1596.4 3435.14 1598.96 3435.17 1599.82C3435.2 1620.99 3432.14 1641.08 3428.69 1659.35C3428.64 1659.61 3428.59 1659.88 3428.55 1660.14C3426.34 1671.66 3419.02 1679.14 3412.26 1677.75C3405.48 1676.34 3401.84 1666.49 3403.96 1655.39C3407.38 1637.43 3410.16 1618.73 3410.14 1599.89C3410.12 1599.52 3410.1 1598.42 3410.04 1598.06C3407.66 1578.71 3403.31 1563.62 3399.44 1548.63C3393.32 1548.72 3386.8 1541.67 3384.17 1532.14C3377.67 1508.08 3351.61 1436.11 3307.02 1325.96C3308.57 1334.02 3309.68 1340.71 3310.65 1346.81C3311.76 1353.89 3312.43 1359.14 3313.06 1363.83C3314.43 1373.76 3315.17 1379.82 3317.93 1391.12C3325.13 1416.45 3337.64 1455.86 3349.95 1497.42C3353.06 1507.93 3350.14 1518.03 3343.49 1519.91C3336.84 1521.8 3329.02 1514.87 3325.93 1504.45C3325.87 1504.24 3325.81 1504.03 3325.74 1503.82C3313.65 1463 3300.77 1422.45 3293.28 1396.05C3291.33 1389.21 3289.85 1383.65 3288.69 1379.21C3287.79 1375.73 3286.62 1371.16 3286.26 1368.77C3286.2 1368.44 3286.11 1367.82 3286.04 1367.06C3286.04 1367.04 3286.04 1367.03 3286.04 1367.02C3285.99 1366.59 3285.77 1364.43 3286.02 1361.93C3286.06 1361.43 3286.18 1360.33 3286.52 1358.98C3286.48 1358.68 3286.44 1358.37 3286.39 1358.07C3285.83 1353.83 3285.18 1349.33 3284.47 1344.73C3281.65 1326.59 3276.19 1297.89 3260.58 1239.7C3246.14 1185.95 3217.11 1097.25 3177.68 987.195C3179.88 994.844 3182.06 1002.45 3184.24 1009.98C3189.84 1029.24 3195.45 1048.31 3201.14 1067.53C3203.29 1074.79 3205.46 1082.12 3207.67 1089.53C3211.19 1101.39 3214.73 1113.31 3218.28 1125.24C3220.66 1133.24 3223.06 1141.3 3225.47 1149.41C3225.47 1149.43 3225.48 1149.45 3225.49 1149.47C3228.8 1160.63 3232.11 1171.83 3235.43 1183.17C3236.58 1187.12 3237.7 1191 3238.82 1194.83C3243.39 1210.5 3247.75 1225.53 3252.23 1243.23C3252.7 1245.39 3253.16 1247.74 3253.48 1249.49C3253.84 1251.43 3254.18 1253.3 3254.47 1255.07C3254.73 1256.63 3254.96 1258.12 3255.19 1259.55C3255.22 1259.74 3255.25 1259.93 3255.28 1260.12C3255.53 1261.71 3255.78 1263.22 3256.02 1264.67C3256.26 1266.12 3256.49 1267.51 3256.74 1268.87C3256.75 1268.88 3256.75 1268.89 3256.75 1268.9C3257.02 1270.32 3257.22 1271.4 3257.54 1272.88C3257.94 1274.74 3258.29 1276.3 3258.79 1278.29C3259.26 1280.2 3259.78 1282.17 3260.31 1284.14C3260.85 1286.12 3261.4 1288.12 3261.98 1290.13C3262.56 1292.15 3263.15 1294.19 3263.75 1296.23C3264.35 1298.28 3264.95 1300.29 3265.59 1302.42C3266.23 1304.55 3266.88 1306.7 3267.53 1308.84C3269.02 1313.78 3269.26 1318.85 3268.15 1322.97C3267.05 1327.06 3264.74 1329.99 3261.68 1330.99C3258.61 1331.99 3255.01 1330.99 3251.68 1328.36C3248.34 1325.7 3245.51 1321.49 3243.75 1316.65C3243.27 1315.33 3242.79 1314.01 3242.31 1312.67C3242.02 1311.87 3241.73 1311.07 3241.44 1310.27C3240.67 1308.14 3239.92 1306.06 3239.16 1303.91C3238.4 1301.78 3237.64 1299.61 3236.87 1297.4C3236.11 1295.19 3235.34 1292.93 3234.57 1290.62C3233.82 1288.34 3233.03 1285.89 3232.32 1283.57C3231.61 1281.28 3230.84 1278.63 3230.19 1276.25C3229.71 1274.5 3229.16 1272.33 3228.71 1270.51C3228.24 1268.61 3227.8 1266.72 3227.38 1264.9C3226.97 1263.06 3226.58 1261.28 3226.21 1259.57C3226.17 1259.39 3226.13 1259.21 3226.09 1259.03C3225.77 1257.56 3225.47 1256.14 3225.17 1254.8C3224.84 1253.3 3224.51 1251.89 3224.18 1250.54C3223.81 1249.06 3223.57 1248.17 3223.26 1247.08C3218.71 1232.59 3212.61 1215.14 3206.71 1198.38C3205.98 1196.29 3205.25 1194.21 3204.52 1192.14C3200.62 1181.08 3196.75 1170.2 3192.83 1159.23C3189.96 1151.18 3187.14 1143.29 3184.29 1135.33C3180.07 1123.52 3175.89 1111.83 3171.69 1100.04C3169.06 1092.67 3166.5 1085.5 3163.93 1078.26C3157.12 1059.13 3150.39 1040.12 3143.67 1020.88C3140.62 1012.15 3137.55 1003.29 3134.47 994.337L3136.66 999.606C3131.96 989.382 3127.36 979.325 3122.9 969.442C3114.43 950.744 3106.08 931.86 3097.95 912.798C3092.23 899.281 3086.47 884.479 3081.56 871.404C3078.99 864.516 3076.14 857.054 3073.59 850.222C3073.58 850.198 3073.57 850.174 3073.57 850.149C3071.26 844.026 3069.18 838.381 3066.81 832.241C3061.82 819.252 3057.13 807.265 3051.88 794.681C3046.87 782.571 3041.42 770.082 3036 758.205C3030.39 745.975 3024.83 734.319 3018.72 722.116C3012.82 710.338 3006.62 698.47 3000.18 686.608C2991.44 670.541 2982.78 655.347 2973.37 639.366C2964.16 623.764 2954.61 608.173 2944.81 592.808C2941.41 587.478 2937.95 582.117 2934.44 576.785C2934.43 576.764 2934.41 576.744 2934.4 576.723C2928 566.998 2921.34 557.167 2914.63 547.597C2904.24 532.77 2893.54 518.283 2882.43 504.113C2871.33 489.939 2859.78 476.065 2847.77 462.328C2836.58 449.509 2824.73 436.55 2812.63 423.368C2811.73 422.391 2810.84 421.415 2809.94 420.438C2798.21 407.645 2786.33 394.72 2774.69 382.318C2771.59 379.019 2768.5 375.745 2765.41 372.496C2750.7 357.028 2736.21 342.388 2721.42 328.532C2706.65 314.682 2691.44 301.458 2675.64 288.854C2659.89 276.291 2643.51 264.291 2626.62 253.082C2609.66 241.829 2592.54 231.59 2574.77 222.22C2557.13 212.93 2539.1 204.659 2520.64 197.601C2510.39 193.675 2499.43 189.805 2489.06 186.523C2478.59 183.199 2468.15 180.258 2457.8 177.74C2453.6 176.719 2449.4 175.76 2445.24 174.885C2439.16 173.604 2433.13 172.478 2427.17 171.522C2421.51 170.615 2415.96 169.868 2410.43 169.263C2405.68 168.721 2400.9 168.197 2396.09 167.698C2385.44 166.61 2374.96 165.71 2364.72 165.06C2354.34 164.426 2345.56 164.089 2335.18 163.972C2309.93 163.023 2294.43 161.84 2277.1 160.592C2273.69 160.349 2270.28 160.122 2266.65 159.886C2245.96 158.413 2225.25 156.889 2204.94 155.425C2184.41 153.939 2164.1 152.492 2143.69 151.082C2123.4 149.68 2102.98 148.307 2082.66 147.009C2062.29 145.71 2042.15 144.485 2021.78 143.321C2001.52 142.16 1980.74 141.05 1960.89 140.071C1949.36 139.504 1937.19 138.88 1925.83 138.328C1917.68 137.929 1909.54 137.551 1901.67 137.215C1898.44 137.078 1895.23 136.948 1892.05 136.827C1881.03 136.41 1870.44 136.1 1860.11 135.968C1849.82 135.833 1839.84 135.87 1830.11 136.128C1820.38 136.385 1810.78 136.868 1801.3 137.577C1791.44 138.325 1783.24 139.126 1772.83 140.409C1766.04 141.252 1759.36 142.124 1752.77 143.022C1746.79 143.834 1740.83 144.675 1734.87 145.549C1730.83 146.132 1726.86 146.719 1722.92 147.312C1712.93 148.814 1703.14 150.352 1693.31 151.987C1690.18 152.51 1686.9 153.066 1683.72 153.616C1674.04 155.3 1664.56 157.058 1655.2 158.949C1645.88 160.833 1636.77 162.828 1627.8 164.991C1618.87 167.151 1610.19 169.444 1601.51 171.984C1586.8 176.292 1573.11 180.011 1561.36 183.462C1549.48 186.936 1538.6 190.363 1528.19 194.033C1526.24 194.721 1524.28 195.424 1522.34 196.137C1514 199.197 1505.85 202.458 1497.94 205.922C1488.14 210.213 1478.69 214.808 1469.21 219.837C1459.8 224.829 1450.46 230.222 1441.26 235.944C1432.03 241.687 1423.2 247.55 1413.79 254.188C1404.47 260.76 1395.09 267.905 1385 275.879C1375.19 283.617 1365.11 291.813 1354.56 300.403C1354.21 300.689 1353.85 300.975 1353.5 301.262C1342.26 310.367 1330.32 319.819 1318.87 328.728C1307.11 337.855 1295.43 346.746 1283.64 355.544C1271.92 364.302 1260.16 372.915 1248.29 381.492C1236.64 389.918 1224.43 398.617 1212.91 406.725C1194.42 419.731 1175.88 432.73 1157.37 445.736C1139.03 458.624 1120.5 471.664 1102.16 484.608C1083.82 497.553 1065.47 510.56 1047.21 523.557C1028.92 536.572 1010.69 549.613 992.541 562.686C988.524 565.579 984.513 568.472 980.51 571.364C966.387 581.567 952.292 591.808 938.356 602.008C938.258 602.077 938.161 602.146 938.063 602.215C920.06 615.401 902.514 628.363 884.888 641.597C878.448 646.436 872.179 651.17 865.956 655.911C859.691 660.685 853.488 665.452 847.379 670.192C841.2 674.988 835.043 679.819 829.132 684.516C823.053 689.35 817.182 694.077 811.394 698.829C805.961 703.284 800.694 707.699 795.006 712.489C794.475 712.936 793.945 713.383 793.416 713.829C789.057 717.502 784.333 721.459 779.69 725.294C777.499 727.105 775.324 728.889 773.204 730.612C755.313 745.124 738.146 759.417 720.988 774.181C703.807 788.969 687.019 803.901 670.489 819.171C663.974 825.189 657.613 831.164 651.262 837.211C641.359 846.64 631.676 856.084 622.046 865.717C606.283 881.489 590.933 897.501 576.02 913.826C561.183 930.062 546.689 946.717 532.71 963.634C518.72 980.556 505.02 998.029 491.694 1015.8C483.827 1026.28 476.079 1036.92 468.382 1047.76C461.197 1057.92 454.2 1067.82 447.031 1078.01C431.989 1099.38 416.884 1121 402.043 1142.42C387.172 1163.88 372.291 1185.57 357.624 1207.14C342.959 1228.71 328.314 1250.47 313.842 1272.22C305.215 1285.18 296.589 1298.23 287.972 1311.36C284.243 1318.75 280.693 1325.84 277.268 1332.7C252.118 1383.19 234.433 1419.85 210.379 1467.49C208.19 1472.08 206.584 1475.91 204.597 1480.62C204.22 1481.52 203.817 1482.47 203.411 1483.43C200.863 1489.5 197.827 1496.55 193.265 1505.98C184.131 1524.87 168.852 1553.1 145.259 1587.29C139.305 1595.93 130.428 1598.93 125.351 1593.94C121.822 1590.39 121.074 1583.93 123.072 1577.29C116.789 1588.11 110.505 1599.05 104.386 1609.92C101.987 1614.17 98.5199 1617.87 94.8986 1619.77C91.2628 1621.7 87.6859 1621.86 84.8881 1620.25C82.0919 1618.63 80.2938 1615.34 79.9046 1611.01C79.5125 1606.68 80.6029 1601.61 82.7988 1597.14C88.78 1584.99 94.7121 1573.23 100.85 1561.18C106.898 1549.32 113.065 1537.35 119.249 1525.48C125.459 1513.56 131.743 1501.61 138.005 1489.81C144.33 1477.89 150.666 1466.07 157.066 1454.22C163.532 1442.26 169.895 1430.56 176.414 1418.7C180.385 1411.47 184.26 1404.47 188.226 1397.32C189.716 1394.64 191.091 1392.15 192.522 1389.58C193.685 1387.49 194.863 1385.39 196.08 1383.21C208.814 1360.41 221.84 1337.46 234.902 1314.77C248.041 1291.94 261.267 1269.29 274.641 1246.68C288.01 1224.07 301.586 1201.39 315.167 1178.98C328.761 1156.54 342.564 1134.02 356.395 1111.68C370.169 1089.43 384.244 1066.94 398.216 1044.79C404.724 1034.48 411.064 1024.46 417.566 1014.22C421.912 1007.37 426.267 1000.61 430.679 993.885C434.564 987.056 438.473 980.371 442.412 973.804C453.859 954.706 465.411 935.585 477.402 917.044C453.873 948.288 437.162 974.949 421.776 1000.71C419.723 1004.16 417.701 1007.59 415.675 1011.04C415.403 1011.51 415.132 1011.97 414.861 1012.43C394.318 1047.52 374.269 1081.58 345.624 1125.8C263.109 1253.52 218.452 1329.33 189.692 1376.16C161.154 1422.96 147.848 1442.61 133.183 1459.64C112.365 1483.75 81.1631 1535.42 67.8617 1562.46C62.9171 1572.39 54.052 1577.8 47.8195 1574.81C41.6366 1571.72 40.4776 1561.28 45.4848 1551.23C59.671 1522.37 93.5307 1465.85 118.451 1437.13C129.582 1424.25 140.563 1408.63 168.861 1362.23C197.316 1315.93 241.76 1240.42 324.703 1112.04C352.783 1068.7 372.276 1035.53 392.94 1000.21C393.256 999.674 393.573 999.133 393.89 998.592C395.615 995.646 397.347 992.696 399.1 989.743C399.114 989.723 399.128 989.702 399.142 989.681C418.371 957.463 440.161 922.544 474.987 879.503C551.777 782.705 676.53 674.952 711.774 642.662C713.024 641.518 714.167 640.467 715.195 639.514C720.998 634.131 726.81 628.698 732.684 623.213C755.658 601.902 783.413 576.079 849.895 522.982C864.387 511.425 881.667 498.029 900.555 483.694C927.02 459.569 952.946 436.418 976.071 417.056C996.046 400.334 1013.58 383.842 1030.47 367.53C1035.3 362.864 1040.21 358.089 1045.07 353.362C1056.76 341.977 1068.52 330.586 1080.32 319.844C1089.62 311.358 1099.38 302.204 1109.63 292.591C1146.92 257.644 1192.01 215.689 1256.89 170.066C1258.33 169.053 1259.76 168.053 1261.17 167.064C1330.48 118.242 1398.57 81.0801 1463.2 59.5233C1414.79 75.4321 1379.62 92.1263 1351.21 106.256C1345.85 108.951 1340.84 111.516 1335.9 114.109C1303.17 131.35 1280 145.244 1257.04 161.169C1256.1 161.822 1255.16 162.482 1254.21 163.151C1144.54 240.552 1104.98 271.916 1062.53 310.046C1051.36 320.108 1039.27 331.526 1026.24 343.866C1000.22 368.526 970.624 396.768 937.365 425.226C906.408 451.719 872.49 482.347 836.889 515.132C836.874 515.143 836.859 515.155 836.843 515.167C829.85 521.602 822.9 528.037 815.768 534.641C780.225 567.609 743.158 602.388 706.76 636.561C698.907 643.919 691.375 650.998 683.618 658.242C678.977 662.587 673.323 667.977 666.987 674.089C630.467 709.855 565.535 771.273 489.466 850.561C472.841 868.031 455.328 886.152 436.169 907.659C430.339 914.208 424.344 921.082 418.204 928.347C404.411 944.67 389.611 963.228 373.55 985.166C358.854 1005.22 342.801 1027.73 325.069 1053.67C294.491 1098.38 258.707 1153.65 222.46 1211.79C204.606 1240.43 186.639 1269.73 169.113 1298.73C116.28 1386.31 68.8441 1467.6 25.3162 1551.5C25.3078 1551.51 25.2994 1551.53 25.291 1551.55C20.2056 1561.37 11.1326 1566.9 5.08583 1563.53C-1.01284 1560.28 -1.69907 1549.19 3.4213 1539.3C47.4436 1454.53 95.0184 1373.08 147.909 1285.42C165.25 1256.73 183.145 1227.53 200.996 1198.9C237.556 1140.24 273.958 1084.02 304.921 1038.76C322.303 1013.34 338.084 991.18 352.596 971.336C369.913 947.605 385.9 927.588 400.735 910.111C407.36 902.304 413.704 895.065 419.81 888.248C439.237 866.586 456.091 849.279 472.221 832.354C547.588 753.979 610.363 694.361 647.427 658.055C653.889 651.801 659.935 646.051 664.805 641.479C673.43 633.406 681.979 625.368 690.774 617.111C725.738 584.233 761.369 550.761 795.984 518.625C803 512.113 810.015 505.631 816.948 499.237C816.961 499.222 816.973 499.207 816.986 499.192C852.738 466.242 887.274 435.026 918.898 407.952C950.984 380.487 977.759 354.893 1002.88 331.028C1016.34 318.233 1029.4 305.907 1042.46 294.129C1087.63 253.533 1129.41 220.598 1239.65 142.797ZM132.897 1560.43C147.427 1538.73 157.832 1520.42 165.053 1506.41C158.172 1517.81 151.259 1529.36 144.462 1540.82C140.597 1547.34 136.722 1553.91 132.897 1560.43ZM918.188 501.73C914.999 504.637 911.794 507.565 908.586 510.502C918.02 503.144 927.492 495.805 936.953 488.499C948.578 479.523 960.218 470.59 971.878 461.683C953.091 475.512 934.958 489.022 918.188 501.73ZM1271.42 190.46C1210.23 233.483 1169.06 271.779 1131.96 306.468C1121.28 316.465 1110.98 326.128 1100.6 335.572C1096.34 339.46 1092.1 343.42 1087.82 347.464C1115.45 327.977 1140.95 310.199 1161.82 295.72C1223.26 253.105 1259.7 230.075 1291.35 210.15C1291.87 209.822 1292.39 209.495 1292.9 209.17C1302.37 203.218 1311.44 197.65 1320.67 192.061C1327.78 186.322 1335.01 180.62 1342.73 174.872C1353.3 166.962 1365.23 158.559 1376.66 151.047C1388.24 143.432 1400.27 136.066 1412.39 129.272C1424.68 122.385 1437.05 116.059 1449.72 110.215C1461.67 104.705 1473.73 99.7057 1485.64 95.2331C1486.32 94.9782 1487 94.7247 1487.68 94.4726C1500.27 89.7911 1512.67 85.718 1524.12 82.1403C1535.77 78.4989 1545.5 75.6223 1554.09 72.8228C1564.8 69.3347 1575.92 66.0999 1586.89 63.2074C1597.92 60.303 1608.87 57.7084 1619.9 55.3323C1630.84 52.966 1641.8 50.822 1652.65 48.8466C1656.15 48.2086 1659.9 47.5493 1663.38 46.9469C1664.97 46.6707 1666.57 46.3931 1668.16 46.1223C1646.71 48.1727 1624.39 50.5754 1600.97 53.9013C1567.3 58.7133 1530.59 65.1119 1490.89 76.9767C1424.07 96.4963 1352.06 133.56 1275.53 187.571C1274.18 188.523 1272.8 189.486 1271.42 190.46ZM1992.95 32.3107C1983.61 32.1301 1970.01 32.0027 1952.36 32.0425C1948.21 32.0526 1943.82 32.0804 1939.22 32.1126C1939.33 32.1194 1939.44 32.1203 1939.55 32.1271C1950.94 32.8488 1961.47 33.546 1972.8 34.279C1993.02 35.5845 2012.66 36.9623 2032.42 38.429C2052.3 39.9027 2072.05 41.4518 2091.88 43.0869C2111.73 44.7231 2131.57 46.4325 2151.26 48.1936C2171.04 49.9599 2190.77 51.797 2210.45 53.6487C2216.79 54.2465 2223.07 54.8392 2229.35 55.4355C2215.42 53.3442 2200.83 51.3864 2185.34 49.4324C2173.1 47.8838 2160.2 46.3271 2146.65 44.7186C2141.4 44.0991 2135.26 43.3091 2127.9 42.4033C2098.9 38.848 2053.3 33.5104 1992.95 32.3107ZM2387.44 68.9116C2392.02 69.4481 2396.52 69.9993 2401.09 70.5969C2409.58 71.7035 2418.16 72.9275 2426.26 74.1442C2430.69 74.8151 2435.06 75.5484 2439.39 76.3373C2448.56 78.0131 2457.56 79.957 2466.4 82.1115C2470.12 83.0198 2473.82 83.9637 2477.48 84.9463C2483.62 86.5906 2489.66 88.3232 2495.64 90.1524C2473.04 82.5103 2450.05 76.5561 2426.56 72.3698C2408.37 69.1125 2390.06 66.0575 2371.31 63.1867C2370.77 63.1036 2370.23 63.0272 2369.68 62.9436C2375.73 64.958 2381.63 66.9451 2387.44 68.9116Z" fill="#A80F0F"/>
<path d="M3370.18 1404.77C3370.77 1404.95 3370.02 1404.93 3365.82 1405.06C3361.82 1405.35 3352.92 1405.21 3339.2 1410.7C3339.18 1410.7 3339.17 1410.71 3339.15 1410.71C3335.37 1412.28 3331.39 1414.34 3327.78 1416.72C3312.26 1426.87 3307.81 1439.07 3308.96 1439.66C3309.87 1440.98 3313.71 1435.07 3317.26 1425.11C3325.32 1402.32 3336.75 1378.87 3346.14 1366.16C3347.87 1363.79 3349.1 1361.08 3351.07 1354.14C3351.97 1351.02 3353.01 1347.04 3354.36 1341.67C3354.91 1339.52 3355.51 1337.14 3356.19 1334.48C3357.39 1329.67 3358.79 1324.1 3360.44 1317.64C3365.91 1296.13 3371.98 1261.75 3377.47 1230.27C3380.85 1210.94 3383.96 1192.97 3386.73 1179.13C3390.74 1159.13 3395.62 1139.73 3400.86 1118.93C3405.7 1099.67 3410.84 1079.29 3416.05 1055.26C3420.02 1036.94 3428.32 1019.85 3437.23 1002.67C3438.36 1000.49 3439.5 998.289 3440.65 996.084C3448.59 980.826 3456.7 965.26 3462.84 948.097C3473.83 917.313 3476.28 891.541 3478.97 863.116C3480.04 851.913 3481.11 840.455 3482.77 827.953C3485.39 808.282 3490.63 780.221 3495.95 752.083C3496.4 749.688 3496.85 747.286 3497.3 744.888C3497.3 744.876 3497.31 744.864 3497.31 744.852C3502.18 719.067 3506.94 693.831 3509.74 675.092C3514.16 645.46 3514.15 633.954 3514.14 624.401C3514.13 620.804 3514.13 617.469 3514.36 613.533C3515.18 599.431 3519.2 578.552 3523.25 557.415C3523.26 557.334 3523.27 557.253 3523.29 557.172C3523.96 553.659 3530.02 551.795 3536.83 553.014C3543.63 554.233 3548.61 558.075 3547.93 561.589C3545.78 572.82 3543.7 583.679 3542.07 593.555C3547.82 595.1 3551.78 598.531 3551.17 601.69C3549.66 609.596 3549.76 634.631 3550.18 673.941C3551.71 671.533 3553.14 669.539 3554.46 667.804C3556.02 665.768 3557.32 664.226 3558.44 662.9C3560.76 660.133 3562.3 658.29 3563.81 654.796C3566.29 646.556 3568.84 633.364 3571.52 619.447C3572.19 615.946 3578.25 614.092 3585.05 615.314C3591.85 616.538 3596.82 620.377 3596.15 623.881C3596.14 623.949 3596.12 624.018 3596.11 624.087C3593.46 637.88 3590.83 651.491 3588.22 660.108C3587.56 662.307 3586.9 664.183 3586.35 665.583C3585.92 666.702 3585.35 668.093 3584.81 668.826C3584.74 668.923 3584.59 669.108 3584.39 669.321C3584.38 669.324 3584.38 669.328 3584.37 669.331C3584.26 669.451 3583.67 670.061 3582.54 670.622C3582.31 670.735 3581.8 670.979 3581.01 671.226C3580.93 671.313 3580.86 671.4 3580.79 671.487C3579.77 672.703 3578.73 673.942 3577.69 675.299C3573.64 680.576 3568.19 689.193 3560.73 707.708C3553.87 724.775 3546.86 754.393 3540.1 791.755C3541.07 789.327 3542.02 786.888 3542.95 784.443C3545.28 778.292 3547.52 772.059 3549.7 765.89C3550.54 763.519 3551.36 761.176 3552.18 758.783C3553.51 754.931 3554.83 751.058 3556.14 747.177C3557.02 744.544 3557.89 741.949 3558.77 739.338C3558.77 739.332 3558.77 739.326 3558.77 739.32C3559.99 735.7 3561.21 732.065 3562.45 728.397C3562.9 727.115 3563.34 725.848 3563.77 724.587C3565.48 719.571 3567.15 714.624 3569.67 709.093C3570.05 708.431 3570.5 707.719 3570.87 707.194C3571.26 706.627 3571.65 706.085 3572.04 705.576C3572.38 705.127 3572.73 704.701 3573.05 704.292C3573.09 704.237 3573.14 704.182 3573.18 704.127C3573.54 703.669 3573.88 703.229 3574.2 702.806C3574.51 702.384 3574.82 701.977 3575.1 701.571C3575.1 701.567 3575.1 701.563 3575.1 701.559C3575.39 701.134 3575.6 700.811 3575.86 700.354C3576.19 699.779 3576.45 699.282 3576.73 698.673C3577 698.083 3577.26 697.464 3577.51 696.835C3577.75 696.207 3577.98 695.563 3578.2 694.907C3578.42 694.251 3578.63 693.583 3578.84 692.906C3579.05 692.231 3579.24 691.544 3579.44 690.853C3579.64 690.162 3579.84 689.463 3580.04 688.76C3580.5 687.138 3582.14 685.815 3584.66 685.076C3587.19 684.338 3590.37 684.243 3593.54 684.816C3596.71 685.39 3599.64 686.592 3601.72 688.163C3603.8 689.734 3604.84 691.544 3604.66 693.217C3604.61 693.671 3604.57 694.129 3604.52 694.587C3604.49 694.859 3604.45 695.132 3604.42 695.405C3604.34 696.14 3604.26 696.883 3604.16 697.627C3604.07 698.371 3603.96 699.119 3603.84 699.873C3603.72 700.63 3603.58 701.395 3603.43 702.166C3603.27 702.935 3603.09 703.718 3602.87 704.507C3602.66 705.277 3602.39 706.148 3602.09 706.919C3601.88 707.483 3601.58 708.169 3601.31 708.74C3601.03 709.335 3600.73 709.916 3600.43 710.473C3600.13 711.032 3599.82 711.569 3599.52 712.082C3599.49 712.137 3599.46 712.192 3599.43 712.247C3599.17 712.701 3598.92 713.138 3598.69 713.554C3598.43 714.018 3598.21 714.46 3598 714.882C3597.78 715.347 3597.67 715.634 3597.55 715.988C3596.29 720.714 3595.3 726.751 3594.35 732.458C3594.23 733.176 3594.11 733.89 3593.99 734.595C3593.38 738.347 3592.79 742.088 3592.2 745.821C3591.76 748.533 3591.34 751.243 3590.89 753.987C3590.24 758.013 3589.58 762.042 3588.9 766.055C3588.48 768.548 3588.06 770.99 3587.62 773.468C3586.49 779.91 3585.28 786.463 3583.96 792.947C3582.64 799.438 3581.22 805.871 3579.6 812.365C3577.98 818.838 3576.11 825.501 3573.94 831.843C3572.34 836.487 3570.15 841.211 3567.99 845.546C3566.83 847.874 3565.67 850.145 3564.51 852.378C3564.51 852.385 3564.5 852.393 3564.5 852.4C3563.48 854.36 3562.48 856.291 3561.51 858.211C3559.43 862.322 3557.5 866.385 3555.75 870.524C3554 874.643 3552.43 878.762 3551.05 882.934C3549.67 887.089 3548.46 891.258 3547.41 895.554C3546.35 899.837 3545.47 904.057 3544.68 908.5C3543.64 914.351 3542.82 920.12 3541.98 926.189C3541.17 932.178 3540.42 938.198 3539.68 944.205C3539.42 946.302 3539.15 948.405 3538.88 950.545C3538.88 950.553 3538.88 950.562 3538.88 950.57C3538.39 954.513 3537.9 958.453 3537.41 962.381C3536.64 968.46 3535.88 974.431 3535.02 980.604C3534.16 986.725 3533.25 992.839 3532.22 998.923C3531.17 1005.01 3529.96 1011.39 3528.42 1017.59C3527.04 1023.14 3525.56 1028.67 3524.07 1034.19C3523.68 1035.64 3523.29 1037.09 3522.9 1038.53C3521.06 1045.41 3519.41 1051.89 3518.08 1058.64C3516.76 1065.31 3515.8 1071.96 3515.11 1078.72C3514.4 1085.57 3513.95 1092.49 3513.67 1099.43C3513.39 1106.39 3513.22 1113.51 3513.18 1120.58C3513.15 1127.54 3513.16 1134.81 3513.25 1142C3513.3 1146.02 3513.26 1150.15 3513.13 1154.21C3513 1158.29 3512.8 1162.31 3512.59 1166.25C3512.5 1167.84 3512.4 1169.43 3512.31 1170.99C3512.18 1173.29 3512.05 1175.52 3511.93 1177.82C3511.72 1181.66 3511.57 1185.4 3511.54 1189.02C3511.5 1192.65 3511.6 1196.11 3511.85 1199.59C3512.12 1203.22 3512.52 1206.22 3513.21 1209.83C3514.24 1218.46 3514.08 1223.66 3513.9 1229.52C3513.86 1230.67 3513.83 1231.84 3513.81 1233.06C3513.54 1239.94 3513 1246.9 3512.31 1253.68C3511.62 1260.45 3510.74 1267.21 3509.69 1273.97C3508.68 1280.57 3507.45 1287.39 3506.11 1294.02C3504.79 1300.53 3503.26 1307.34 3501.63 1313.86C3500.03 1320.22 3498.13 1327.3 3496.27 1333.52C3495.19 1337.11 3493.88 1341.24 3492.67 1344.81C3491.78 1347.43 3490.9 1349.9 3490.02 1352.44C3489.66 1353.5 3489.29 1354.54 3488.94 1355.57C3487.72 1359.12 3486.56 1362.5 3485.56 1365.73C3485.45 1366.06 3485.35 1366.39 3485.25 1366.72C3484.34 1369.76 3483.56 1372.68 3482.92 1375.53C3482.21 1378.71 3481.7 1381.76 3481.3 1385.09C3480.92 1388.46 3480.73 1391.24 3480.7 1394.78C3480.67 1397.12 3480.63 1399.55 3480.61 1401.87C3480.56 1405.4 3480.59 1408.61 3480.53 1412.31C3480.5 1415.9 3480.5 1419.34 3480.52 1422.82C3480.51 1424 3480.5 1425.23 3480.5 1426.4C3480.49 1430.05 3480.56 1433.36 3480.56 1437.09C3480.58 1440.79 3480.65 1444.3 3480.71 1447.96C3480.75 1451.77 3480.83 1455.42 3480.93 1459.21C3481.01 1465.99 3480.16 1472.22 3479 1478.06C3477.82 1483.93 3476.36 1489.48 3474.42 1495.7C3474.07 1496.84 3473.7 1497.98 3473.33 1499.11C3471.71 1504.01 3469.77 1509.31 3467.32 1515.04C3464.29 1522.08 3460.67 1529.7 3454.84 1538.74C3449.33 1547.26 3440.9 1558.01 3428.94 1567.65C3416.78 1577.55 3401.08 1585.58 3385.11 1589.77C3369.41 1593.97 3354.74 1594.77 3342.6 1594.42C3330.11 1593.98 3320.34 1592.56 3311.29 1590.78C3302.78 1589.13 3295.24 1587.12 3288.46 1585C3281.87 1582.95 3275.86 1580.74 3270.22 1578.42C3264.8 1576.21 3259.44 1573.74 3254.73 1571.4C3249.75 1568.94 3245.21 1566.5 3240.77 1563.98C3240.43 1563.79 3240.09 1563.59 3239.75 1563.4C3233.31 1559.71 3226.86 1555.87 3220.48 1552C3213.96 1548.02 3207.35 1543.91 3200.94 1539.85C3194.45 1535.75 3188.03 1531.63 3181.78 1527.56C3175.4 1523.43 3169.2 1519.35 3162.85 1515.17C3161.42 1514.22 3160.1 1513.35 3158.73 1512.43C3153.92 1509.25 3148.93 1505.94 3144.2 1502.78C3144.17 1502.76 3144.14 1502.73 3144.11 1502.71C3137.87 1498.56 3131.85 1494.54 3125.66 1490.47C3123.36 1488.96 3121.21 1487.55 3119.02 1486.13C3116.81 1484.7 3114.63 1483.31 3112.41 1481.91C3110.17 1480.51 3107.95 1479.14 3105.79 1477.84C3103.58 1476.52 3101.41 1475.24 3099.19 1474C3097.16 1472.86 3095.05 1471.73 3092.86 1470.56C3092.65 1470.45 3092.45 1470.35 3092.25 1470.24C3089.83 1468.95 3087.1 1467.41 3084.63 1465.83C3078.01 1461.6 3071.79 1457.71 3065.14 1453.68C3058.65 1449.75 3051.97 1445.8 3045.37 1441.95C3042.78 1440.44 3040.17 1438.92 3037.54 1437.4C3033.43 1435 3029.42 1432.66 3025.34 1430.25C3018.59 1426.27 3011.98 1422.28 3005.31 1418.08C2998.65 1413.89 2992.17 1409.63 2985.65 1405.15C2979.26 1400.75 2972.77 1396.1 2966.56 1391.43C2959.62 1386.23 2952.71 1380.94 2945.86 1375.64C2938.97 1370.31 2932.18 1364.98 2925.36 1359.61C2918.54 1354.23 2911.78 1348.86 2905 1343.44C2898.26 1338.05 2891.46 1332.59 2884.75 1327.16C2880.73 1323.9 2876.68 1320.61 2872.67 1317.34C2870.05 1316.4 2867.53 1315.51 2865.11 1314.64C2847.21 1308.23 2834.31 1303.61 2818.23 1295.93C2816.63 1295.29 2815.23 1294.92 2813.54 1294.48C2813.21 1294.39 2812.87 1294.3 2812.52 1294.21C2810.31 1293.61 2807.8 1292.88 2804.6 1291.4C2798.2 1288.45 2789.23 1282.61 2780.59 1270.32C2778.41 1267.22 2780.06 1260.39 2784.28 1255.07C2787.24 1251.33 2790.67 1249.33 2793.21 1249.54C2790.09 1246.64 2787 1243.72 2783.91 1240.8C2782.68 1239.64 2782.18 1237.5 2782.55 1234.81C2782.92 1232.13 2784.13 1229.14 2785.91 1226.46C2787.7 1223.78 2789.94 1221.62 2792.16 1220.42C2794.38 1219.22 2796.4 1219.08 2797.79 1220C2801.46 1222.47 2805.13 1224.93 2808.81 1227.36C2812.5 1229.79 2816.2 1232.17 2819.92 1234.53C2823.64 1236.89 2827.37 1239.22 2831.14 1241.54C2834.89 1243.85 2838.66 1246.15 2842.44 1248.43C2846.24 1250.72 2850.01 1252.96 2853.82 1255.22C2856.11 1256.57 2858.42 1257.94 2860.69 1259.28C2861.54 1259.78 2862.37 1260.26 2863.2 1260.74C2863.88 1261.14 2864.56 1261.54 2865.26 1261.96C2872.66 1266.28 2880.09 1270.6 2887.53 1274.89C2894.97 1279.18 2902.42 1283.46 2909.88 1287.71C2917.31 1291.96 2924.84 1296.23 2932.29 1300.44C2939.78 1304.69 2947.23 1308.88 2954.75 1313.1C2962.25 1317.3 2969.73 1321.48 2977.27 1325.65C2983.07 1328.86 2988.86 1332.02 2994.67 1335.17C2997.21 1335.99 2999.71 1336.82 3002.17 1337.65C3009.35 1340.07 3016.83 1342.06 3024.16 1343.97C3012.61 1338.14 3002.81 1334.11 2993.53 1330.31C2992.28 1329.8 2991.04 1329.29 2989.81 1328.78C2977.25 1323.6 2965.25 1318.35 2950.63 1308.78C2909.15 1281.61 2885.2 1265.63 2870.87 1254.79C2856.54 1243.95 2851.26 1237.85 2847.69 1230.03C2842.63 1218.97 2828.05 1205.37 2819.78 1200.04C2816.78 1198.1 2817.32 1191.78 2821 1185.93C2824.68 1180.08 2830.1 1176.9 2833.1 1178.84C2841.83 1184.47 2857.75 1198.98 2863.76 1212.13C2866.43 1217.98 2870.48 1223.21 2884.59 1233.89C2898.69 1244.55 2922.42 1260.38 2963.95 1287.58C2978.03 1296.8 2989.57 1301.86 3001.97 1306.97C3003.19 1307.48 3004.43 1307.98 3005.67 1308.49C3005.68 1308.49 3005.68 1308.5 3005.69 1308.5C3017.13 1313.19 3029.54 1318.27 3045.32 1326.84C3081.58 1346.57 3131.24 1371.66 3143.78 1376.32C3146.24 1377.24 3148.61 1378.04 3151.17 1378.91C3161.05 1382.31 3172.66 1386.26 3197.21 1398.81C3202.64 1401.58 3208.67 1404.89 3215.4 1408.73C3226.93 1411.61 3238.22 1414.57 3247.48 1417.77C3255.53 1420.57 3263.58 1421.78 3271.67 1422.66C3274 1422.91 3276.22 1423.05 3278.63 1423.3C3284.37 1423.86 3289.8 1424.22 3295.15 1425.12C3299.3 1425.77 3303.76 1426.25 3308.47 1426.73C3310.04 1426.88 3311.61 1427.03 3313.19 1427.17C3328.74 1428.5 3349.16 1431.84 3360.05 1435.36C3362.79 1436.31 3363.81 1436.09 3359.97 1436.03C3356.5 1435.79 3345.94 1437.84 3339.32 1442.76C3332.6 1447.52 3331.12 1451.14 3331.14 1451.58C3331.2 1452.15 3332.47 1450.61 3333.73 1448.41C3331.62 1451.55 3329.78 1452.33 3330.39 1449.89C3330.86 1447.61 3334.96 1441.79 3341.51 1437.64C3343.9 1436.08 3346.46 1434.79 3348.76 1433.82C3357.22 1430.45 3361.6 1430.42 3363.02 1429.87C3364.54 1429.44 3363.99 1429.05 3362.49 1428.58C3350.24 1424.62 3332.3 1415.91 3321.1 1412.51C3314.47 1410.38 3308.29 1408.9 3301.65 1407.73C3296.75 1406.85 3291.25 1406.24 3285.19 1405.47C3273.16 1403.99 3259.4 1402.19 3245.74 1397.75C3233.16 1393.69 3218.48 1389.88 3202.88 1385.73C3202.87 1385.73 3202.87 1385.72 3202.86 1385.72C3199.84 1384.93 3196.8 1384.13 3193.69 1383.29C3174.79 1378.21 3155.01 1372.54 3136.69 1365.37C3134.75 1364.61 3132.39 1363.76 3129.66 1362.77C3113.88 1357.06 3086.24 1347 3058.09 1325.32C3051.97 1320.59 3045.96 1314.85 3039.22 1308.37C3037.17 1306.39 3035.03 1304.32 3032.78 1302.19C3023.06 1292.99 3011.08 1282.18 2993.99 1269.52C2979.86 1259.06 2962.19 1247.27 2943.77 1234.95C2934.71 1228.88 2925.5 1222.7 2916.45 1216.51C2889.15 1197.85 2864.64 1179.93 2840.17 1162.04C2840.17 1162.03 2840.16 1162.03 2840.16 1162.03C2837.27 1159.91 2837.98 1153.5 2841.74 1147.7C2845.51 1141.92 2850.91 1138.93 2853.8 1141.04C2878.29 1158.95 2902.71 1176.82 2929.9 1195.41C2938.81 1201.51 2947.95 1207.63 2956.97 1213.67C2975.46 1226.04 2993.37 1238 3007.62 1248.54C3024.99 1261.4 3037.16 1272.4 3047.01 1281.72C3049.38 1283.97 3051.59 1286.1 3053.68 1288.11C3060.36 1294.53 3065.95 1299.9 3071.77 1304.39C3098.96 1325.35 3125.52 1335.02 3141.3 1340.74C3144.11 1341.75 3146.56 1342.64 3148.61 1343.44C3166.52 1350.45 3185.94 1356.01 3204.75 1361.05C3207.82 1361.88 3210.85 1362.68 3213.84 1363.46C3213.84 1363.46 3213.85 1363.46 3213.86 1363.46C3229.43 1367.59 3244.2 1371.38 3257.03 1375.53C3270.12 1379.78 3282.36 1381.28 3294.02 1382.74C3300.08 1383.41 3306.24 1384.22 3311.72 1385.11C3319.12 1386.43 3325.8 1388.03 3333.02 1390.4C3339.22 1392.47 3345.57 1394.97 3352.56 1397.88C3359.13 1400.63 3367.82 1404.19 3370.18 1404.77ZM2798.06 1253.99C2803.69 1261.21 2809.27 1265.48 2813.82 1268.07C2810.43 1265.11 2807.08 1262.14 2803.74 1259.14C2801.84 1257.43 2799.95 1255.72 2798.06 1253.99ZM3203.63 1430.83C3202.22 1430.47 3200.8 1430.12 3199.37 1429.75C3202.86 1431.58 3206.22 1433.34 3209.69 1435.16C3213.99 1437.42 3218.14 1439.6 3222.37 1441.81C3215.94 1437.98 3209.45 1434.16 3203.63 1430.83ZM3352.26 1459.16C3337.16 1454.08 3317.61 1451.22 3301.04 1449.71C3300.58 1449.66 3300.11 1449.62 3299.64 1449.58C3294.82 1449.13 3289.78 1448.46 3285.26 1447.78C3283.34 1447.47 3281.36 1447.21 3279.33 1446.97C3285.64 1450.78 3291.64 1454.38 3296.85 1457.48C3299.5 1459.04 3301.92 1460.47 3304.13 1461.76C3324.95 1473.92 3335.93 1481.07 3345.48 1486.01C3348.26 1487.43 3350.92 1488.62 3353.44 1489.52C3355.87 1489.07 3358 1488.41 3359.75 1487.63C3362.26 1486.54 3363.69 1485.09 3364.48 1483.75C3365.27 1482.41 3365.92 1480.93 3366.87 1478.81C3367.79 1476.73 3368.88 1474.02 3369.9 1471C3370.89 1468.11 3371.83 1465 3372.69 1461.73C3372.74 1461.56 3372.79 1461.37 3372.83 1461.19C3373.72 1457.76 3374.49 1454.29 3375.02 1450.88C3375.54 1447.42 3375.71 1444.59 3375.54 1441.72C3375.25 1438.41 3375.04 1434.8 3374.85 1431.3C3374.62 1427.94 3374.51 1424.27 3374.37 1420.86C3374.22 1417.48 3374.17 1413.86 3374.1 1410.42C3374.07 1409.32 3374.05 1408.16 3374.04 1407.05C3374.03 1406.54 3374.02 1406.03 3374.02 1405.51C3372.57 1411.89 3370.96 1418.57 3369.13 1425.32C3366.53 1434.87 3363.07 1444.9 3358.92 1453.82C3357.22 1457.45 3355.26 1461.06 3353.61 1463.32C3351.99 1465.7 3350.41 1466.49 3351.72 1464.86C3352.81 1463.13 3358.42 1460.98 3359.13 1461.1C3360.03 1461 3356.87 1460.7 3352.26 1459.16ZM3391.56 1303.8C3391.06 1306.78 3390.45 1311.05 3389.65 1316.58C3389.46 1317.92 3389.26 1319.34 3389.05 1320.81C3389.06 1320.78 3389.07 1320.74 3389.08 1320.71C3390.4 1317.18 3391.57 1313.99 3392.75 1310.57C3394.84 1304.44 3396.81 1298.22 3398.63 1292.23C3400.47 1286.1 3402.21 1279.84 3403.8 1273.75C3405.42 1267.56 3406.92 1261.25 3408.26 1255.13C3409.63 1248.88 3410.89 1242.57 3411.95 1236.39C3412.3 1234.4 3412.63 1232.39 3412.95 1230.36C3411.49 1234.74 3410.11 1239.25 3408.67 1243.99C3407.49 1247.89 3406.27 1251.92 3404.93 1256.08C3404.42 1257.68 3403.73 1259.59 3402.94 1261.8C3399.72 1270.86 3394.73 1284.77 3391.56 1303.8ZM3415.51 1179.05C3415.61 1177.58 3415.73 1176.12 3415.87 1174.68C3416.28 1170.57 3416.82 1166.57 3417.4 1162.62C3417.8 1159.84 3418.23 1157.1 3418.64 1154.47C3418.81 1153.35 3418.98 1152.23 3419.15 1151.11C3419.43 1149.25 3419.7 1147.4 3419.97 1145.55C3416.86 1158.16 3413.93 1170.76 3411.33 1183.78C3411.29 1183.95 3411.26 1184.13 3411.23 1184.3C3412.68 1182.52 3414.12 1180.7 3415.51 1179.05Z" fill="#A80F0F"/>
</svg>
