<?xml version="1.0" encoding="UTF-8"?>
<svg id="Layer_1" data-name="Layer 1" xmlns="http://www.w3.org/2000/svg" viewBox="0 0 1500 1500">
  <defs>
    <style>
      .cls-1 {
        fill: #f57003;
      }

      .cls-2 {
        fill: #fff;
      }

      .cls-3 {
        fill: #af593b;
      }

      .cls-4 {
        fill: #fcf7e8;
      }

      .cls-5 {
        fill: #ff9c07;
      }

      .cls-6 {
        fill: #ff8d01;
      }

      .cls-7 {
        fill: #ed231f;
      }

      .cls-8 {
        fill: #4e684b;
      }

      .cls-9 {
        fill: #fec08d;
      }
    </style>
  </defs>
  <rect class="cls-4" width="1500" height="1500"/>
  <g>
    <g>
      <path class="cls-5" d="M1121.0471,488.2248c2.8706-4.1163,5.5908-8.3387,8.1186-12.6742,2.3034-3.9504,4.4472-7.995,6.3908-12.1345,1.7776-3.7859,3.3875-7.6515,4.7928-11.5911,1.2922-3.6226,2.4109-7.3076,3.3247-11.0438.8463-3.4594,1.5166-6.9623,1.9869-10.4926.4392-3.2952.7039-6.614.7791-9.9378.0707-3.1286-.0267-6.2613-.299-9.3789-.2583-2.9583-.6741-5.9028-1.2468-8.8166-.547-2.7828-1.2371-5.5374-2.0647-8.25-.7938-2.6022-1.7142-5.1656-2.7525-7.68-.9977-2.4161-2.1042-4.7872-3.3105-7.1063-1.1574-2.2253-2.4063-4.4027-3.738-6.5284-1.2724-2.0305-2.6202-4.0137-4.036-5.9469-1.3421-1.8325-2.7453-3.6202-4.2038-5.3615-1.3667-1.6319-2.7821-3.223-4.2415-4.7724-1.3464-1.4292-2.7302-2.8228-4.1493-4.1796-1.2808-1.2246-2.5902-2.4194-3.927-3.5828-1.1707-1.0189-2.3623-2.0137-3.5747-2.9823-1.5114-1.2076-3.0296-2.4056-4.6128-3.5197-1.3417-.9442-2.841-2.2509-4.4697-2.605-.3978-.0865-.4217-.0723-.6438.2517-.1728.2523-.3335.5141-.4991.7713-.6682,1.037-1.3272,2.0798-1.9769,3.1286-2.5098,4.0521-4.8782,8.1927-7.0703,12.4255-2.0094,3.8802-3.8706,7.838-5.5504,11.8723-1.5447,3.7102-2.9358,7.4855-4.1426,11.3192-1.115,3.5422-2.0727,7.1345-2.8472,10.7664-.7196,3.3747-1.2809,6.7838-1.6638,10.2134-.3582,3.2076-.5601,6.4331-.5926,9.6606-.0306,3.0396.0894,6.0807.3665,9.1079.2627,2.8695.6667,5.7261,1.2133,8.5552.5208,2.6967,1.1712,5.3683,1.9478,8.0028.7433,2.5208,1.602,5.0073,2.5705,7.4503.9284,2.3416,1.9577,4.6432,3.0807,6.8979,1.0759,2.1597,2.2379,4.2764,3.479,6.3455,1.185,1.9755,2.442,3.9076,3.7651,5.7933,1.2553,1.7894,2.5699,3.5372,3.9386,5.2413,1.2869,1.6019,2.6216,3.1656,4.0004,4.6891,1.2795,1.4139,2.5971,2.7934,3.9499,4.1372,1.2335,1.2251,2.4963,2.4208,3.7872,3.5853,1.1487,1.0363,2.3196,2.0481,3.5123,3.0335,1.0256.8473,2.067,1.6752,3.1252,2.4817.864.6586,1.7389,1.3028,2.626,1.9301.6643.4699,1.3353.9305,2.0146,1.3785.4267.2815.8562.5587,1.2911.8272.1509.0931.3024.1855.4552.2756.3679-.5172.7334-1.0363,1.0966-1.557Z"/>
      <path class="cls-5" d="M1084.0324,589.768c1.5598-4.7698,2.945-9.5978,4.1133-14.4786,1.0647-4.4473,1.9494-8.9386,2.615-13.463.6087-4.1379,1.034-8.3037,1.2419-12.4812.1912-3.8414.1982-7.6925-.0056-11.5334-.1886-3.5564-.5583-7.1036-1.1273-10.6194-.531-3.2817-1.2357-6.5356-2.1235-9.7395-.8357-3.0158-1.8334-5.9869-2.9943-8.8931-1.1015-2.7577-2.3498-5.4568-3.7394-8.0811-1.3272-2.5064-2.7833-4.9444-4.3588-7.3025-1.5114-2.2622-3.1327-4.4506-4.8527-6.5581-1.6528-2.0252-3.3968-3.9757-5.2213-5.8478-1.7506-1.7963-3.5751-3.5204-5.4638-5.171-1.8045-1.5766-3.6675-3.0862-5.5812-4.5283-1.8141-1.3669-3.6737-2.6733-5.5728-3.9194-1.7797-1.1678-3.5942-2.2825-5.4388-3.3444-1.7017-.9796-3.429-1.9143-5.1794-2.8035-1.5798-.8027-3.1785-1.5685-4.7942-2.2963-1.415-.6375-2.8431-1.2458-4.2836-1.8231-1.7957-.7197-3.5951-1.4284-5.4326-2.0379-1.5572-.5165-3.3699-1.3347-5.0315-1.2035-.4059.032-.4246.0526-.5437.4269-.0926.2915-.1709.5885-.2552.8825-.3403,1.1858-.6702,2.3745-.9894,3.5661-1.2329,4.6041-2.3049,9.2523-3.1815,13.9377-.8035,4.2951-1.4427,8.6217-1.886,12.9693-.4076,3.9982-.6495,8.0143-.6979,12.0332-.0448,3.7133.0755,7.4291.3827,11.13.2855,3.4388.7324,6.8647,1.3561,10.2588.5833,3.1744,1.3213,6.3208,2.222,9.4203.8484,2.919,1.8413,5.7959,2.9807,8.6142,1.08,2.6714,2.2917,5.2897,3.6319,7.8405,1.2773,2.4314,2.6713,4.8015,4.1756,7.0995,1.4394,2.1988,2.9796,4.3315,4.6122,6.3907,1.565,1.9738,3.215,3.8802,4.9412,5.7146,1.6537,1.7571,3.3774,3.4481,5.163,5.0707,1.7049,1.5492,3.4663,3.036,5.2774,4.4595,1.7185,1.3507,3.4818,2.6445,5.2842,3.8808,1.6947,1.1621,3.424,2.2738,5.184,3.3343,1.6333.9842,3.293,1.9245,4.9762,2.8205,1.5347.8168,3.0889,1.5969,4.6611,2.3391,1.399.6605,2.8121,1.2911,4.2386,1.8902,1.2265.5151,2.4627,1.0071,3.7086,1.4736,1.0173.381,2.041.7452,3.0715,1.0896.7717.2581,1.5471.5054,2.3268.7381.4898.1463.981.2877,1.4749.4192.1714.0455.343.0903.5154.1324.2029-.6014.4029-1.2039.6003-1.8073Z"/>
      <path class="cls-5" d="M1234.4416,479.9026c-.0427,5.0182-.2694,10.0358-.7185,15.0344-.4091,4.5546-1.0029,9.0936-1.8148,13.594-.7426,4.116-1.668,8.1999-2.8031,12.2256-1.0438,3.7018-2.2652,7.3541-3.6832,10.9294-1.3129,3.3106-2.7944,6.5547-4.4549,9.7055-1.5497,2.941-3.2554,5.8003-5.1184,8.5538-1.7538,2.5919-3.6469,5.0897-5.6739,7.474-1.9234,2.2625-3.9672,4.4226-6.1212,6.4667-2.0572,1.9523-4.2147,3.7987-6.46,5.5313-2.1538,1.6621-4.3884,3.2193-6.6907,4.6682-2.2123,1.3923-4.4873,2.685-6.8135,3.8774-2.232,1.1443-4.5111,2.1965-6.8275,3.1587-2.2131.9188-4.4602,1.7555-6.7338,2.512-2.1553.7171-4.3344,1.3622-6.5317,1.9376-2.0591.5393-4.1344,1.0171-6.2214,1.4354-1.9252.3858-3.8604.7208-5.803,1.0055-1.7533.257-3.5127.473-5.2762.6476-1.5444.153-3.092.2741-4.6413.362-1.9315.1095-3.863.2074-5.7989.1991-1.6406-.007-3.6196.1904-5.1526-.4639-.3745-.1598-.3857-.1853-.3792-.578.0052-.3058.0257-.6123.0396-.9178.0556-1.2324.122-2.4642.1995-3.6954.2997-4.7569.7659-9.5042,1.4293-14.2246.6082-4.327,1.382-8.6317,2.3483-12.8936.8887-3.9195,1.9402-7.803,3.1758-11.6275,1.1417-3.5337,2.4407-7.0171,3.912-10.4268,1.3672-3.1682,2.8833-6.2727,4.5567-9.2908,1.5651-2.8227,3.2679-5.5694,5.11-8.2199,1.7349-2.496,3.5934-4.9062,5.5721-7.2139,1.8756-2.1875,3.8589-4.2828,5.9425-6.273,1.986-1.8972,4.063-3.6989,6.2215-5.3973,2.0655-1.625,4.2053-3.1551,6.4094-4.5863,2.1127-1.3717,4.2845-2.6524,6.5056-3.8405,2.1277-1.138,4.3006-2.1911,6.5105-3.1595,2.1099-.9247,4.2535-1.7722,6.424-2.5437,2.0595-.7322,4.1433-1.3961,6.2459-1.9931,1.9768-.561,3.9703-1.0632,5.9766-1.5071,1.8619-.412,3.7348-.774,5.6158-1.0864,1.715-.2848,3.4369-.5285,5.1636-.7306,1.5366-.1799,3.077-.3269,4.6201-.4398,1.3267-.0971,2.6553-.1691,3.9849-.214,1.0857-.0367,2.1721-.0554,3.2586-.0533.8137.0014,1.6275.0144,2.4407.0424.5108.0175,1.0215.0402,1.5316.073.177.0115.3539.0238.5307.0389.0005.6347-.002,1.2696-.0074,1.9044Z"/>
      <path class="cls-5" d="M1226.2217,617.5484c-.8461,4.9465-1.8738,9.863-3.118,14.7251-1.1335,4.4302-2.4468,8.8154-3.9693,13.1276-1.3925,3.9439-2.9602,7.8267-4.7256,11.6186-1.6234,3.4867-3.4141,6.8962-5.3867,10.1981-1.8263,3.0575-3.8085,6.0224-5.9523,8.8664-2.0009,2.6548-4.1426,5.2038-6.4228,7.6233-2.1463,2.2774-4.4152,4.4397-6.798,6.4684-2.261,1.9251-4.6245,3.7298-7.0781,5.4025-2.3434,1.5975-4.7688,3.0743-7.2627,4.4248-2.3923,1.2956-4.8475,2.4746-7.3522,3.536-2.4068,1.0199-4.8595,1.9313-7.3467,2.7357-2.3865.7719-4.8047,1.4454-7.2454,2.024-2.3317.5524-4.6838,1.0182-7.0493,1.4007-2.2423.3625-4.4966.6502-6.7578.8662-2.119.2024-4.244.3416-6.371.4201-1.9622.0724-3.926.093-5.8891.0628-1.7718-.0272-3.5431-.0959-5.3118-.2061-1.549-.0965-3.096-.2248-4.6393-.3863-1.9241-.2014-3.8463-.4142-5.7559-.7325-1.6183-.2698-3.6033-.392-5.0117-1.2834-.344-.2177-.351-.2447-.2817-.6312.0541-.301.1235-.6002.1861-.8996.2524-1.2075.5153-2.4128.789-3.6158,1.0579-4.6475,2.2788-9.2587,3.6898-13.8119,1.2936-4.1737,2.7471-8.2987,4.3836-12.3508,1.5051-3.7265,3.1652-7.3914,4.9977-10.9685,1.6931-3.3051,3.5334-6.5354,5.532-9.6654,1.8571-2.9082,3.851-5.7298,5.9864-8.4407,1.9971-2.5355,4.118-4.9739,6.361-7.295,2.1124-2.1858,4.333-4.2671,6.6559-6.228,2.2018-1.8588,4.4952-3.6092,6.8708-5.2399,2.2643-1.5545,4.6031-3.0002,7.0059-4.3308,2.2991-1.2731,4.6565-2.4406,7.0614-3.5002,2.3052-1.0155,4.6541-1.9317,7.0368-2.7486,2.2825-.7824,4.5961-1.4738,6.9326-2.0757,2.2308-.5747,4.4825-1.0678,6.7485-1.4816,2.1502-.3928,4.3135-.7143,6.4845-.9667,2.0411-.2371,4.0894-.4134,6.1408-.5301,1.9038-.1084,3.8106-.1656,5.7173-.1726,1.7385-.0063,3.4772.029,5.214.1062,1.5456.0686,3.0897.1703,4.6309.306,1.3251.1168,2.6481.2585,3.9677.4272,1.0776.1377,2.1529.2933,3.225.4695.803.1318,1.6041.2749,2.4024.4329.5014.0992,1.0019.2033,1.5001.3175.1728.0397.3456.0802.5176.1234-.1012.6266-.2054,1.2529-.3124,1.8786Z"/>
      <path class="cls-5" d="M1042.2541,704.81c1.7921-4.6875,3.4127-9.4416,4.8193-14.2591,1.2818-4.3896,2.3859-8.8321,3.2729-13.3183.8112-4.1031,1.4405-8.2429,1.8532-12.4052.3795-3.8274.5757-7.6735.5607-11.5197-.0138-3.5614-.2088-7.1225-.6045-10.6619-.3692-3.3038-.9133-6.5884-1.6427-9.832-.6866-3.0532-1.5372-6.0697-2.554-9.0294-.9647-2.8084-2.079-5.5656-3.3381-8.255-1.2025-2.5685-2.5371-5.0751-3.995-7.5077-1.3984-2.3336-2.9104-4.5991-4.5248-6.7885-1.5514-2.1039-3.1975-4.1377-4.9279-6.0971-1.6603-1.8801-3.3979-3.6917-5.2033-5.4331-1.7249-1.6633-3.5116-3.2625-5.3521-4.7968-1.7447-1.4544-3.538-2.8505-5.3736-4.1883-1.7202-1.2538-3.4778-2.4562-5.268-3.6075-1.6515-1.062-3.3308-2.0803-5.0355-3.0544-1.5385-.8793-3.0976-1.7227-4.6756-2.5289-1.382-.7062-2.7785-1.3839-4.1889-2.0313-1.7582-.807-3.5207-1.6032-5.326-2.3022-1.53-.5924-3.3003-1.4985-4.9664-1.4491-.4069.0121-.4267.0317-.564.3997-.1068.2866-.1996.5794-.2982.8689-.3981,1.1676-.7859,2.3387-1.1633,3.5132-1.4575,4.538-2.7564,9.1279-3.862,13.7647-1.0134,4.2504-1.8643,8.5405-2.5206,12.861-.6035,3.9734-1.0422,7.9728-1.2879,11.9844-.2271,3.7066-.2893,7.4238-.1643,11.1353.1163,3.4486.3944,6.8924.8507,10.313.4267,3.1992,1.0093,6.378,1.7567,9.518.704,2.9571,1.5545,5.8794,2.5541,8.7501.9476,2.7212,2.0292,5.3959,3.2425,8.0094,1.1563,2.4912,2.4323,4.9268,3.8219,7.296,1.3297,2.2668,2.7633,4.4725,4.2929,6.6095,1.4662,2.0483,3.0206,4.0334,4.6546,5.9503,1.5654,1.8361,3.204,3.6098,4.9078,5.3181,1.6268,1.6311,3.313,3.2026,5.0521,4.7132,1.6501,1.4335,3.3477,2.8123,5.0873,4.1356,1.6356,1.2439,3.3082,2.4392,5.014,3.5848,1.583,1.0632,3.1945,2.0839,4.8317,3.0615,1.4927.8912,3.0068,1.7466,4.5406,2.5651,1.3648.7284,2.7453,1.4276,4.1407,2.096,1.1997.5747,2.4103,1.1268,3.6318,1.6539.9974.4305,2.002.8445,3.0142,1.2391.7581.2957,1.5204.5807,2.2877.8515.482.1702.9657.3355,1.4525.4911.1689.0539.3382.107.5082.1575.2322-.5907.4616-1.1827.6883-1.7756Z"/>
      <path d="M967.1069,843.2019c-.6641,0-1.3171-.3088-1.7322-.8899-.6836-.9558-.4639-2.2839.4919-2.9675.2734-.1965,27.6929-20.0244,58.1799-59.2383,28.1152-36.1627,64.6704-96.6907,79.1541-179.6783,27.7966-159.2609,7.5037-222.8894,7.2961-223.5138-.3723-1.1145.2295-2.3193,1.344-2.691,1.1157-.3705,2.3206.2307,2.6917,1.3446.8643,2.5897,20.8411,65.2734-7.1399,225.5914-14.6472,83.9258-51.6394,145.1288-80.0916,181.6937-30.8545,39.6509-58.6816,59.7534-58.9587,59.9524-.3748.2673-.8081.3967-1.2354.3967Z"/>
      <path d="M1096.3599,642.6093c-.1746,0-.3528-.022-.5273-.0665-.8838-.2264-1.5247-.99-1.5942-1.8994-3.3801-44.2767-60.3137-161.1353-60.8887-162.3108-.5151-1.0553-.0781-2.3291.9766-2.8455,1.0596-.5157,2.3303-.0781,2.8467.9766,2.2632,4.6295,53.3826,109.5667,60.625,157.9431,14.1968-21.5814,70.1953-105.7959,92.7588-126.1694.8716-.7874,2.218-.7184,3.0042.1532.7874.8722.719,2.2174-.1526,3.0048-24.9805,22.5555-94.5654,129.1736-95.2661,130.2478-.3992.6122-1.0742.9662-1.7822.9662Z"/>
      <path d="M1046.6711,753.9209c-.365,0-.7312-.094-1.0596-.2832-.719-.4126-1.1328-1.2061-1.0596-2.0312,4.0552-46.0059-38.9258-140.7562-39.3604-141.7078-.4883-1.0687-.0171-2.3309,1.051-2.8186,1.0693-.4913,2.3315-.0183,2.8186,1.051,1.7383,3.8062,41.3257,91.0925,39.9841,139.3689,18.606-13.2306,103.7085-74.0613,127.8406-96.9025.8521-.8075,2.1997-.7715,3.0078.0824.8069.8533.7703,2.1997-.083,3.0072-27.229,25.7733-130.8679,99.1058-131.9116,99.8431-.3662.2588-.7971.3906-1.228.3906Z"/>
    </g>
    <g>
      <path class="cls-5" d="M497.3781,439.2139c-3.0364-3.9956-5.9268-8.1033-8.6297-12.3319-2.4629-3.853-4.7702-7.8067-6.8813-11.8633-1.9308-3.7102-3.6973-7.5067-5.2624-11.3856-1.4391-3.5667-2.7075-7.203-3.7732-10.8987-.9869-3.4219-1.7998-6.8945-2.4139-10.4027-.5735-3.2745-.9736-6.5797-1.1845-9.8976-.1985-3.1231-.2292-6.2571-.0845-9.3833.1372-2.9664.4324-5.9255.8855-8.8602.4328-2.8028,1.0098-5.5833,1.7259-8.3275.6868-2.6325,1.5017-5.2313,2.4364-7.786.8981-2.4549,1.9069-4.8692,3.0173-7.2356,1.0655-2.2707,2.2244-4.4974,3.4682-6.6756,1.1884-2.0808,2.454-4.1174,3.7896-6.1068,1.2661-1.8858,2.5951-3.7293,3.9812-5.5288,1.2989-1.6864,2.6481-3.334,4.043-4.9417,1.2868-1.483,2.6126-2.932,3.9751-4.3456,1.2297-1.2759,2.4892-2.5232,3.7773-3.7402,1.1281-1.0659,2.2781-2.1085,3.4499-3.1259,1.4608-1.2683,2.9288-2.5274,4.4652-3.7053,1.302-.9982,2.7467-2.3651,4.3596-2.7855.3939-.1027.4184-.0894.6535.2252.183.245.3542.5.5302.7502.71,1.0088,1.4111,2.0239,2.1031,3.0452,2.6732,3.9461,5.2088,7.9865,7.5721,12.1263,2.1662,3.7948,4.1877,7.6733,6.0308,11.6356,1.695,3.644,3.2392,7.3593,4.6016,11.1405,1.2588,3.4937,2.3625,7.0438,3.2847,10.6411.8569,3.3425,1.557,6.7258,2.0797,10.1369.4889,3.1903.8224,6.4048.9868,9.6283.1547,3.0358.1592,6.0793.0059,9.1153-.1452,2.8778-.4322,5.7486-.8628,8.5977-.4102,2.7157-.9509,5.4116-1.6192,8.0757-.6396,2.549-1.3961,5.0686-2.264,7.5491-.832,2.3776-1.7663,4.7194-2.7963,7.018-.9868,2.2019-2.0613,4.3643-3.2168,6.4823-1.1032,2.0223-2.2803,4.0041-3.5252,5.9423-1.1811,1.8392-2.4232,3.6392-3.7212,5.3978-1.2204,1.6532-2.4901,3.2701-3.8055,4.8486-1.2207,1.465-2.4808,2.8972-3.7775,4.2951-1.1824,1.2745-2.3953,2.5207-3.6375,3.737-1.1054,1.0824-2.2339,2.1411-3.3854,3.1745-.9901.8885-1.9969,1.7583-3.0212,2.6073-.8363.6933-1.6842,1.3727-2.545,2.0358-.6445.4967-1.2961.9843-1.9565,1.4597-.4148.2987-.8326.5932-1.2562.8793-.147.0992-.2945.1977-.4435.2939-.3887-.5018-.7751-1.0055-1.1593-1.5109Z"/>
      <path class="cls-5" d="M538.5108,539.16c-1.7534-4.7021-3.3347-9.4695-4.7015-14.2984-1.2455-4.4001-2.313-8.8515-3.1628-13.3449-.7773-4.1096-1.3724-8.2545-1.7508-12.4201-.3479-3.8304-.5124-7.678-.4656-11.524.0431-3.5612.2675-7.1205.6925-10.6566.3964-3.3006.9677-6.5806,1.7238-9.8181.7117-3.0474,1.5872-6.0568,2.6284-9.008.9879-2.8004,2.1248-5.5482,3.4061-8.2271,1.2237-2.5585,2.5789-5.054,4.0568-7.4745,1.4177-2.322,2.9482-4.5749,4.5807-6.7509,1.5687-2.091,3.2316-4.1112,4.978-6.0562,1.6757-1.8663,3.4283-3.6635,5.248-5.3899,1.7386-1.649,3.5384-3.2334,5.3915-4.7525,1.7567-1.4399,3.5614-2.8212,5.408-4.1438,1.7305-1.2395,3.4979-2.4274,5.2976-3.5639,1.6602-1.0483,3.3479-2.0528,5.0605-3.0128,1.5457-.8666,3.1117-1.6971,4.6964-2.4903,1.3878-.6948,2.7899-1.3609,4.2055-1.9966,1.7648-.7925,3.5338-1.5741,5.3448-2.2582,1.5348-.5797,3.3126-1.4713,4.9782-1.408.4068.0154.4264.0352.5607.4043.1045.2874.1948.581.291.8714.3884,1.1709.7666,2.3451,1.1342,3.5227,1.42,4.5499,2.681,9.1504,3.7483,13.7961.9783,4.2587,1.7937,8.5556,2.4143,12.8814.5706,3.9782.9764,7.9811,1.189,11.9947.1965,3.7083.2281,7.4259.0724,11.1363-.1447,3.4476-.4513,6.8889-.9358,10.3056-.4531,3.1956-1.0619,6.3695-1.8352,9.5032-.7284,2.9512-1.6029,5.8663-2.6262,8.7288-.97,2.7133-2.0736,5.379-3.3085,7.9824-1.1769,2.4816-2.4729,4.9066-3.882,7.2642-1.3484,2.2558-2.8001,4.4496-4.3473,6.5738-1.483,2.0361-3.0538,4.0083-4.7036,5.9117-1.5805,1.8232-3.2337,3.5832-4.9515,5.2774-1.6402,1.6176-3.3393,3.1751-5.0908,4.6714-1.6619,1.4198-3.3708,2.7846-5.1212,4.0935-1.6458,1.2304-3.3282,2.4118-5.0434,3.5433-1.5917,1.0501-3.2116,2.0575-4.8568,3.0215-1.5.8788-3.0211,1.7218-4.5616,2.5276-1.3708.7171-2.757,1.4049-4.1578,2.0618-1.2044.5648-2.4195,1.1068-3.6453,1.6239-1.0009.4223-2.0089.828-3.0244,1.2142-.7605.2894-1.5251.5681-2.2947.8326-.4834.1662-.9684.3275-1.4565.4791-.1694.0525-.3391.1043-.5095.1533-.2273-.5926-.4518-1.1865-.6737-1.7812Z"/>
      <path class="cls-5" d="M383.7383,435.5318c.2477,5.0123.6792,10.0165,1.3322,14.9925.5948,4.5341,1.3736,9.045,2.3687,13.5085.9102,4.0822,2.0016,8.1249,3.3003,12.1009,1.1942,3.656,2.5638,7.2554,4.1267,10.7698,1.447,3.2542,3.0599,6.4351,4.8478,9.5153,1.6686,2.8753,3.4896,5.6624,5.4637,8.3375,1.8582,2.518,3.8518,4.9364,5.9745,7.2359,2.0142,2.182,4.1446,4.2568,6.3803,6.2112,2.1352,1.8666,4.3664,3.6233,6.6806,5.2627,2.2199,1.5727,4.5163,3.0373,6.8758,4.391,2.2674,1.3008,4.5933,2.4994,6.9662,3.5958,2.2769,1.0521,4.597,2.0104,6.9509,2.8771,2.2488.8276,4.5282,1.5718,6.8308,2.2348,2.1828.6284,4.3864,1.184,6.6054,1.6692,2.0795.4547,4.1725.8474,6.2748,1.18,1.9394.3068,3.8866.5625,5.8392.7675,1.7623.1851,3.5291.3291,5.2982.4315,1.5494.0897,3.1006.1475,4.6522.172,1.9343.0305,3.8682.0494,5.8022-.038,1.639-.074,3.6243.0423,5.1294-.674.3676-.1749.3778-.2009.3552-.593-.0176-.3053-.0507-.6107-.0771-.9154-.1059-1.2291-.2226-2.4572-.3503-3.6842-.4938-4.7407-1.1536-9.465-2.0093-14.1543-.7844-4.2986-1.7336-8.568-2.8731-12.7869-1.0481-3.8799-2.2574-7.7172-3.6483-11.4881-1.2851-3.4841-2.7253-6.9115-4.3347-10.2583-1.4955-3.1097-3.1371-6.1497-4.9325-9.0968-1.6791-2.7564-3.4928-5.4313-5.4416-8.0042-1.8355-2.4231-3.7909-4.7553-5.8622-6.9802-1.9634-2.1091-4.0306-4.1215-6.1939-6.025-2.0618-1.8145-4.2107-3.5298-6.4369-5.1386-2.1301-1.5392-4.3307-2.9807-6.5914-4.3206-2.167-1.2843-4.3893-2.4751-6.6571-3.5715-2.1724-1.0501-4.3865-2.0135-6.6341-2.8909-2.1459-.8377-4.3223-1.5969-6.5226-2.2791-2.0877-.6474-4.1969-1.2257-6.3221-1.7362-1.9981-.4798-4.0105-.9001-6.0332-1.2616-1.8771-.3356-3.7633-.6207-5.6555-.856-1.7252-.2145-3.4556-.3876-5.1892-.519-1.5426-.117-3.0878-.2009-4.6342-.2507-1.3296-.0428-2.66-.0605-3.9903-.051-1.0863.0077-2.1726.0334-3.258.0799-.813.0347-1.6255.0809-2.4369.1421-.5097.0384-1.019.0819-1.5273.1356-.1763.0187-.3527.0382-.5287.0605.0254.6342.0539,1.2684.0852,1.9025Z"/>
      <path class="cls-5" d="M397.5753,572.7269c1.0475,4.9078,2.2752,9.7782,3.717,14.5854,1.3136,4.3802,2.805,8.7081,4.5024,12.9545,1.5524,3.8837,3.2775,7.6992,5.1964,11.4158,1.7645,3.4175,3.6931,6.7509,5.7989,9.9695,1.9497,2.9803,4.0514,5.8617,6.3096,8.6157,2.1077,2.5708,4.3518,5.0302,6.7289,7.3545,2.2376,2.1878,4.5929,4.2556,7.0567,6.1852,2.3378,1.8311,4.7731,3.5378,7.293,5.1088,2.4067,1.5004,4.8905,2.8769,7.4374,4.1244,2.4432,1.1967,4.9446,2.2745,7.4905,3.2326,2.4465.9207,4.9344,1.7312,7.4524,2.4333,2.4161.6738,4.8598,1.2479,7.322,1.7263,2.3523.4567,4.7215.826,7.1006,1.1116,2.2552.2706,4.5194.4659,6.7875.5893,2.1255.1157,4.2544.1679,6.3828.1595,1.9635-.0079,3.9265-.0674,5.8868-.1779,1.7692-.0996,3.5362-.2406,5.2989-.423,1.5437-.1597,3.0842-.3511,4.6197-.5755,1.9142-.2798,3.8261-.571,5.7211-.9671,1.6059-.3357,3.5843-.5389,4.9551-1.4871.3348-.2316.3408-.2588.2556-.6422-.0663-.2985-.1479-.5947-.2227-.8913-.3015-1.1962-.6134-2.3898-.9361-3.5805-1.247-4.6003-2.6552-9.1579-4.251-13.6496-1.463-4.1174-3.0839-8.1796-4.8846-12.1614-1.6561-3.6619-3.4646-7.2559-5.4417-10.7552-1.8267-3.2332-3.7975-6.3856-5.9223-9.4313-1.9744-2.8299-4.0819-5.5677-6.3263-8.189-2.0991-2.4518-4.3178-4.8015-6.6537-7.029-2.2-2.0977-4.5038-4.0865-6.9048-5.9509-2.2759-1.7673-4.6389-3.4225-7.0792-4.9548-2.3259-1.4607-4.7219-2.8096-7.177-4.0409-2.3492-1.1781-4.7523-2.2483-7.1985-3.2087-2.3448-.9205-4.7292-1.7399-7.1433-2.4588-2.3126-.6885-4.6525-1.2847-7.0116-1.7907-2.2524-.4831-4.5223-.8838-6.8034-1.2047-2.1645-.3046-4.339-.5375-6.5186-.7009-2.0491-.1535-4.1029-.2459-6.1574-.2787-1.9067-.0305-3.8141-.0098-5.7196.0611-1.7373.0647-3.4731.171-5.2053.3191-1.5415.1317-3.0801.2964-4.6145.495-1.3193.1708-2.6353.3664-3.947.5889-1.0711.1816-2.1391.381-3.2031.6008-.7969.1645-1.5916.3402-2.3827.5307-.497.1196-.9927.2441-1.4859.3785-.1711.0467-.342.0943-.5121.1444.1267.6219.2564,1.2434.3889,1.8643Z"/>
      <path class="cls-5" d="M584.9547,652.3989c-1.9822-4.6103-3.7957-9.2943-5.3979-14.0503-1.4601-4.3336-2.7448-8.7272-3.8143-13.1735-.9781-4.0665-1.7761-8.1771-2.3585-12.3191-.5356-3.8086-.8888-7.6435-1.0309-11.4872-.1318-3.559-.0824-7.1251.1684-10.6777.2339-3.3161.6434-6.6202,1.2396-9.8909.5613-3.0787,1.2879-6.1274,2.1829-9.1262.8492-2.8455,1.8498-5.6459,2.998-8.3845,1.0966-2.6155,2.3276-5.1745,3.6849-7.6647,1.3019-2.3888,2.72-4.7141,4.2437-6.9677,1.4641-2.1655,3.0258-4.2649,4.6746-6.2933,1.5821-1.9464,3.2442-3.8275,4.977-5.6411,1.6555-1.7324,3.3753-3.4033,5.1516-5.0115,1.6839-1.5244,3.4185-2.9927,5.198-4.4044,1.6675-1.323,3.3745-2.5962,5.1162-3.8197,1.6068-1.1286,3.2431-2.2147,4.9065-3.2576,1.5013-.9414,3.0246-1.8478,4.5684-2.7179,1.352-.7621,2.7197-1.4963,4.1024-2.2007,1.7238-.8782,3.4522-1.7457,5.2275-2.5179,1.5045-.6544,3.2363-1.6321,4.903-1.6508.4071-.0046.4277.0142.5798.3763.1184.282.2231.5708.3334.856.4455,1.1504.8808,2.3046,1.3059,3.4628,1.6417,4.4747,3.1271,9.0077,4.4212,13.5954,1.1862,4.2055,2.2117,8.4572,3.0439,12.7473.7653,3.9454,1.3671,7.9235,1.7765,11.9218.3783,3.6942.5924,7.4058.6191,11.1193.0247,3.4505-.1125,6.9027-.4286,10.3392-.2956,3.214-.7479,6.414-1.3664,9.5818-.5826,2.9834-1.3129,5.938-2.1945,8.8472-.8356,2.7577-1.807,5.4743-2.9125,8.1352-1.0536,2.5364-2.229,5.0221-3.5206,7.446-1.236,2.3193-2.5783,4.5817-4.0192,6.7794-1.3813,2.1065-2.8533,4.1535-4.4076,6.1355-1.4891,1.8986-3.0538,3.7377-4.6864,5.5142-1.5588,1.6962-3.1794,3.3353-4.8553,4.9157-1.5901,1.4997-3.23,2.9467-4.9141,4.34-1.5834,1.3097-3.2058,2.5723-4.8633,3.7867-1.5382,1.127-3.1067,2.2127-4.7026,3.2563-1.455.9514-2.9329,1.868-4.432,2.7485-1.3339.7836-2.6847,1.5386-4.0516,2.2635-1.1753.6232-2.3622,1.2243-3.5612,1.801-.979.4709-1.9658.9256-2.9611,1.3613-.7454.3264-1.4954.6423-2.251.9442-.4746.1897-.9512.3747-1.4313.55-.1666.0608-.3335.1208-.5014.1782-.2561-.5807-.5095-1.1629-.7603-1.746Z"/>
      <path d="M665.6073,787.6062c-.4004,0-.8044-.1123-1.1639-.3479-.285-.1868-28.9099-19.1357-61.3593-57.4933-29.9231-35.3717-69.3842-95.0122-87.4487-178.269-34.5074-159.0405-17.1088-222.4878-16.3513-225.1111.3259-1.1285,1.5039-1.7773,2.6324-1.4532,1.1279.3247,1.7798,1.5033,1.4557,2.6318-.1819.6348-17.8052,65.2863,16.4209,223.0304,17.879,82.4005,56.9287,141.4209,86.5393,176.4227,32.0544,37.8906,60.1624,56.499,60.4425,56.6821.9827.6445,1.2573,1.9629.614,2.9456-.4083.6238-1.0883.9619-1.7816.9619Z"/>
      <path d="M528.2654,592.4622c-.6763,0-1.3269-.3235-1.7334-.8948-.7434-1.0443-74.6283-104.7302-100.5078-126.2457-.9033-.7507-1.0272-2.0923-.2759-2.9956.7501-.9045,2.0911-1.0291,2.9956-.2759,23.3771,19.4342,82.7698,101.2903,97.8369,122.2736,5.26-48.6316,52.0483-155.5701,54.1211-160.2881.473-1.0748,1.7291-1.5613,2.8033-1.0919,1.0754.4724,1.5643,1.7279,1.0919,2.8033-.5261,1.1975-52.6367,120.2893-54.2059,164.6625-.0323.9113-.6415,1.7004-1.5143,1.9623-.202.061-.4077.0903-.6116.0903Z"/>
      <path d="M582.4603,701.6504c-.4022,0-.8044-.1135-1.156-.3412-1.073-.6946-107.6202-69.7308-135.8801-94.3701-.8856-.7721-.9778-2.1161-.2057-3.0011.7727-.8862,2.1173-.9772,3.0011-.2057,25.047,21.8378,112.5702,79.1443,131.6937,91.5985-3.313-48.1818,32.6746-137.0123,34.256-140.8862.4443-1.0883,1.6864-1.6107,2.7734-1.1658,1.0876.4443,1.6095,1.6858,1.1658,2.7734-.3955.9686-39.4684,97.3962-33.5382,143.1976.1062.8221-.2747,1.6309-.9753,2.0728-.3467.2191-.741.3278-1.1346.3278Z"/>
    </g>
    <g>
      <path d="M475.3552,846.1316c-.5383,0-1.076-.2026-1.4905-.6091-.2289-.2258-23.1787-22.8943-46.1511-57.6709-21.2408-32.1545-46.8768-81.5692-48.3813-134.3713-.0336-1.1743.8917-2.1533,2.066-2.1869,1.1414-.033,2.1539.8911,2.1869,2.066,2.8271,99.2041,92.3566,188.2385,93.2605,189.126.838.824.8502,2.1704.0275,3.009-.4163.4236-.9674.6372-1.5179.6372Z"/>
      <path d="M424.5154,781.0779c-.498,0-.9985-.1746-1.402-.5286-.8832-.7751-.9711-2.1191-.1965-3.0017.3119-.3564,31.2805-35.8972,38.3917-63.7024.2911-1.1377,1.4478-1.8231,2.5885-1.5338,1.1383.2911,1.825,1.4502,1.5338,2.5885-7.3651,28.7964-38.0145,63.9697-39.3158,65.4529-.4205.4797-1.0089.7251-1.5997.7251Z"/>
      <path d="M445.5695,753.0737c-.2979,0-.5957-.0635-.8722-.188-.5145-.2307-.9161-.6567-1.1169-1.1853l-12.276-32.337c-.4169-1.0986.1355-2.3267,1.2341-2.7441,1.0968-.4163,2.3273.1349,2.7441,1.2341l11.521,30.3485,25.7043-9.7583c1.0974-.4169,2.3267.1349,2.7441,1.2341.4169,1.0986-.1355,2.3267-1.2341,2.7441l-27.6935,10.5127c-.2435.0928-.4993.1392-.755.1392Z"/>
      <path d="M391.6425,713.0865c-.4388,0-.8801-.1355-1.2592-.4138l-30.4883-22.4207c-.9467-.6958-1.1493-2.0276-.4535-2.9742.6964-.946,2.027-1.1487,2.9742-.4535l28.8568,21.2207,27.4872-33.7677c.741-.9131,2.0819-1.0492,2.9926-.307.9113.7416,1.0486,2.0813.307,2.9926l-28.7659,35.3387c-.4193.5151-1.0321.7849-1.651.7849Z"/>
      <path d="M412.8394,770.6885c-14.1351,0-53.1683-3.3411-90.5389-36.6644-.8765-.7819-.954-2.1265-.1715-3.0035.7812-.8771,2.1271-.9528,3.0035-.1715,45.0922,40.2081,92.2778,35.4596,92.7502,35.401,1.1688-.1257,2.2205.7117,2.3505,1.8774.1306,1.1682-.7104,2.2205-1.8781,2.3511-.0958.011-2.0648.21-5.5157.21Z"/>
      <path d="M345.0336,766.2512c-1.0632,0-1.9818-.7959-2.11-1.8774-.1385-1.167.6952-2.2241,1.8622-2.3633l23.0725-2.7344-5.5682-21.886c-.2893-1.1383.3986-2.2961,1.5375-2.5861,1.1359-.2875,2.2961.3979,2.5861,1.5375l6.1664,24.2371c.1508.5945.0385,1.2244-.3082,1.7297-.3467.5042-.8948.8362-1.5033.9082l-25.4822,3.02c-.0848.0098-.1697.0146-.2527.0146Z"/>
      <g>
        <circle class="cls-7" cx="321.5657" cy="731.8164" r="6.9382"/>
        <circle class="cls-7" cx="363.4659" cy="733.059" r="6.9382"/>
        <circle class="cls-7" cx="360.6785" cy="687.2829" r="6.9382"/>
        <circle class="cls-7" cx="380.9945" cy="652.0398" r="6.9382"/>
        <circle class="cls-7" cx="419.6944" cy="673.7367" r="6.9382"/>
        <circle class="cls-7" cx="432.4194" cy="716.3066" r="6.9382"/>
        <circle class="cls-7" cx="464.168" cy="709.7601" r="6.9382"/>
        <circle class="cls-7" cx="476.3279" cy="739.2692" r="6.9382"/>
        <circle class="cls-7" cx="339.8397" cy="765.7666" r="6.9382"/>
      </g>
    </g>
    <g>
      <path class="cls-8" d="M526.7929,1037.9485c-25.7388,13.4081-74.2181-240.6314-125.706-221.1467-26.9036,10.1812,11.7564,114.6228,11.7564,114.6228,0,0-32.8201-39.0285-53.3201-86.3115-20.5001-47.2829-35.5025-100.8734-68.1598-91.0067-32.6557,9.8662-30.9806,79.5608-30.9791,79.5637-17.2964-33.2329-17.9119-117.9488-55.1219-138.5419-40.8313-22.5967-87.543,12.1517-85.399,55.7998,2.681,54.5805,56.6463,117.1376,84.96,130.9901-11.2889-5.5231-60.4893-9.1448-67.9043-.0512-18.5339,22.7298,4.1517,48.8917,23.0548,62.5234,36.5954,26.3903,76.5718,39.7551,121.2793,42.041-12.2653,2.1028-35.1591,7.3445-36.8857,22.671-6.5953,58.5421,106.7271,41.1638,137.2303,36.5317-11.9629,8.3027-18.9833,23.2372-17.7436,37.7461.2565,3.0022.9282,6.1552,3.0041,8.339,3.9476,4.1528,10.7355,2.9597,16.2409,1.3726,51.6343-14.8854,96.3123-30.1634,143.6936-55.1431Z"/>
      <path d="M570.2814,1052.3669c-.1752,0-.3534-.022-.5316-.0671-78.0731-20.0928-147.76-48.2104-207.124-83.5718-47.5323-28.3142-88.5938-61.3098-122.0428-98.0725-57.0453-62.6965-72.3828-115.4456-72.5305-115.9717-.3192-1.1304.3387-2.3047,1.4685-2.6245,1.1285-.3137,2.3059.3394,2.6257,1.4685.1465.5176,15.3064,52.4939,71.7816,114.4812,52.1454,57.2363,151.1853,134.9548,326.8823,180.1697,1.1377.293,1.8225,1.4526,1.5295,2.5903-.2466.9607-1.1108,1.5979-2.0587,1.5979Z"/>
    </g>
    <g>
      <path class="cls-8" d="M973.2071,1010.3335c25.7388,13.4081,74.2181-240.6314,125.706-221.1467,26.9036,10.1812-11.7564,114.6228-11.7564,114.6228,0,0,32.8201-39.0285,53.3201-86.3115,20.5001-47.2829,35.5025-100.8734,68.1598-91.0067,32.6557,9.8662,30.9806,79.5608,30.9791,79.5637,17.2964-33.2329,17.9119-117.9488,55.1219-138.5419,40.8313-22.5967,87.543,12.1517,85.399,55.7998-2.681,54.5805-56.6463,117.1376-84.96,130.9901,11.2889-5.5231,60.4893-9.1448,67.9043-.0512,18.5339,22.7298-4.1517,48.8917-23.0548,62.5234-36.5954,26.3903-76.5718,39.7551-121.2793,42.041,12.2653,2.1028,35.1591,7.3445,36.8857,22.671,6.5953,58.5421-106.7271,41.1638-137.2303,36.5317,11.9629,8.3027,18.9833,23.2372,17.7436,37.7461-.2565,3.0022-.9282,6.1552-3.0041,8.339-3.9476,4.1528-10.7355,2.9597-16.2409,1.3726-51.6343-14.8854-96.3123-30.1634-143.6936-55.1431Z"/>
      <path d="M929.718,1024.7522c-.9473,0-1.8115-.6372-2.0593-1.5979-.293-1.1377.3931-2.2974,1.5308-2.5903,175.697-45.2148,274.7363-122.9333,326.8823-180.1697,56.4746-61.9873,71.6345-113.9636,71.781-114.4818.3198-1.131,1.4917-1.7877,2.6257-1.4679,1.1304.3192,1.7871,1.4935,1.4685,2.6239-.1477.5255-15.4846,53.2758-72.5305,115.9711-33.4485,36.7627-74.5105,69.7595-122.0422,98.0737-59.364,35.3613-129.0515,63.479-207.1252,83.5718-.177.0452-.3552.0671-.531.0671Z"/>
    </g>
    <g>
      <path d="M1150.9839,1127.7222c-7.2095,0-14.0942-.1843-20.5652-.4907-48.2678-2.2925-84.4482-11.7322-84.8083-11.8274-1.1365-.3003-1.814-1.4648-1.5137-2.6001.3003-1.134,1.4673-1.8079,2.6001-1.5137.3564.094,36.1804,9.4336,84.0198,11.6956,44.0442,2.0813,107.5732-1.5784,160.1538-30.8411,1.0254-.5725,2.3206-.2014,2.8931.8252.5713,1.0266.2014,2.3218-.8252,2.8931-45.7275,25.448-99.4482,31.8591-141.9543,31.8591Z"/>
      <path d="M1141.1768,1127.6111c-.2173,0-.4395-.033-.658-.105-1.1169-.3625-1.7285-1.5637-1.3647-2.6807.7068-2.1741,17.5928-53.5205,41.8896-77.8833.8289-.8301,2.1753-.8325,3.009-.0037.8313.8301.8337,2.1765.0037,3.009-23.5852,23.6475-40.686,75.6714-40.8569,76.1938-.2917.8984-1.1255,1.4697-2.0227,1.4697Z"/>
      <path d="M1156.6235,1090.0098c-1.0144,0-1.9116-.7275-2.0935-1.7603l-5.9338-33.8538c-.2026-1.1572.5713-2.2595,1.7285-2.4634,1.1572-.1929,2.2595.5713,2.4634,1.7285l5.5664,31.759,37.4353-6.5625c1.1572-.1953,2.2595.5713,2.4634,1.7285.2026,1.1572-.5713,2.2595-1.7285,2.4634l-39.5312,6.9287c-.1245.0208-.2478.0317-.3699.0317Z"/>
      <path d="M1268.9148,1137.2021c-.2759,0-.5579-.0537-.8276-.1685l-40.437-17.1155c-1.0449-.4419-1.5588-1.626-1.1682-2.6917l18.1909-49.6411c.4028-1.1023,1.626-1.6724,2.7295-1.2646,1.1023.4041,1.6687,1.626,1.2646,2.7295l-17.4939,47.7393,38.5718,16.3257c1.0828.4578,1.5881,1.7065,1.1304,2.7881-.343.8118-1.1316,1.2988-1.9604,1.2988Z"/>
      <path d="M1247.3303,1200.5688c-.2124,0-.4285-.0317-.6409-.0989-68.7708-21.748-92.8638-73.4863-93.0994-74.0063-.4834-1.0693-.0085-2.3279,1.0608-2.8137,1.0669-.481,2.3291-.0098,2.8149,1.0583.2283.5042,23.6267,50.5554,90.5054,71.7041,1.1206.3552,1.7419,1.5503,1.3879,2.6697-.2869.907-1.1255,1.4868-2.0288,1.4868Z"/>
      <path d="M1203.0884,1198.0908c-.8154,0-1.593-.4712-1.9446-1.2634l-12.0959-27.2058c-.249-.5603-.2454-1.2.0122-1.7566.2563-.5554.741-.9741,1.3281-1.1475l27.8296-8.219c1.1243-.3357,2.3096.3101,2.6428,1.4368s-.3101,2.3108-1.4368,2.6428l-25.5029,7.5317,11.1096,24.989c.4773,1.073-.0061,2.3303-1.0791,2.8076-.2808.1257-.575.1843-.863.1843Z"/>
      <g>
        <circle class="cls-7" cx="1249.2235" cy="1200.218" r="8.0502"/>
        <circle class="cls-7" cx="1223.1426" cy="1159.1648" r="8.0502"/>
        <circle class="cls-7" cx="1270.4507" cy="1134.8055" r="8.0502"/>
        <circle class="cls-7" cx="1293.5562" cy="1093.6484" r="8.0502"/>
        <circle class="cls-7" cx="1248.9724" cy="1067.9138" r="8.0502"/>
        <circle class="cls-7" cx="1198.9703" cy="1080.4608" r="8.0502"/>
        <circle class="cls-7" cx="1186.6766" cy="1044.9147" r="8.0502"/>
        <circle class="cls-7" cx="1150.0359" cy="1050.2818" r="8.0502"/>
        <circle class="cls-7" cx="1204.5285" cy="1202.1203" r="8.0502"/>
      </g>
    </g>
  </g>
  <g>
    <path d="M947.2994,377.7148c4.393,84.6737-31.9498,190.2138-166.0136,259.1735,0,0-127.0065,12.3218-163.1399-23.1567-32.0559-31.4749-38.0161-86.6829-38.2727-128.9977-.702-115.7558,55.6914-238.812,174.6154-270.8589,10.8558-2.9253,21.914-5.0884,33.056-6.5802,147.5175,59.0294,159.7547,170.4199,159.7547,170.4199Z"/>
    <path d="M628.6017,367.5462c-3.3298,64.3996,190.2035-73.0774,190.2035-73.0774,0,0,32.7749,127.4983,89.7904,117.1017,22.1426-14.3094,44.3914-49.2014,6.4584-83.5127-37.9329-34.3113-79.4336-87.6974-101.6705-85.6205s-178.0029-5.9979-184.7818,125.1088Z"/>
    <g>
      <path class="cls-9" d="M743.0687,574.3592s-.4811,92.4531-2.7974,123.6479c-2.3163,31.1949,78.9402,34.0295,103.1211,33.9191,24.1808-.1105,23.4211-26.418,22.5533-51.1584-.8678-24.7404-6.3307-106.9731-6.3307-106.9731l-116.5463.5645Z"/>
      <path d="M842.1655,734.0564c-15.7349,0-79.6729-1.2781-98.5632-21.5302-4.021-4.3103-5.8551-9.248-5.4523-14.6765,2.2845-30.766,2.7869-122.5781,2.7917-123.5016.0061-1.1664.9503-2.1106,2.1167-2.1161l116.5472-.5646h.0098c1.1194,0,2.0483.8679,2.1228,1.9861.0549.8228,5.4749,82.5494,6.3342,107.0398.6116,17.4457,1.3049,37.2192-8.1311,47.0374-4.0015,4.1638-9.5667,6.2909-16.5393,6.3226-.3711.0018-.7837.0031-1.2366.0031ZM745.1831,576.4764c-.0897,13.9728-.6897,93.3984-2.7899,121.6882-.3162,4.256,1.0968,8.0042,4.3201,11.4594,14.1339,15.1526,60.9039,20.3174,96.6693,20.1752,5.8594-.0269,10.2722-1.6681,13.4912-5.0171,8.1885-8.5199,7.5281-27.337,6.9458-43.9398-.7812-22.2778-5.3552-92.1729-6.1951-104.9109l-112.4414.545Z"/>
    </g>
    <path d="M1024.4104,444.4232c-.2771,0-.5457-.1434-.6921-.3998-6.3721-11.0736-5.7983-24.5892-5.2441-37.6605.636-15.0061,1.2366-29.1803-7.8931-39.6698-3.0176-3.4668-6.9275-6.1511-10.7104-8.7476-1.8933-1.3-3.8513-2.6447-5.6946-4.0814-9.0894-7.088-15.9998-17.0477-19.458-28.0438-1.0425-3.3154-1.7896-6.7554-2.511-10.0818-.8118-3.7445-1.6516-7.616-2.9114-11.2738-8.1677-23.7122-32.4438-37.3096-56.6089-49.2041-.3943-.1947-.5579-.6732-.3625-1.0681.1929-.3955.6714-.5579,1.0681-.3638,24.4629,12.0422,49.0466,25.8307,57.4121,50.116,1.2903,3.7476,2.1399,7.666,2.9626,11.4551.7141,3.2922,1.4514,6.6956,2.4719,9.942,3.363,10.6903,10.0818,20.3729,18.9185,27.2638,1.8042,1.4075,3.7427,2.738,5.6165,4.0247,3.8647,2.6526,7.8601,5.3955,11.0107,9.0155,9.5471,10.9692,8.905,26.1267,8.2837,40.7849-.5444,12.8436-1.1084,26.1243,5.0317,36.7969.2197.3821.0891.8698-.293,1.0895-.1257.072-.2625.1062-.3967.1062Z"/>
    <path d="M572.3932,561.955c-.2777,0-.5481-.1453-.6946-.4047-6.3025-11.1261-6.2122-25.4541.2301-36.5009,2.2168-3.8013,5.1154-7.1814,7.9187-10.4504,2.8485-3.3221,5.7941-6.7566,7.9614-10.5817,3.4277-6.051,4.9451-13.1152,6.4124-19.9469.401-1.8671.802-3.7335,1.2396-5.5823.1019-.4285.5316-.694.9601-.5927.4291.1019.694.5316.5927.9601-.4358,1.8384-.8337,3.6938-1.2329,5.5499-1.4923,6.9495-3.0353,14.1351-6.5839,20.3979-2.2437,3.96-5.2399,7.4542-8.1378,10.8337-2.757,3.2153-5.6079,6.5399-7.7521,10.2161-6.1615,10.5658-6.2482,24.2688-.2203,34.9109.2173.3833.0824.8698-.3009,1.087-.1239.0702-.2594.1038-.3925.1038Z"/>
    <path d="M741.7313,619.0022l.75-37.7282,119.2417-7.4896s-46.5614,39.435-119.9916,45.2177Z"/>
    <g>
      <path class="cls-9" d="M937.4271,411.7281c-8.404-4.9881-19.5592-2.1274-28.5565,6.1881-.8541-9.7774-2.0156-19.4817-3.3135-29.0153-3.9769-29.2127-10.2704-62.5905-28.4044-86.2998-26.8454-35.0988-195.7361-62.7059-215.1882,37.7143-7.3214,37.798-20.4196,88.4052-14.5963,126.2877,6.0004,39.0352,21.4386,76.7583,51.3657,102.1058,29.9782,25.3906,70.3406,39.2338,108.8601,31.7138,40.4831-7.9034,72.6325-37.4064,89.1516-76.0771,6.8429-16.0191,10.6343-32.9303,12.3786-50.19,11.0423,2.6061,24.7181-5.2869,32.6606-19.7507,9.1697-16.6986,7.2187-35.8057-4.3576-42.6768Z"/>
      <path d="M786.4075,604.5673c-30.8643.0012-62.9144-12.1002-89.0485-34.2346-27.226-23.0603-45.2393-58.8171-52.0935-103.4058-4.9445-32.1643,3.3856-72.4011,10.7343-107.901,1.3885-6.7084,2.7008-13.0444,3.8763-19.115,8.4308-43.5236,43.4088-60.4633,71.2671-67.0093,26.0101-6.1108,58.3124-5.8923,88.62.5988,28.3142,6.0645,50.4004,16.46,59.0796,27.8088,18.1103,23.678,24.5544,55.9534,28.822,87.3047,1.2439,9.1357,2.2168,17.3822,2.9541,25.0714,9.292-6.9891,19.9109-8.5254,27.8931-3.7866h0c12.5342,7.439,14.8389,27.8638,5.1379,45.5304-7.7893,14.1846-20.8997,22.583-32.6501,21.2128-2.0044,17.9773-6.0339,33.877-12.2974,48.5394-17.3987,40.7306-51.3049,69.6387-90.7007,77.3297-7.0679,1.3794-14.3005,2.0557-21.5942,2.0563ZM772.3633,272.6495c-13.5535,0-27.2314,1.3354-40.2466,4.3939-26.6357,6.2592-60.0653,22.3871-68.0634,63.6768-1.181,6.0974-2.4957,12.4463-3.8873,19.1681-7.276,35.1483-15.5231,74.986-10.6952,106.3916,6.6962,43.5608,24.2065,78.4186,50.6384,100.8057,31.3342,26.5393,71.3617,38.2233,107.077,31.2494,38.0103-7.4207,70.7593-35.3925,87.6025-74.8248,6.355-14.8749,10.3516-31.0889,12.2192-49.5685.0623-.6091.3833-1.1627.8825-1.5179.4993-.3564,1.1292-.4791,1.7224-.3381,10.2771,2.4261,23.0237-5.4413,30.3064-18.7048,8.6096-15.6775,7.0044-33.5425-3.5779-39.8236h-.0012c-7.2571-4.3066-17.4731-1.9843-26.0254,5.9216-.5969.5499-1.4539.7153-2.2107.4218-.7568-.2924-1.2817-.9906-1.3525-1.7993-.7666-8.7659-1.8469-18.2233-3.3032-28.913-4.1882-30.7721-10.4761-62.403-27.9846-85.2948-11.9885-15.6732-56.8152-31.2439-103.1006-31.2439Z"/>
    </g>
    <path d="M907.9553,447.6483c-.249,0-.5029-.0439-.7495-.1367-1.0999-.4138-1.6553-1.6406-1.2415-2.7405,2.3755-6.3104,6.4819-15.1343,14.6814-18.8898,5.5493-2.5421,11.958-2.1948,17.1057-1.9165,1.1731.0635,2.0728,1.0657,2.0093,2.2388-.0635,1.1737-1.0803,2.0844-2.2388,2.0093-4.9292-.2655-10.509-.5688-15.1038,1.5369-5.155,2.3608-9.1174,7.6099-12.4719,16.5204-.321.8527-1.1316,1.3782-1.991,1.3782Z"/>
    <path d="M853.3472,400.4608c-1.3452,0-2.7002-.4236-3.855-1.2994-13.6133-10.3381-27.3303-13.7897-40.7715-10.2667-9.8022,2.5714-15.874,8.0377-15.9326,8.092-2.5793,2.4011-6.6187,2.2571-9.0186-.3247-2.4011-2.5806-2.2559-6.6187.3247-9.0198.321-.2985,32.5232-29.469,73.1177,1.3531,2.8064,2.132,3.3545,6.1353,1.2231,8.9423-1.2561,1.6534-3.1604,2.5232-5.0879,2.5232Z"/>
    <path d="M715.8588,394.5984c-1.3452,0-2.7008-.4236-3.8544-1.2994-31.8695-24.1968-55.7275-3.0646-56.7285-2.1527-2.597,2.3663-6.6272,2.1997-9.0057-.3821-2.3792-2.5836-2.2363-6.5918.3345-8.9844.321-.2985,32.5232-29.469,73.1183,1.3531,2.807,2.1313,3.3551,6.1353,1.2238,8.9423-1.2555,1.6534-3.1604,2.5232-5.0879,2.5232Z"/>
    <path d="M741.109,506.7145c-1.1151,0-2.2363-.072-3.3575-.2393-5.816-.8673-10.5621-4.4641-12.0917-9.1626-2.215-6.8011,2.1478-12.9749,5.9973-18.4216.4224-.5975.8398-1.1884,1.2421-1.7719,7.7118-11.1731,10.8173-25.2557,8.5205-38.6365-.199-1.1578.5786-2.2577,1.7365-2.4567,1.1603-.1984,2.2583.5786,2.4567,1.7365,2.4835,14.4672-.874,29.693-9.2114,41.7737-.412.5963-.8386,1.2-1.2695,1.8103-3.432,4.856-6.9806,9.8773-5.4266,14.649,1.1768,3.6145,5.2045,5.7544,8.6737,6.272,4.1595.6201,8.501-.3564,12.6996-1.3007,1.1432-.2606,2.2845.4614,2.5421,1.6083.2576,1.1462-.4626,2.2845-1.6089,2.5421-3.3759.7599-7.1014,1.5973-10.9027,1.5973Z"/>
    <path d="M767.063,554.6387c-5.2734,0-10.3735-1.7841-14.8438-5.3174-.8313-.6561-.9723-1.861-.3162-2.6917.6567-.8301,1.8616-.9711,2.6917-.3149,6.7737,5.3516,14.9304,5.9674,22.9749,1.7365,12.1021-6.3654,20.1868-21.4984,19.2249-35.9833-.0708-1.0559.7288-1.969,1.7847-2.0392,1.0449-.0653,1.969.7294,2.0386,1.7853,1.0596,15.9253-7.8845,32.5922-21.2646,39.6295-4.0588,2.135-8.2263,3.1952-12.29,3.1952Z"/>
    <path d="M685.0629,449.5703c-.9082,0-1.8042-.0507-2.6843-.1508-11.0016-1.2537-22.1155-10.127-22.1436-27.1246-.0024-1.1749.9485-2.1289,2.1234-2.1307h.0037c1.1731,0,2.1252.9497,2.1271,2.1234.0238,14.3793,9.2444,21.8646,18.371,22.9047,9.3958,1.0706,20.3766-4.2938,23.725-18.692.2655-1.1444,1.405-1.8597,2.5543-1.59,1.1438.2661,1.8561,1.4099,1.59,2.5543-3.6041,15.4962-15.3253,22.1057-25.6665,22.1057Z"/>
    <path d="M815.2454,448.9398c-.9082,0-1.803-.0507-2.6831-.1508-11.0022-1.2531-22.1167-10.1263-22.146-27.1252-.0012-1.1749.9497-2.1289,2.124-2.1307h.0037c1.1731,0,2.1252.9497,2.1277,2.1234.0232,14.3799,9.2444,21.8658,18.3716,22.9053,9.3982,1.0693,20.376-4.2944,23.7244-18.6914.2661-1.1456,1.4111-1.8561,2.5537-1.5906,1.1438.2661,1.8555,1.4093,1.5894,2.5537-3.6023,15.4968-15.3235,22.1063-25.6653,22.1063Z"/>
    <path d="M629.7202,387.2905s123.9719-36.9192,162.764-91.0244c0,0,67.2346,102.4256,111.8186,104.6712,28.0375-62.8082-46.9832-182.4147-164.7189-167.2986-117.7357,15.116-117.4826,133.8676-109.8636,153.6519Z"/>
    <circle class="cls-7" cx="853.7696" cy="482.6351" r="18.9118"/>
    <path d="M908.0115,457.0587c-9.9483,121.0581-105.0897,173.6434-105.0897,173.6434,150.6505-2.3202,267.7398-23.5637,183.711-279.2573s-303.8882-100.991-303.8882-100.991c0,0,248.1717,105.1562,225.2669,206.6048Z"/>
    <ellipse class="cls-9" cx="913.9072" cy="433.7087" rx="30.4848" ry="25.203" transform="translate(84.1439 1012.3471) rotate(-60.2775)"/>
    <path d="M898.7927,440.5597c-.448,0-.896-.1593-1.2537-.4816-.769-.6927-.8301-1.8768-.1379-2.6453,3.0396-3.3728,6.8213-7.5708,11.8616-9.4324,7.4512-2.7515,15.4932.2039,20.896,2.6636.9412.4291,1.3574,1.5399.9277,2.4811-.4285.9424-1.5393,1.3586-2.4805.9283-7.627-3.4741-13.3618-4.2871-18.0444-2.5586-4.1748,1.5411-7.4695,5.1984-10.3772,8.4253-.3699.4108-.8801.6195-1.3916.6195Z"/>
    <g>
      <path class="cls-3" d="M848.7775,172.934c37.7444,8.0337,67.246,34.0094,92.3913,64.0084,13.2052,15.7542,26.182,32.0851,37.9046,49.0859,8.6167,12.4965,22.8991,31.5349,20.1381,47.9922-3.844,22.9123-25.7832,11.8801-52.518-8.0604-17.0193-12.6941-37.2293-21.2026-55.8767-30.7095-21.984-11.208-44.2648-21.8146-67.2001-30.4861-34.7285-13.1304-71.2273-21.8154-107.6577-20.9713-9.6877.2245-33.1257,7.4699-34.9968-8.3438-4.1295-34.8257,45.4803-50.1074,69.2352-57.0284,31.3351-9.1295,66.1905-12.3808,98.58-5.487Z"/>
      <path class="cls-3" d="M874.5981,182.0184s23.3544-12.3651,20.8974-17.7376c-2.457-5.3725-9.6952-7.8477-20.4858-.9218-10.7906,6.9258-16.7331,13.5349-16.7331,13.5349l16.3215,5.1245Z"/>
    </g>
    <g>
      <path d="M846.0291,236.5076c-.4321,0-.8618-.1318-1.2256-.3882-.5896-.4156-.9277-1.1011-.8997-1.8213l.3333-8.6157c.0452-1.1737,1.0449-2.0868,2.207-2.0435,1.1743.0458,2.0898,1.0339,2.0435,2.2083l-.2063,5.3387,6.1072-2.4481c1.0974-.4401,2.3303.094,2.7673,1.1829.437,1.0907-.0928,2.3291-1.1829,2.7661l-9.1528,3.6682c-.2551.1025-.5237.1526-.791.1526Z"/>
      <path d="M888.1226,213.1116c-.0745,0-.1501-.0037-.2258-.0116-.78-.0836-1.4514-.5896-1.7456-1.3165-1.7126-4.2273-2.7563-8.6774-3.103-13.2269-.0891-1.1713.7886-2.193,1.9604-2.2821,1.1853-.0903,2.1936.7886,2.2827,1.9598.2075,2.735.6946,5.4309,1.4539,8.0536l3.4302-5.0421c.6604-.9711,1.9824-1.2238,2.9553-.5627.9717.661,1.2231,1.9843.5627,2.9553l-5.8118,8.5431c-.3992.5859-1.0596.9302-1.759.9302Z"/>
      <path d="M936.3843,291.3452c-.9619,0-1.8091-.6482-2.0557-1.5845l-3.4009-12.8986c-.2991-1.1359.3784-2.2998,1.5149-2.5989,1.1377-.3015,2.2998.3784,2.5989,1.5149l1.709,6.4789c.9119-1.6119,2.0227-3.1097,3.2983-4.4324.8179-.8453,2.1643-.8679,3.0078-.0543.8459.816.8691,2.1625.0537,3.0084-2.3328,2.4182-3.9795,5.564-4.6387,8.8568-.1941.9705-1.0327,1.6791-2.0215,1.709-.022.0006-.0439.0006-.0659.0006Z"/>
      <path d="M973.7158,322.1716c-.7141,0-1.3892-.3595-1.7847-.9698-2.334-3.598-4.3713-7.4225-6.0535-11.366-.4614-1.0809.0415-2.3309,1.1218-2.7917,1.0815-.4602,2.3303.0415,2.7917,1.1218,1.0559,2.4756,2.2595,4.9011,3.5962,7.2473,2.0178-3.4509,5.2124-6.2201,8.96-7.6282,1.0986-.4089,2.3267.1428,2.7393,1.2433.4138,1.0999-.1428,2.3267-1.2427,2.7399-3.8806,1.4575-6.9751,4.845-8.0774,8.8416-.2222.8069-.8984,1.4087-1.7261,1.5369-.1086.0165-.2173.025-.3247.025Z"/>
      <path d="M865.647,280.3754c-1.333,0-2.7698-.9772-3.0859-3.2147-.4187-2.9877-.5945-6.0254-.5237-9.0289.0281-1.1743,1.0388-2.0959,2.1765-2.0764,1.1743.0275,2.1045,1.0022,2.0764,2.1765-.0513,2.1735.0378,4.3665.2649,6.5411,2.2681-1.9037,4.928-3.3032,7.7966-4.0924,1.1365-.3119,2.3047.3546,2.6147,1.4874.3125,1.1328-.354,2.3035-1.4868,2.6154-2.8308.7782-5.4053,2.3065-7.4438,4.4183-.3442.3589-1.0669,1.1096-2.2498,1.17-.0464.0024-.0928.0037-.1392.0037ZM866.8176,276.7511h.0122-.0122Z"/>
      <path d="M776.6455,246.1487h-.0159c-.7654-.0055-1.4685-.4218-1.842-1.0907-2.1594-3.8696-3.6755-8.0377-4.5081-12.3865-.2197-1.1542.5359-2.2687,1.6907-2.489,1.1462-.2209,2.2681.5359,2.489,1.6895.5029,2.6312,1.2854,5.188,2.3352,7.6392l3.7512-6.4923c.5884-1.015,1.886-1.3647,2.9065-.7776,1.0168.5878,1.3647,1.889.7776,2.9065l-5.7422,9.9384c-.3809.658-1.0828,1.0626-1.842,1.0626Z"/>
      <path d="M795.3113,196.5491c-.7166,0-1.3928-.3625-1.7883-.9753-2.0837-3.233-5.1636-5.8801-8.6743-7.453-1.0718-.481-1.5515-1.7395-1.0706-2.8119.481-1.0712,1.7371-1.5509,2.8113-1.0712,2.8357,1.2714,5.4395,3.1201,7.6086,5.3729.2454-1.8036.3052-3.6298.1758-5.462-.083-1.1725.7996-2.1893,1.9714-2.2723,1.1853-.0879,2.1899.8008,2.2717,1.972.2686,3.7915-.1599,7.558-1.2708,11.1951-.2429.7916-.9216,1.3715-1.7419,1.485-.0989.014-.1965.0208-.293.0208Z"/>
      <path d="M707.6935,207.0551c-.4028,0-.8044-.1141-1.1554-.3406-3.3014-2.135-6.7688-4.0985-10.3058-5.8356-1.0541-.5176-1.4893-1.7926-.9711-2.8473.517-1.0535,1.792-1.4893,2.8473-.9711,2.533,1.2439,5.033,2.6001,7.4652,4.0485l.0183-8.9874,2.1277-.0214,2.1271.0043-.0262,12.8278c-.0012.7788-.4279,1.4941-1.1121,1.8652-.3174.1721-.6665.2576-1.015.2576Z"/>
      <path d="M734.9506,225.2991c-.4102,0-.8179-.1184-1.1707-.351-.5908-.3888-.9491-1.0468-.9564-1.7542l-.1123-10.7812c-.0122-1.1749.9302-2.1368,2.1051-2.149h.0226c1.1646,0,2.1142.9375,2.1265,2.1051l.0757,7.2406c1.1261-.7855,2.1497-1.7188,3.0322-2.7716.755-.9003,2.0978-1.0168,2.9968-.2637.9003.7544,1.0187,2.0966.2637,2.9968-2.0306,2.4231-4.6466,4.3469-7.5641,5.5646-.2631.1099-.5414.1636-.8191.1636Z"/>
      <path d="M940.3125,246.2201c-.4053,0-.8081-.1154-1.1572-.3424-.5981-.3876-.9631-1.0498-.9705-1.7627l-.1562-15.3381c-.011-1.1749.9314-2.1368,2.1069-2.1484h.0208c1.1658,0,2.1155.9381,2.1277,2.1057l.1245,12.3132c2.4109-.7495,4.9048-1.1774,7.4487-1.2762,1.1304-.0311,2.1631.8691,2.207,2.0435.0464,1.1743-.8691,2.1625-2.0435,2.2083-3.0225.1172-6.0864.816-8.8611,2.0215-.271.1178-.5591.1758-.8472.1758Z"/>
    </g>
    <path class="cls-6" d="M933.2108,1337.1025c44.2609,13.1646,95.1309-8.3263,154.1416-60.8995,85.553-76.2199,54.4428-377.9886,20.2216-460.4306-65.3314-144.6623-222.4377-118.2187-222.4377-118.2187h-169.5504s-188.2166,3.111-237.9928,90.2195c-49.7763,87.1085-63.7759,153.9954-90.2195,211.5492-26.4436,57.5538-40.4432,111.9966-20.2216,153.9954,18.2698,37.945,34.0002,64.7917,67.8402,78.0758,0,0,20.084,8.8123,38.6069,6.3877.5373,4.5858,2.694,7.0382,2.694,7.0382,31.2835,24.6904,158.0474,106.294,451.3998,90.4489l5.5179,1.8341Z"/>
    <path d="M961.9104,1342.533c-77.5793.0012-123.5986-93.5168-140.968-137.6099-19.1577-48.6304-29.7083-99.5496-29.7083-143.3801,0-1.1743.9534-2.1277,2.1277-2.1277s2.1277.9534,2.1277,2.1277c0,43.3093,10.4443,93.6755,29.4104,141.8201,17.0105,43.1824,62.0251,134.8694,137.1802,134.8767,9.3689.0012,19.1956-1.4221,29.5056-4.5422,1.1243-.343,2.312.2954,2.6526,1.4197s-.2954,2.312-1.4197,2.6526c-10.8093,3.2703-21.1121,4.762-30.9082,4.7632Z"/>
    <path d="M475.1904,1241.3013c-9.5697,0-19.3323-1.3538-29.2676-4.0662-4.129-1.1255-8.1256-2.4475-11.8787-3.9282-1.0925-.4309-1.6296-1.6663-1.1981-2.7588.4303-1.0938,1.6656-1.6296,2.7594-1.1987,3.609,1.4233,7.4573,2.6953,11.4374,3.7817,28.5632,7.7954,55.6763,3.9026,80.5804-11.5771,50.4517-31.3586,85.213-108.0225,97.2827-170.0891,1.9629-10.0952,3.1671-19.1333,3.681-27.6294.0708-1.1731,1.0968-2.0532,2.2516-1.9958,1.1731.072,2.066,1.0791,1.9952,2.2522-.5255,8.6853-1.7523,17.9041-3.7518,28.186-11.3489,58.3618-44.1425,138.6609-99.2126,172.8906-17.2845,10.7434-35.5908,16.1328-54.679,16.1328Z"/>
    <path d="M390.4852,1037.2266c-.5798,0-1.1578-.2356-1.5778-.6995-.7886-.8716-.7214-2.2168.1495-3.0054.9497-.8594,95.307-86.2207,124.6124-107.6428.6305-.4602,1.4612-.5371,2.1655-.2051l113.5522,53.7512c1.062.5029,1.5155,1.7712,1.0126,2.8333-.5023,1.062-1.7737,1.5137-2.8326,1.012l-112.4036-53.2068c-30.2368,22.4658-122.3138,105.7642-123.2513,106.6125-.4071.3687-.918.5505-1.427.5505Z"/>
    <path d="M1046.9092,1157.5195c-.9009,0-1.7371-.5762-2.0264-1.4795-11.4172-35.6799-25.321-49.9609-41.4209-66.4954-7.1802-7.3755-14.6057-15.0012-22.5232-25.1367-23.3032-29.8279-45.1575-77.6331-49.3372-86.9946l-131.0303,29.6875c-1.1487.2527-2.2852-.459-2.5452-1.6052-.2588-1.1462.459-2.2852,1.6052-2.5452l132.7368-30.0732c.9973-.2209,2.0154.2905,2.4219,1.228.2368.5469,24.0442,55.0989,49.5007,87.6831,7.7759,9.9524,15.1184,17.4939,22.2192,24.7876,16.4746,16.9202,30.7031,31.5332,42.4255,68.1677.3577,1.1194-.2588,2.3157-1.3782,2.6746-.2148.0684-.4333.1013-.6482.1013Z"/>
    <g>
      <path class="cls-1" d="M725.2426,823.3859c-2.8015-.2049-5.5316,2.4105-7.6629,6.7627-3.2117-2.5419-6.2701-3.5546-8.5265-2.4381-4.9208,2.4348-4.1728,13.9825,1.6703,25.7926,1.0948,2.2125,2.2908,4.277,3.5438,6.1557,3.4025,5.101,7.2237,8.8191,10.5895,10.4103,3.2252-2.1137,6.0591-7.7266,7.5662-14.9895.4675-2.2522.8093-4.6598.9931-7.1732.9617-13.1416-2.6977-24.1196-8.1733-24.5204Z"/>
      <path class="cls-1" d="M577.8374,1234.3326c-2.8015-.2049-5.5316,2.4105-7.6629,6.7627-3.2117-2.5419-6.2701-3.5546-8.5265-2.4381-4.9208,2.4348-4.1728,13.9825,1.6703,25.7926,1.0948,2.2125,2.2908,4.277,3.5438,6.1557,3.4025,5.101,7.2237,8.8191,10.5895,10.4103,3.2252-2.1137,6.0591-7.7266,7.5662-14.9895.4675-2.2522.8093-4.6598.9931-7.1732.9617-13.1416-2.6977-24.1196-8.1733-24.5204Z"/>
      <path class="cls-1" d="M774.9528,1143.584c-2.8015-.2049-5.5316,2.4105-7.6629,6.7627-3.2117-2.5419-6.2701-3.5546-8.5265-2.4381-4.9208,2.4348-4.1728,13.9825,1.6703,25.7926,1.0948,2.2125,2.2908,4.277,3.5438,6.1557,3.4025,5.101,7.2237,8.8191,10.5895,10.4103,3.2252-2.1137,6.0591-7.7266,7.5662-14.9895.4675-2.2522.8093-4.6598.9931-7.1732.9617-13.1416-2.6977-24.1196-8.1733-24.5204Z"/>
      <path class="cls-1" d="M704.3403,949.0056c-2.8015-.2049-5.5316,2.4105-7.6629,6.7627-3.2117-2.5419-6.2701-3.5546-8.5265-2.4381-4.9208,2.4348-4.1728,13.9825,1.6703,25.7926,1.0948,2.2125,2.2908,4.277,3.5438,6.1557,3.4025,5.101,7.2237,8.8191,10.5895,10.4103,3.2252-2.1137,6.0591-7.7266,7.5662-14.9895.4675-2.2522.8093-4.6598.9931-7.1732.9617-13.1416-2.6977-24.1196-8.1733-24.5204Z"/>
      <path class="cls-1" d="M432.3167,1174.145c-.0897,2.8076,2.6357,5.4278,7.0718,7.3786-2.4078,3.3135-3.2939,6.4109-2.0858,8.6195,2.6349,4.8166,14.1421,3.5948,25.7022-2.7286,2.1656-1.1848,4.1793-2.4646,6.0049-3.7937,4.9569-3.6092,8.5149-7.58,9.9665-11.0083-2.2444-3.1357-7.969-5.7365-15.2878-6.9439-2.2695-.3746-4.6891-.6172-7.208-.6975-13.17-.421-23.9884,3.6864-24.1638,9.1738Z"/>
      <path class="cls-1" d="M655.399,1233.0498c-.0897,2.8076,2.6357,5.4278,7.0718,7.3786-2.4078,3.3135-3.2939,6.4109-2.0858,8.6195,2.6349,4.8166,14.1421,3.5948,25.7022-2.7286,2.1656-1.1848,4.1793-2.4646,6.0049-3.7937,4.9569-3.6092,8.5149-7.58,9.9665-11.0083-2.2444-3.1357-7.969-5.7365-15.2878-6.9439-2.2695-.3746-4.6891-.6172-7.208-.6975-13.17-.421-23.9884,3.6864-24.1638,9.1738Z"/>
      <path class="cls-1" d="M432.3167,909.9252c-.0897,2.8076,2.6357,5.4278,7.0718,7.3786-2.4078,3.3135-3.2939,6.4109-2.0858,8.6195,2.6349,4.8166,14.1421,3.5948,25.7022-2.7286,2.1656-1.1848,4.1793-2.4646,6.0049-3.7937,4.9569-3.6092,8.5149-7.58,9.9665-11.0083-2.2444-3.1357-7.969-5.7365-15.2878-6.9439-2.2695-.3746-4.6891-.6172-7.208-.6975-13.17-.421-23.9884,3.6864-24.1638,9.1738Z"/>
      <path class="cls-1" d="M959.2861,1196.3411c-.0897,2.8076,2.6357,5.4278,7.0718,7.3786-2.4078,3.3135-3.2939,6.4109-2.0858,8.6195,2.6349,4.8166,14.1421,3.5948,25.7022-2.7286,2.1656-1.1848,4.1793-2.4646,6.0049-3.7937,4.9569-3.6092,8.5149-7.58,9.9665-11.0083-2.2444-3.1357-7.969-5.7365-15.2878-6.9439-2.2695-.3746-4.6891-.6172-7.208-.6975-13.17-.421-23.9884,3.6864-24.1638,9.1738Z"/>
      <path class="cls-1" d="M1073.6211,1094.4546c-.0897,2.8076,2.6357,5.4278,7.0718,7.3786-2.4078,3.3135-3.2939,6.4109-2.0858,8.6195,2.6349,4.8166,14.1421,3.5948,25.7022-2.7286,2.1656-1.1848,4.1793-2.4646,6.0049-3.7937,4.9569-3.6092,8.5149-7.58,9.9665-11.0083-2.2444-3.1357-7.969-5.7365-15.2878-6.9439-2.2695-.3746-4.6891-.6172-7.208-.6975-13.17-.421-23.9884,3.6864-24.1638,9.1738Z"/>
      <path class="cls-1" d="M959.2861,748.1643c-.0897,2.8076,2.6357,5.4278,7.0718,7.3786-2.4078,3.3135-3.2939,6.4109-2.0858,8.6195,2.6349,4.8166,14.1421,3.5948,25.7022-2.7286,2.1656-1.1848,4.1793-2.4646,6.0049-3.7937,4.9569-3.6092,8.5149-7.58,9.9665-11.0083-2.2444-3.1357-7.969-5.7365-15.2878-6.9439-2.2695-.3746-4.6891-.6172-7.208-.6975-13.17-.421-23.9884,3.6864-24.1638,9.1738Z"/>
      <path class="cls-1" d="M912.2232,768.0667c-2.8015-.2049-5.5316,2.4105-7.6629,6.7627-3.2117-2.5419-6.2701-3.5546-8.5265-2.4381-4.9208,2.4348-4.1728,13.9825,1.6703,25.7926,1.0948,2.2125,2.2908,4.277,3.5438,6.1557,3.4025,5.101,7.2237,8.8191,10.5895,10.4103,3.2252-2.1137,6.0591-7.7266,7.5662-14.9895.4675-2.2522.8093-4.6598.9931-7.1732.9617-13.1416-2.6977-24.1196-8.1733-24.5204Z"/>
      <path class="cls-1" d="M1079.1764,951.6168c-2.8015-.2049-5.5316,2.4105-7.6629,6.7627-3.2117-2.5419-6.2701-3.5546-8.5265-2.4381-4.9208,2.4348-4.1728,13.9825,1.6703,25.7926,1.0948,2.2125,2.2908,4.277,3.5438,6.1557,3.4025,5.101,7.2237,8.8191,10.5895,10.4103,3.2252-2.1137,6.0591-7.7266,7.5662-14.9895.4675-2.2522.8093-4.6598.9931-7.1732.9617-13.1416-2.6977-24.1196-8.1733-24.5204Z"/>
      <path class="cls-1" d="M884.919,1169.3766c-2.8015-.2049-5.5316,2.4105-7.6629,6.7627-3.2117-2.5419-6.2701-3.5546-8.5265-2.4381-4.9208,2.4348-4.1728,13.9825,1.6703,25.7926,1.0948,2.2125,2.2908,4.277,3.5438,6.1557,3.4025,5.101,7.2237,8.8191,10.5895,10.4103,3.2252-2.1137,6.0591-7.7266,7.5662-14.9895.4675-2.2522.8093-4.6598.9931-7.1732.9617-13.1416-2.6977-24.1196-8.1733-24.5204Z"/>
      <path class="cls-1" d="M1079.1764,1201.2216c-2.8015-.2049-5.5316,2.4105-7.6629,6.7627-3.2117-2.5419-6.2701-3.5546-8.5265-2.4381-4.9208,2.4348-4.1728,13.9825,1.6703,25.7926,1.0948,2.2125,2.2908,4.277,3.5438,6.1557,3.4025,5.101,7.2237,8.8191,10.5895,10.4103,3.2252-2.1137,6.0591-7.7266,7.5662-14.9895.4675-2.2522.8093-4.6598.9931-7.1732.9617-13.1416-2.6977-24.1196-8.1733-24.5204Z"/>
      <path class="cls-1" d="M402.1734,1075.9878c-2.8015-.2049-5.5316,2.4105-7.6629,6.7627-3.2117-2.5419-6.2701-3.5546-8.5265-2.4381-4.9208,2.4348-4.1728,13.9825,1.6703,25.7926,1.0948,2.2125,2.2908,4.277,3.5438,6.1557,3.4025,5.101,7.2237,8.8191,10.5895,10.4103,3.2252-2.1137,6.0591-7.7266,7.5662-14.9895.4675-2.2522.8093-4.6598.9931-7.1732.9617-13.1416-2.6977-24.1196-8.1733-24.5204Z"/>
      <path class="cls-1" d="M549.9115,1132.0558c-2.8015-.2049-5.5316,2.4105-7.6629,6.7627-3.2117-2.5419-6.2701-3.5546-8.5265-2.4381-4.9208,2.4348-4.1728,13.9825,1.6703,25.7926,1.0948,2.2125,2.2908,4.277,3.5438,6.1557,3.4025,5.101,7.2237,8.8191,10.5895,10.4103,3.2252-2.1137,6.0591-7.7266,7.5662-14.9895.4675-2.2522.8093-4.6598.9931-7.1732.9617-13.1416-2.6977-24.1196-8.1733-24.5204Z"/>
      <path class="cls-1" d="M533.9723,1043.8763c-1.8143-2.1444-5.5931-2.2639-10.1934-.7403-.4323-4.073-1.8495-6.9662-4.2261-7.7966-5.183-1.8107-12.9076,6.8057-17.2536,19.2447-.814,2.3305-1.4516,4.6296-1.9165,6.8394-1.2621,6.0004-1.2434,11.332-.0243,14.8497,3.767.8243,9.7594-1.0799,16.0019-5.0867,1.9359-1.2424,3.8947-2.6832,5.8186-4.3111,10.0596-8.5106,15.3396-18.8077,11.7936-22.9992Z"/>
      <path class="cls-1" d="M680.933,1080.8679c-1.8143-2.1444-5.5931-2.2639-10.1934-.7403-.4323-4.073-1.8495-6.9662-4.2261-7.7966-5.183-1.8107-12.9076,6.8057-17.2536,19.2447-.814,2.3305-1.4516,4.6296-1.9165,6.8394-1.2621,6.0004-1.2434,11.332-.0243,14.8497,3.767.8243,9.7594-1.0799,16.0019-5.0867,1.9359-1.2424,3.8947-2.6832,5.8186-4.3111,10.0596-8.5106,15.3396-18.8077,11.7936-22.9992Z"/>
      <path class="cls-1" d="M830.6607,1282.3149c-1.8143-2.1444-5.5931-2.2639-10.1934-.7403-.4323-4.073-1.8495-6.9662-4.2261-7.7966-5.183-1.8107-12.9076,6.8057-17.2536,19.2447-.814,2.3305-1.4516,4.6296-1.9165,6.8394-1.2621,6.0004-1.2434,11.332-.0243,14.8497,3.767.8243,9.7594-1.0799,16.0019-5.0867,1.9359-1.2424,3.8947-2.6832,5.8186-4.3111,10.0596-8.5106,15.3396-18.8077,11.7936-22.9992Z"/>
      <path class="cls-1" d="M1038.7491,834.8175c-1.8143-2.1444-5.5931-2.2639-10.1934-.7403-.4323-4.073-1.8495-6.9662-4.2261-7.7966-5.183-1.8107-12.9076,6.8057-17.2536,19.2447-.814,2.3305-1.4516,4.6296-1.9165,6.8394-1.2621,6.0004-1.2434,11.332-.0243,14.8497,3.767.8243,9.7594-1.0799,16.0019-5.0867,1.9359-1.2424,3.8947-2.6832,5.8186-4.3111,10.0596-8.5106,15.3396-18.8077,11.7936-22.9992Z"/>
      <path class="cls-1" d="M950.1594,1071.8755c-1.8143-2.1444-5.5931-2.2639-10.1934-.7403-.4323-4.073-1.8495-6.9662-4.2261-7.7966-5.183-1.8107-12.9076,6.8057-17.2536,19.2447-.814,2.3305-1.4516,4.6296-1.9165,6.8394-1.2621,6.0004-1.2434,11.332-.0243,14.8497,3.767.8243,9.7594-1.0799,16.0019-5.0867,1.9359-1.2424,3.8947-2.6832,5.8186-4.3111,10.0596-8.5106,15.3396-18.8077,11.7936-22.9992Z"/>
      <path class="cls-1" d="M1020.931,1293.3906c-1.8143-2.1444-5.5931-2.2639-10.1934-.7403-.4323-4.073-1.8495-6.9662-4.2261-7.7966-5.183-1.8107-12.9076,6.8057-17.2536,19.2447-.814,2.3305-1.4516,4.6296-1.9165,6.8394-1.2621,6.0004-1.2434,11.332-.0243,14.8497,3.767.8243,9.7594-1.0799,16.0019-5.0867,1.9359-1.2424,3.8947-2.6832,5.8186-4.3111,10.0596-8.5106,15.3396-18.8077,11.7936-22.9992Z"/>
      <path class="cls-1" d="M527.8576,779.8195c-2.8015-.2049-5.5316,2.4105-7.6629,6.7627-3.2117-2.5419-6.2701-3.5546-8.5265-2.4381-4.9208,2.4348-4.1728,13.9825,1.6703,25.7926,1.0948,2.2125,2.2908,4.277,3.5438,6.1557,3.4025,5.101,7.2237,8.8191,10.5895,10.4103,3.2252-2.1137,6.0591-7.7266,7.5662-14.9895.4675-2.2522.8093-4.6598.9931-7.1732.9617-13.1416-2.6977-24.1196-8.1733-24.5204Z"/>
    </g>
    <path d="M793.4766,1070.1562c-1.1414,0-2.085-.9045-2.1252-2.0532-.0769-2.2314-.1172-4.4385-.1172-6.5601,0-1.1743.9534-2.1277,2.1277-2.1277s2.1277.9534,2.1277,2.1277c0,2.0728.0378,4.2297.1147,6.4111.0403,1.1743-.8777,2.1594-2.052,2.2009-.0256,0-.0513.0012-.0757.0012Z"/>
    <path class="cls-6" d="M736.5095,651.8184s-33.1949-18.1214-38.7256,0c-5.5307,18.1214,11.0614,22.5477,0,43.8401-11.0614,21.2923-26.2708,36.5017-15.2094,52.4025,11.0614,15.9008,104.1897,59.6634,195.8099,43.3418,91.6202-16.3216,54.4542-23.9844,47.5408-53.7119-2.8251-12.1479-5.4007-26.3446-8.6466-39.0377-2.5278-9.8848-4.7067-21.0167-12.3773-28.3567-8.3205-7.9619-20.8054-10.625-31.9751-10.08-10.204.4979-19.5568,3.7117-29.2888,6.4374-8.5777,2.4024-17.663,2.5084-26.5784,2.8421-12.2542.4587-24.5828-.3466-36.6132-2.7722-6.4981-1.3102-12.9039-3.0876-19.1276-5.3729-5.5489-2.0375-13.3399-8.2355-18.9066-8.865l-5.9021-.6675Z"/>
    <path d="M850.9692,718.9984c-17.76,0-39.9353-1.9269-67.5488-7.002-1.156-.2124-1.9202-1.3214-1.7078-2.4768.2124-1.156,1.3208-1.9159,2.4768-1.7078,109.6082,20.1447,131.1145-10.0293,131.3184-10.3369.6506-.9772,1.9714-1.2445,2.9492-.5927.979.6512,1.2439,1.9714.5933,2.9498-.6775,1.0175-13.5815,19.1663-68.0811,19.1663Z"/>
    <g>
      <path class="cls-8" d="M631.2392,658.3728c-3.7886-.4381-10.7692,48.9784-11.2842,52.9671-5.6641,43.8664-1.0619,104.0831,68.3917,114.7004,51.1412,7.8179,80.9429-28.1067,92.2351-65.2732,1.7199-5.6609,16.1877-86.2871,12.9257-88.0958-2.4126-1.3377-162.2662-14.2983-162.2683-14.2986Z"/>
      <ellipse cx="712.0848" cy="666.3763" rx="27.3755" ry="82.6131" transform="translate(-7.0269 1325.1634) rotate(-85.594)"/>
      <ellipse class="cls-3" cx="712.0848" cy="668.2966" rx="23.9601" ry="72.3062" transform="translate(-8.9416 1326.9362) rotate(-85.594)"/>
      <path class="cls-8" d="M770.4479,770.8749c-3.2907,0-6.0828-2.5262-6.355-5.8647-.2867-3.513,2.3309-6.5918,5.8439-6.8785,20.2014-1.6454,58.0364-10.6699,56.6424-33.0506-.2057-3.3032-1.4709-5.7359-3.9825-7.6534-10.1298-7.7428-35.2215-4.7159-44.0362-2.896-3.4777.7063-6.8287-1.5082-7.5412-4.9548-.7147-3.4507,1.4999-6.8266,4.9485-7.5433,3.8226-.7936,37.8163-7.3875,54.3675,5.2415,5.443,4.155,8.5488,10.0363,8.983,17.0124,2.0068,32.2009-42.0169,44.4227-68.3469,46.5666-.1745.0145-.3511.0208-.5235.0208Z"/>
    </g>
    <path class="cls-2" d="M709.8897,683.4006c-12.6652-2.2823-23.9966-11.1004-29.5658-22.8806-.3806-.7211-.6651-1.4851-.9722-2.2396-.3196-.7503-.606-1.5128-.835-2.2965-.5264-1.5356-.9651-3.1395-1.1592-4.7922-.197-1.6469-.2145-3.3512.1809-5.033.3719-1.6735,1.2651-3.3292,2.6601-4.4741,1.4023-1.1583,3.0939-1.6695,4.6192-2.1338,1.5551-.4506,2.9801-.9164,4.1672-1.7578,2.4047-1.6695,3.9891-4.4842,4.376-7.4168.1943-1.4657.1006-2.9716-.3469-4.3563-.4351-1.3828-1.2321-2.6297-2.2578-3.7342-2.0464-2.224-4.8203-3.8108-7.4602-5.752-1.3325-.9914-2.6044-2.0975-3.7006-3.4097-1.1005-1.2967-2.0218-2.8379-2.482-4.5877-.4443-1.7478-.3215-3.6885.3966-5.3524.6996-1.6702,1.8477-3.0745,3.1904-4.1814,2.7448-2.2587,6.171-3.1255,9.3757-3.6264,3.2265-.4336,6.3825-.9189,9.7409-.9115,1.6661.0179,3.3656.1966,5.0214.6606,1.6446.4419,3.2909,1.2712,4.6114,2.4105,1.3205,1.1483,2.4163,2.5747,3.0773,4.2476.3156.8401.5296,1.7314.5772,2.6521.0296.922-.1067,1.8517-.3993,2.7327l-1.8698-.4721c.6814-4.1658,3.3747-7.633,6.571-10.0137,3.2278-2.4132,7.1034-3.8707,11.071-4.3287,3.9667-.4347,8.0903.1431,11.6974,1.9399,1.7947.8949,3.4586,2.0878,4.8319,3.5705,1.3721,1.4761,2.4567,3.1973,3.2281,5.0408,1.5362,3.6736,1.8604,7.9264.4774,11.7168-.3417.9424-.7961,1.8452-1.3457,2.685-.2393.4457-.6061.7923-.9045,1.1906-.3127.3878-.6193.7804-.9933,1.1065-1.3692,1.4441-3.0247,2.5243-4.6643,3.5609-3.3363,2.0034-6.8884,3.5101-10.1856,5.4571-1.6241,1.0012-3.2169,2.0813-4.5448,3.4595-1.3125,1.3873-2.3116,3.058-2.8853,4.9037.4948-1.8651,1.4309-3.6004,2.7081-5.0671,1.2864-1.4643,2.8756-2.6095,4.4884-3.6737,3.2729-2.0708,6.7881-3.6951,9.9928-5.7603,3.1705-2.0432,6.0962-4.7151,7.2755-8.2398,1.2043-3.4961.8342-7.4395-.6534-10.8093-1.4757-3.4063-4.1569-6.1926-7.5099-7.7358-3.3281-1.581-7.1439-2.0473-10.8027-1.5749-3.6622.4612-7.233,1.8237-10.1602,4.0472-2.9141,2.196-5.2356,5.3094-5.7798,8.8301l-1.8698-.4721c.9304-2.6016-.507-5.6309-2.7221-7.4731-2.2085-1.9154-5.2998-2.519-8.3547-2.5342-3.0636.0045-6.2744.504-9.3941.9462-3.0735.4897-6.1239,1.2757-8.3887,3.1401-1.134.9201-2.0724,2.0769-2.6207,3.3683-.5609,1.2884-.6542,2.7052-.3273,4.0706.7088,2.7551,2.9557,5.081,5.3941,6.9171,2.4936,1.8744,5.3756,3.5139,7.6929,6.0432,1.1474,1.245,2.1208,2.767,2.6385,4.4555.5276,1.6764.6221,3.4528.3855,5.1598-.4805,3.3995-2.2925,6.6685-5.223,8.611-2.9899,2.0241-6.5541,1.8326-8.7798,3.6608-1.1107.882-1.8632,2.1706-2.2163,3.6134-.3702,1.4399-.3942,2.9954-.2386,4.5277.1513,1.5417.5319,3.0533,1.017,4.5602.2061.7619.4694,1.5047.7656,2.2366.2837.736.5442,1.4825.901,2.1881,2.5668,5.7796,6.5949,10.8871,11.4635,14.9696,4.9006,4.0622,10.7661,6.9725,17.0196,8.4109Z"/>
    <path d="M982.6123,1065.2258c-.9949,0-1.8835-.7007-2.0837-1.7139-.2319-1.1646-23.1274-117.0471-24.563-162.7234-.0366-1.1743.885-2.157,2.0593-2.1936.0232,0,.0464-.0012.0684-.0012,1.1438,0,2.0886.9094,2.1252,2.0605,1.4246,45.3284,24.2529,160.8679,24.4824,162.03.2295,1.1523-.52,2.2717-1.6724,2.5-.1392.0281-.2783.0415-.4163.0415Z"/>
    <path class="cls-1" d="M893.95,934.1283c-.0897,2.8076,2.6357,5.4278,7.0718,7.3786-2.4078,3.3135-3.2939,6.4109-2.0858,8.6195,2.6349,4.8166,14.1421,3.5948,25.7022-2.7286,2.1656-1.1848,4.1793-2.4646,6.0049-3.7937,4.9569-3.6092,8.5149-7.58,9.9665-11.0083-2.2444-3.1357-7.969-5.7365-15.2878-6.9439-2.2695-.3746-4.6891-.6172-7.208-.6975-13.17-.421-23.9884,3.6864-24.1638,9.1738Z"/>
    <g>
      <path class="cls-1" d="M574.7259,853.6231s-40.7889-22.8141-58.0723,14.5181-22.8141,43.5542-34.5669,53.9243c-11.7527,10.3701-22.8141,35.9495,5.5307,63.603,28.3448,27.6535,76.7384,49.7763,114.0706,44.9369,37.3322-4.8394,42.8629-13.1354,42.8629-27.6535s.6913-43.5542,7.6047-57.381c6.9134-13.8267-2.074-51.8503-20.0488-61.529-17.9748-9.6787-57.381-30.4188-57.381-30.4188Z"/>
      <path d="M590.658,1033.4241c-37.5665.0037-79.8199-22.1301-104.5264-46.2329-12.431-12.1277-18.8287-25.4456-18.5016-38.5132.2679-10.6897,5.1459-21.2341,13.0493-28.208,11.3086-9.978,16.593-15.5298,34.0436-53.2227,4.9811-10.7581,12.3395-17.7808,21.8713-20.8728,18.3282-5.9412,38.0072,4.7461,39.1455,5.3784,1.1493.6042,39.7748,20.9375,57.3755,30.4163,8.67,4.668,16.1023,15.78,20.3912,30.4858,3.9136,13.418,4.1302,26.7114.5518,33.8672-4.8279,9.657-7.3804,29.1699-7.3804,56.4294,0,15.896-6.9153,24.8645-44.7162,29.7632-3.7012.4797-7.4817.7092-11.3037.7092ZM548.3606,848.8586c-3.4631,0-7.0166.4456-10.4749,1.5698-8.349,2.7148-14.8425,8.9746-19.3018,18.606-17.0044,36.731-22.8162,43.7976-35.0897,54.6265-2.6343,2.3242-11.2573,11.0046-11.6107,25.1233-.3015,12.0227,5.4919,23.9209,17.2192,35.3625,23.5315,22.9565,65.567,45.0024,101.8365,45.0049,3.5559,0,7.0526-.2124,10.4755-.6555,38.1543-4.9463,41.0089-13.3252,41.0089-25.5444,0-19.4666,1.358-45.3894,7.8296-58.3313,6.3-12.6013-1.9568-49.4446-19.1547-58.7061-17.7606-9.563-56.9696-30.2014-57.3633-30.4089l-.0464-.0244c-.1501-.0842-12.074-6.6223-25.3284-6.6223Z"/>
    </g>
    <g>
      <path class="cls-1" d="M779.765,1052.7282s26.5589,22.8141,66.6564,18.6661c40.0976-4.148,109.9226-44.9369,107.8486-70.5164s-23.5055-29.0362-30.7645-49.0849c-7.259-20.0488-18.3204-82.9605-52.8873-78.8124-34.5669,4.148-119.6013,26.2708-112.688,69.8251,6.9134,43.5542,18.6661,50.4676,18.6661,68.4424s-10.4277,32.6657,3.1686,41.4802Z"/>
      <path d="M836.5625,1074.032c-33.9832.0024-56.0767-17.915-58.0725-19.5959-10.2344-6.7188-8.2349-16.6321-6.1182-27.1252,1.0315-5.1135,2.0972-10.4004,2.0972-16.0632,0-7.6904-2.3035-13.3337-5.4932-21.1462-3.9307-9.6265-9.3127-22.8113-13.147-46.9629-1.4917-9.3945.9619-18.4058,7.29-26.7834,22.229-29.425,84.9524-42.8113,107.2449-45.4858,30.5774-3.6597,43.4436,40.6836,51.1304,67.1838,1.5137,5.2197,2.821,9.7266,4.0125,13.0164,2.9248,8.0811,8.2471,13.2776,13.8818,18.7793,7.7417,7.561,15.7471,15.3784,17.002,30.8569,2.2742,28.0432-70.8667,68.7817-109.751,72.804-3.4619.3589-6.8262.5225-10.0769.5225ZM873.7732,874.917c-.9485,0-1.9141.0574-2.9016.1758-30.293,3.6353-85.4126,18.7488-104.3579,43.8269-5.6042,7.4194-7.7856,15.343-6.4832,23.5522,3.7573,23.6658,9.032,36.5869,12.8845,46.0217,3.2458,7.9492,5.8093,14.2285,5.8093,22.7539,0,6.0876-1.1597,11.8335-2.1814,16.9043-2.2729,11.2695-3.1909,17.8845,4.3787,22.7917l.2271.1697c.26.2222,26.3867,22.1533,65.0537,18.1653,18.8269-1.9482,45.8447-12.5098,68.8281-26.908,23.7561-14.8828,37.9785-30.7153,37.1191-41.3208-1.1267-13.8916-8.2227-20.8203-15.7349-28.1567-5.7288-5.5945-11.6528-11.3794-14.9097-20.376-1.2378-3.4192-2.5635-7.9883-4.0979-13.2788-7.0422-24.2798-18.6597-64.3213-43.634-64.3213Z"/>
    </g>
    <g>
      <path class="cls-2" d="M722.8467,740.6256c-17.7289,0-33.9771-2.7893-47.251-6.2164-31.6364-8.1671-53.6554-21.6309-53.8745-21.7657-.4993-.3088-.6543-.9637-.3461-1.4636.3082-.5005.9625-.6561,1.4636-.3467.2167.1337,22.0105,13.4515,53.3514,21.5326,28.8605,7.4414,71.9672,11.8378,113.4326-9.4781.52-.2686,1.1621-.0629,1.4319.4596.2686.5225.0623,1.1639-.4602,1.4325-22.9749,11.8109-46.4307,15.8459-67.7478,15.8459Z"/>
      <path class="cls-2" d="M731.2335,774.9133c-66.7706,0-112.24-25.21-112.7856-25.52-.5115-.2893-.6915-.9375-.4022-1.449.2905-.5115.9381-.6909,1.4496-.4016.6543.3699,66.5271,36.8555,156.1542,21.4551.5835-.094,1.1304.2893,1.2292.8679.0989.5798-.2893,1.1292-.8679,1.2292-15.7227,2.7014-30.7227,3.8184-44.7772,3.8184Z"/>
      <circle class="cls-4" cx="630.1803" cy="735.3345" r="4.1622"/>
      <circle class="cls-4" cx="657.4027" cy="744.9948" r="4.1622"/>
      <circle class="cls-4" cx="696.376" cy="752.6284" r="4.1622"/>
      <circle class="cls-4" cx="730.7105" cy="756.7905" r="4.1622"/>
      <circle class="cls-4" cx="759.9093" cy="755.4551" r="4.1622"/>
    </g>
    <g>
      <g>
        <path class="cls-9" d="M605.1447,937.4502s2.7653-13.3107,23.3326-44.4208c20.5673-31.1102,4.3209-73.2817,0-92.6392-4.3209-19.3574,2.9382-34.5669,9.8516-50.4676,6.9134-15.9008-9.8516-16.5921-9.8516-16.5921,10.1972-21.4315,4.3209-33.1842,0-35.7767-4.3209-2.5925-9.5059,5.3579-9.5059,5.3579,0,0,5.5307-6.9134-4.148-11.7527-9.6787-4.8394-38.0235,38.7149-44.2456,54.6156-6.222,15.9008,3.4567,43.5542,3.4567,89.1825s-23.9661,65.7647-23.9661,65.7647c0,0,20.8396,33.4573,55.0762,36.7285Z"/>
        <path d="M605.1447,939.5776c-.0671,0-.1343-.0037-.2026-.0098-34.8822-3.3337-55.8057-36.3196-56.6791-37.7222-.5603-.8984-.3735-2.0715.437-2.7527.2289-.1941,23.2074-20.1501,23.2074-64.1357,0-20.26-1.9409-37.1362-3.4998-50.697-2.0007-17.3987-3.446-29.9707.1892-39.2609,5.3101-13.5706,28.3545-50.658,41.5161-55.7184,2.1411-.8252,4.046-.8325,5.6622-.0244,3.678,1.839,5.9113,4.2212,6.6418,7.0844,2.2137-1.4362,4.7406-2.0599,7.1545-.6116,3.9929,2.3962,11.7767,13.4064,2.0111,35.9119,2.7698.6171,6.7596,2.0959,8.9697,5.6226,2.1936,3.501,2.1021,8.0457-.2728,13.5071l-.9576,2.1967c-6.5509,15.0024-12.7386,29.1724-8.7683,46.9592.6244,2.7979,1.4929,6.0449,2.4982,9.8047,5.7135,21.3672,15.2765,57.1289-2.7997,84.4714-19.9786,30.2197-22.998,43.5559-23.0261,43.6865-.2124.9888-1.0876,1.6882-2.0813,1.6882ZM552.8485,901.0425c4.3481,6.2219,22.9645,30.5103,50.73,34.0918,1.4587-4.7009,6.6296-18.3276,23.1244-43.2776,17.0209-25.7458,8.125-59.0125,2.2388-81.0254-1.0181-3.8062-1.897-7.0923-2.5409-9.9768-4.2725-19.1443,2.486-34.6216,9.0216-49.5886l.9558-2.1918c1.781-4.0973,1.9727-7.3108.5688-9.5514-2.3242-3.7085-8.4955-4.0637-8.5577-4.0668-.7135-.0293-1.3647-.415-1.734-1.0266-.3687-.6116-.4059-1.3678-.0989-2.0123,9.3781-19.7113,4.6063-30.7709.8264-33.0389-1.7725-1.0645-4.8694,2.2198-6.3269,4.2548-.2289.3607-.3967.5743-.423.6073-.7104.8856-1.9904,1.059-2.9083.3949-.9192-.6653-1.1548-1.9354-.5347-2.8857.1184-.1819.2441-.368.3772-.5573.4041-.6757,1.1072-2.1405.7526-3.6951-.3778-1.6565-1.8744-3.1482-4.4476-4.4354-.6232-.3094-1.5576-.0684-2.2321.1904-11.0815,4.2609-33.5742,39.2255-39.0808,53.2977-3.2501,8.3051-1.8555,20.4352.0751,37.2247,1.5717,13.6682,3.5272,30.6799,3.5272,51.1829,0,40.1758-18.0206,60.874-23.313,66.0852Z"/>
      </g>
      <path d="M586.4136,805.2832c-1.073,0-1.9952-.8093-2.1124-1.8994-.0201-.188-2.0282-18.9978-2.7142-40.7385-.7111-22.5421,34.3512-59.6332,35.8441-61.2006.8105-.8533,2.1576-.8844,3.0072-.0739.8508.8099.8838,2.1564.0739,3.0072-.3534.3711-35.3278,37.3621-34.6722,58.1329.6812,21.5808,2.6715,40.2307,2.691,40.4163.1263,1.1682-.719,2.218-1.8872,2.3438-.0769.0085-.1544.0122-.2301.0122Z"/>
      <path d="M598.9252,816.2451c-.0848,0-.1709-.0049-.257-.0159-1.1664-.1404-1.9983-1.2-1.8573-2.3669.0201-.1709,2.0642-17.3914,2.3993-43.2275.3552-27.359,27.3083-38.797,28.4552-39.2706,1.0846-.448,2.3267.0677,2.7765,1.153.4486,1.0852-.0665,2.3291-1.1511,2.7789-.2551.1062-25.5078,10.8752-25.8264,35.3949-.3381,26.0828-2.4084,43.5083-2.4298,43.6816-.13,1.0791-1.048,1.8726-2.1094,1.8726Z"/>
      <g>
        <path class="cls-9" d="M878.3828,938.9976c5.2304-7.7383-11.9126-57.721-18.1347-75.0044-6.222-17.2834-7.6047-49.0849-10.3701-72.5904-2.7653-23.5055-7.6047-40.0976-26.2708-64.2944-18.6661-24.1968-26.2708-6.222-26.2708-6.222l-3.9752-4.7267c-12.2712-14.4055-22.2956.5787-22.2956.5787-8.9475-2.7232-13.9733,6.2444-15.7187,13.6467-2.4447,10.3682,1.0386,21.2041,4.9319,30.4169,4.3639,10.3263,9.117,20.4831,13.941,30.6007,0,0-8.6849-12.444-22.5116-20.74-13.8267-8.296-20.0488,10.3701-15.2094,18.6661,4.8394,8.296,23.5055,37.3322,31.1102,57.3931,7.6047,20.0609,17.9748,66.3563,32.4928,80.8744,14.5181,14.5181,19.2445,32.1426,19.2445,32.1426,0,0,35.3547,14.2953,59.0365-20.7412Z"/>
        <path d="M836.4246,964.6643c-10.3125,0-17.7112-2.887-17.876-2.9529-.6177-.2502-1.084-.7764-1.2573-1.4197-.0464-.1721-4.7778-17.2766-18.6938-31.1914-10.8948-10.8936-19.3152-38.3569-26.0815-60.4236-2.4817-8.0945-4.8267-15.7397-6.897-21.2-6.1926-16.3367-19.8706-38.8037-27.2186-50.8728-1.5881-2.6086-2.8796-4.7314-3.739-6.2036-3.4589-5.9302-2.0605-15.8228,2.934-20.7568,3.9734-3.9258,9.516-4.2188,15.2075-.8044,5.1807,3.1079,9.6387,6.7542,13.2227,10.1453-2.6196-5.6726-5.2283-11.4905-7.7063-17.3547-3.7439-8.8574-7.699-20.47-5.0427-31.7328.7471-3.1677,3.1165-10.8997,8.9771-14.27,2.4475-1.4075,5.1196-1.8408,7.9712-1.2878,1.7493-2.1057,5.8533-6.2164,11.4587-6.5417,4.6277-.2716,9.1199,2.0789,13.2983,6.983l2.0789,2.4725c1.4941-1.9727,4.0271-4.342,7.7905-4.8279,6.1072-.7825,12.981,3.7146,20.4407,13.3838,18.9636,24.5831,23.8696,41.2933,26.6992,65.3448.7178,6.1023,1.3306,12.6355,1.98,19.552,1.8469,19.668,3.7561,40.0061,8.2788,52.5671,9.0698,25.1953,23.4558,68.6914,17.8955,76.9165h0c-13.5144,19.9939-30.8765,24.4751-43.7207,24.4751ZM821.084,958.1116c5.7043,1.9641,34.9622,10.1355,55.5359-20.3052h0c3.0981-4.5837-4.2859-33.9575-18.374-73.0933-4.7046-13.0676-6.6394-33.678-8.5107-53.6096-.647-6.8909-1.2573-13.3997-1.9702-19.4519-2.738-23.2764-7.4866-39.4495-25.8423-63.244-8.0591-10.4468-13.4448-12.168-16.5259-11.7627-4.071.5255-6.0815,5.025-6.1011,5.0702-.2881.6818-.9106,1.1646-1.6418,1.275-.7397.108-1.4697-.1691-1.9458-.7349l-3.9746-4.7266c-3.2581-3.8245-6.5698-5.6775-9.8035-5.484-5.2271.3033-9.0588,5.8209-9.0967,5.8765-.52.7794-1.4929,1.1261-2.3865.8521-2.2607-.6873-4.2432-.5103-6.0718.542-3.0664,1.7627-5.6665,6.084-6.958,11.5582-2.373,10.0641,1.3293,20.838,4.8206,29.101,4.436,10.4944,9.303,20.8667,13.9026,30.5127.4761.9985.1074,2.196-.8496,2.7527-.9558.5591-2.1802.2881-2.8137-.6189-.0854-.1208-8.6145-12.1838-21.8634-20.1343-4.0637-2.4365-7.4384-2.3755-10.0281.1843-3.631,3.5864-4.7449,11.3062-2.2485,15.5859.849,1.4563,2.1271,3.5547,3.6975,6.134,7.42,12.1875,21.2311,34.873,27.5641,51.5771,2.1179,5.5896,4.4824,13.2996,6.9849,21.4624,6.6284,21.615,14.8767,48.5168,25.022,58.6621,12.8601,12.8577,18.1909,27.8833,19.4788,32.019Z"/>
      </g>
      <path d="M813.2361,830.1709c-1.1304,0-2.0703-.8887-2.124-2.0288-2.6465-56.7676-41.3647-109.61-41.7554-110.1367-.6995-.9442-.5017-2.2766.4419-2.9761.9436-.7001,2.2754-.5029,2.9761.4419.3979.5377,39.8816,54.4263,42.5879,112.4731.0549,1.1731-.8521,2.1692-2.0264,2.2241-.033.0012-.0671.0024-.1001.0024Z"/>
      <path d="M830.5469,816.2451c-.0146,0-.0281,0-.0427-.0012-1.1743-.022-2.1082-.9937-2.085-2.168.6946-35.6995-32.5708-91.535-32.9065-92.0947-.6042-1.0071-.2783-2.3138.7288-2.9187,1.0071-.6049,2.3132-.2789,2.9187.7288,1.3977,2.3279,34.231,57.4402,33.512,94.3677-.022,1.1609-.9705,2.0862-2.1253,2.0862Z"/>
      <path d="M609.0118,939.5898c-3.4479,0-7.1112-.4358-10.9619-1.3135-21.8951-4.9915-45.3442-23.7061-52.2717-41.7175-4.2084-10.9412-4.6893-19.8267-1.4294-26.4075,3.1848-6.4294,8.8037-8.1311,9.0411-8.2007,1.1261-.3308,2.309.3186,2.6379,1.4465.3278,1.123-.3137,2.2998-1.4331,2.6343-.1941.0598-4.1687,1.3464-6.4801,6.1035-2.6184,5.3906-2.0532,13.3081,1.6345,22.8955,6.4789,16.8457,28.5706,34.3835,49.2468,39.0979,8.2178,1.8726,19.751,2.4744,28.0231-5.3162.8563-.8057,2.2021-.7642,3.0072.0903.8051.8557.7648,2.2021-.0909,3.0078-5.4071,5.0916-12.5238,7.6794-20.9235,7.6794Z"/>
      <path d="M836.4502,964.7046c-29.8083,0-51.5039-24.7351-52.478-25.8655-.7666-.8887-.6677-2.2314.2209-2.9993.8911-.7666,2.2327-.6677,3.0005.2197.2429.2795,24.5691,27.9468,55.5017,23.9929,12.8442-1.6394,23.468-7.6355,30.7227-17.3401,7.4353-9.9463,10.8557-23.5559,8.927-35.5164-.188-1.1609.6006-2.2522,1.7603-2.439,1.1646-.1965,2.2522.6006,2.439,1.7603,2.1387,13.2581-1.4941,27.7417-9.718,38.7427-7.9614,10.6494-19.5776,17.2241-33.5913,19.0137-2.301.293-4.5691.4309-6.7847.4309Z"/>
      <path d="M788.9734,830.1709c-.9961,0-1.886-.7031-2.085-1.7175-3.9563-20.1221-14.3298-35.708-14.4336-35.863-.6555-.9753-.3967-2.2974.5774-2.9529.979-.6567,2.2986-.3955,2.9529.5774.4456.6628,10.9583,16.4612,15.0781,37.4182.2271,1.1523-.5237,2.2705-1.6772,2.4976-.1379.0269-.2759.0403-.4126.0403Z"/>
    </g>
  </g>
</svg>