<svg width="5636" height="5535" viewBox="0 0 5636 5535" fill="none" xmlns="http://www.w3.org/2000/svg">
<path fill-rule="evenodd" clip-rule="evenodd" d="M2678.76 376.635C3303.99 261.092 3967.34 427.517 4455.46 834.968C4910.88 1215.12 4977.08 1837.18 5118.64 2413.28C5276.63 3056.24 5660.74 3752.51 5310.4 4314.31C4954.5 4885.02 4170.32 4973.7 3498.77 5010.9C2915.12 5043.22 2396.7 4795.06 1889.92 4503.74C1309.39 4170.03 572.442 3896.97 424.737 3243.84C274.576 2579.85 775.707 1972.4 1196.42 1437.24C1586.77 940.694 2057.68 491.41 2678.76 376.635Z" fill="white" fill-opacity="0.15"/>
<path d="M3884 3983.16L3940 3969.16L4105 3983.16L4281 4008.16L4308 4025.16L4326 4069.16L4313 4181.16L4296 4277.16L4281 4310.16L4244 4343.16L4185 4348.16H4105L4023 4338.16L3923 4326.16L3871 4310.16L3841 4289.16L3818 4252.16L3851 4017.16L3884 3983.16Z" fill="#85C4F9" fill-opacity="0.5"/>
<path d="M2984.5 3850.66L3753 3819.16L3772 3850.66L3423 4389.16L3397.5 4412.16L3354 4427.16L3024 4447.16L2686.5 4459.16H2596L2495 4447.16L2170.5 4388.16L2150 4364.66L2209 4335.16L2327.5 4355.16L2428.5 4378.16L2469.5 4371.16L2480 4344.66L2535 4335.16V4297.66L2585 4309.66H2616.5L2628.5 4282.16L2542.5 4210.16L2568 4187.66L2579.5 4197.16L2622 4202.66L2668.5 4197.16H2725.5L2767.5 4178.16L2984.5 3850.66Z" fill="#D9D9D9"/>
<path d="M3805.5 2465.66L4202 2353.66L4269.5 2616.16L4245.5 2629.16L4122.5 2647.16L4015 2680.16L4004.5 2703.66L4015 2747.16L4004.5 2780.66L4047.5 2821.66L4035.5 2847.16L4082 2883.16L4074 2916.66L4122.5 2940.66L4213 2965.16L4139.5 2997.16L3951 3030.66L3805.5 2465.66Z" fill="#F9E728" fill-opacity="0.45"/>
<path d="M935.5 1967.66L950.5 1953.66L987 1947.66L1241.5 1945.16L1400.5 1941.16L1514 1945.16L1544.5 1960.66L1562.5 1981.16L1574.5 2004.16L1591.5 2064.66L1602.5 2166.66V2287.16L1591.5 2326.16L1568 2347.66L1538 2362.66L1480 2377.66L1482.5 2520.16L1478 2535.16L1460.5 2527.16L1325 2379.66H1308.5H1223.5L1091.5 2390.16L1020 2386.16L982 2374.16L956 2347.16L935.5 2273.16L925 2160.16L916 2036.16V1994.16L935.5 1967.66Z" fill="#87FF95" fill-opacity="0.5"/>
<path d="M2927 727.656L3055 719.156L3284.5 714.156L3440 719.156L3592.5 740.156L3667 775.156L3701 842.156L3718.5 903.156V1056.16L3711 1218.16L3690 1268.16L3660 1308.16L3603 1328.16H3564V1530.16L3476 1470.66L3394.5 1356.16L3251.5 1369.16L2963 1356.16L2882 1332.16L2840 1288.16L2823 1228.16L2811.5 1167.16L2791.5 1021.66L2783 903.156L2787 824.656L2800.5 791.156L2826 764.656L2858 746.656L2927 727.656Z" fill="#85C4F9" fill-opacity="0.5"/>
<path d="M3680 3220.16L3825.5 3301.16L4120.5 3378.66H4409L4627 3340.16L4724.5 3290.66L4747 3508.16V3715.16L4710 3746.16L4644 3771.16L4574 3786.16H4389L4205 3764.16L4024 3731.16L3825.5 3688.16L3722 3657.16L3660 3631.16L3620 3604.16L3595 3581.16L3680 3220.16Z" fill="#D2B48C" fill-opacity="0.71"/>
<path d="M2754.51 1017.58C2681.13 1054.22 2615.07 1100.14 2561.47 1163.39C2500.02 1235.88 2459.25 1317.32 2442.78 1411.41C2434.93 1456.25 2429.9 1501.08 2425.33 1546.32C2420.67 1592.5 2420 1638.46 2422.14 1684.15C2424.47 1733.82 2426.41 1783.9 2437.19 1833.06C2440.65 1848.83 2437.73 1865.99 2437.73 1885.43C2395.64 1863.81 2355.33 1841.34 2311.1 1827.17C2218.07 1797.35 2125.12 1785.51 2027.06 1804.12C1940.2 1820.59 1861.33 1855.03 1782.1 1890.69C1760.34 1900.48 1738.08 1909.19 1716.02 1918.31C1706.41 1922.28 1696.42 1925.07 1688.61 1915.47C1681.6 1906.86 1676.56 1898.98 1679.45 1885.11C1686.42 1851.63 1689.6 1817.35 1693.94 1783.35C1699.78 1737.62 1704.73 1691.92 1705.69 1645.64C1706.28 1616.89 1719.64 1611.23 1749.03 1623.73C1809.28 1649.34 1867.07 1679.88 1922.55 1714.61C1959.67 1737.85 1996.08 1762.24 2032.81 1786.11" stroke="black" stroke-width="12" stroke-linecap="round" stroke-linejoin="round"/>
<path d="M3726.83 890.784C3725.3 891.462 3723.2 890.869 3721.37 890.867C3706.71 880.449 3712.08 863.307 3707.87 849.464C3685.39 775.377 3629.64 743.39 3558.82 731.246C3400.78 704.147 3241.21 714.977 3082.31 715.942C3018.14 716.331 2952.92 719.915 2889.37 736.2C2804.11 758.05 2783.82 796.216 2782.28 868.837C2780.78 939.842 2785.71 1010.44 2795.15 1081.03C2803.46 1143.18 2811.6 1204.88 2828.08 1265.71C2839.69 1308.52 2867.02 1329.67 2905.94 1342.83C2948.97 1357.38 2993.4 1361.86 3038.23 1364.64C3093.27 1368.05 3148.27 1372.29 3203.5 1370.2C3256.75 1368.19 3310.01 1365.72 3363.27 1365.31C3373.91 1365.23 3378.59 1355.53 3388.06 1356.39" stroke="black" stroke-width="12" stroke-linecap="round" stroke-linejoin="round"/>
<path d="M4270.9 2617.99C4242.66 2547.9 4235.31 2472.37 4214.2 2400.45C4203.15 2362.78 4191.53 2357.87 4153.83 2370.07C4057.05 2401.38 3957.3 2421.33 3859.07 2447.11C3815.72 2458.49 3802.7 2476.68 3818.31 2518.63C3856.35 2620.86 3876.78 2727.63 3902.89 2832.92C3914.63 2880.26 3922.58 2928.52 3933.69 2976.04C3944.59 3022.71 3960.08 3034.46 4004.98 3025.17C4065.13 3012.71 4128.18 3007.7 4183.49 2980.29C4220.09 2962.16 4256.05 2961.31 4294.26 2958.72C4337.78 2955.78 4378.05 2936.37 4417.9 2920.08C4455.44 2904.73 4485.51 2903.07 4520.98 2928.14C4559.82 2955.59 4606.95 2968.56 4655.18 2970.2C4705.62 2971.91 4756.56 2974.6 4806.58 2969.67C4888.38 2961.59 4969.28 2945.95 5046.26 2915.34C5093.06 2896.73 5138 2873.31 5178.04 2843.21C5223.34 2809.17 5238.89 2757.97 5241.64 2703.37C5245.72 2622.5 5224.15 2546.82 5195.59 2471.8C5146.4 2342.66 5078.84 2223.16 5007.17 2105.99C4955.01 2020.72 4883.9 1953.19 4795.7 1904.47C4723.05 1864.34 4650.63 1823.84 4575.31 1788.81C4557.88 1780.71 4550.31 1762.42 4536.72 1750.3" stroke="black" stroke-width="12" stroke-linecap="round" stroke-linejoin="round"/>
<path d="M2492.82 2113.9C2540.5 2241.5 2607.73 2357.31 2696.37 2461.22C2811.46 2596.14 2952.29 2696.59 3106.81 2781.02C3245.23 2856.66 3390.36 2915.44 3539.63 2964.87C3585.11 2979.93 3631.29 2992.92 3677.38 3006.08C3685.02 3008.26 3693.82 3006.39 3702.08 3006.39" stroke="black" stroke-width="12" stroke-linecap="round" stroke-linejoin="round"/>
<path d="M3459.68 4347.87C3436.27 4378.47 3415.47 4411.19 3374.46 4422.84C3357.02 4427.8 3340.2 4432.18 3321.97 4433.58C3215.58 4441.72 3108.76 4438.96 3002.3 4448.47C2957.78 4452.45 2912.52 4456.12 2867.45 4455.19C2804.9 4453.88 2742.76 4461.9 2680.13 4461.54C2591 4461.04 2503.16 4454.33 2415.55 4436.75C2339.47 4421.48 2262.79 4409.06 2187.14 4391.63C2171.11 4387.93 2152.47 4384.41 2151.25 4361.64" stroke="black" stroke-width="9" stroke-linecap="round" stroke-linejoin="round"/>
<path d="M1793.16 786.195C1755.14 804.001 1738.58 842.166 1713.76 871.992C1616.68 988.692 1522.65 1107.95 1418.51 1218.64C1392.64 1246.12 1394.91 1252.87 1432.27 1265.61C1555.33 1307.59 1676.41 1354.66 1796.04 1405.68C1911.15 1454.78 2027.34 1501.36 2142.89 1549.45C2150.98 1552.81 2157.68 1553.24 2165.73 1549.16C2152.92 1497.71 2128.04 1450.95 2106.28 1403.64C2039.67 1258.88 1977.2 1112.11 1903.27 970.792C1875.27 917.289 1846.51 864.188 1817.86 811.035C1812.55 801.183 1805.97 792.05 1795.91 786.195" stroke="black" stroke-width="12" stroke-linecap="round" stroke-linejoin="round"/>
<path d="M3236.55 3039.44C3277.03 3041.83 3295.86 3075.14 3286.92 3116.74C3276.48 3165.31 3257.98 3211.45 3247.95 3259.88C3243.86 3279.62 3241.42 3300.35 3242.55 3320.38C3245.38 3370.12 3221.67 3408.15 3192.45 3444.34C3169.57 3472.67 3160.33 3500.72 3182.03 3535.77C3194.44 3555.81 3179.63 3579.07 3172.3 3598.28C3151.94 3651.61 3127.19 3703.25 3104.41 3755.66C3099.31 3767.38 3094.1 3779.22 3090.77 3791.5C3082.23 3822.94 2962.72 3849.16 2995.5 3849.25C3044.16 3849.39 3220.97 3834.34 3269.6 3832.58C3324.72 3830.59 3379.77 3826.61 3434.89 3824.64C3526.69 3821.36 3618.52 3818.84 3710.35 3816.41C3723.17 3816.07 3736.07 3817.88 3748.9 3819.03C3768.23 3820.76 3773.13 3832.48 3768.07 3849.25C3757.34 3884.85 3731.81 3911.95 3712.89 3942.82C3691.74 3977.33 3456.93 4340.18 3434.89 4374.16" stroke="black" stroke-width="12" stroke-linecap="round" stroke-linejoin="round"/>
<path d="M2209.1 3177.17C2198.21 3198.29 2204.99 3219.14 2208.71 3240.59C2213.44 3267.86 2222.5 3296.49 2208.68 3322.94C2191.23 3356.35 2157.78 3369.3 2123.65 3372C2022.56 3379.99 1935.34 3348.58 1867.69 3270.69C1848.07 3248.09 1836.32 3221.48 1834.39 3190.95C1832.55 3161.69 1804.04 3145.35 1782.56 3163.89C1696.69 3238.02 1588.07 3263.69 1487.63 3307.17C1408.4 3341.47 1342.31 3392.49 1296.93 3468.92C1227.54 3585.78 1172.58 3708.71 1132.08 3838.28C1111.89 3902.88 1098.94 3969.64 1097.44 4036.63C1095.08 4142.28 1127.84 4229.92 1253.35 4281.54C1301.84 4301.48 1353.05 4311.82 1404.71 4320.64C1464.17 4330.8 1523.68 4339.93 1583.8 4345.23C1628.85 4349.21 1673.7 4356.03 1718.81 4358.47C1782.99 4361.94 1847.33 4362.76 1911.61 4364.24C1925.7 4364.56 1938.43 4370.62 1952.93 4370.43C1985.02 4370.01 2011.06 4360.69 2027.3 4331.34C1992.24 4255.87 2021.4 4132.85 2090.65 4086.18" stroke="black" stroke-width="12" stroke-linecap="round" stroke-linejoin="round"/>
<path d="M4729.54 2978.84C4733.15 3007.92 4723.27 3035.71 4720.42 3064.15C4717.22 3096.1 4718.24 3125.82 4732.08 3155.23C4747.02 3186.98 4732.12 3218.63 4699.32 3232.45C4634.03 3259.95 4567.59 3283.73 4498.13 3298.24C4480.86 3301.85 4463.33 3304.41 4445.8 3306.54C4387.23 3313.67 4328.64 3316.51 4269.5 3312.51C4175.55 3306.15 4083.12 3291.05 3991.28 3270.97C3914.18 3254.12 3839.13 3231.98 3767.94 3196.97C3743.47 3184.94 3721.4 3169.15 3697.22 3156.64C3672.39 3143.79 3665.81 3081.56 3683.4 3056.39C3689.74 3047.33 3694.99 3035.11 3707.59 3031.18" stroke="black" stroke-width="12" stroke-linecap="round" stroke-linejoin="round"/>
<path d="M2966.61 2152.47C2928.7 2194.12 2932.47 2259.61 2975.09 2295.89C2967.15 2342.21 2986.71 2383.02 3005.83 2422.1C3055.83 2524.27 3117.13 2619.31 3200.97 2697.64C3235.14 2729.56 3271.36 2756.99 3321.86 2762.09C3379.47 2767.9 3431 2752.41 3478.61 2724.81C3555.42 2680.28 3615.46 2616.62 3669.51 2546.75C3680.95 2531.96 3692.87 2513.88 3715.86 2513.32" stroke="black" stroke-width="12" stroke-linecap="round" stroke-linejoin="round"/>
<path d="M1099.01 3072.5C1072.34 3136.3 1055.9 3202.65 1043.16 3270.68C1023.83 3373.87 1018.08 3477.69 1019.4 3582.09C1020.72 3686.98 1034.12 3789.61 1081.75 3885.46C1088.31 3898.66 1094.21 3909.22 1107.27 3915.4" stroke="black" stroke-width="12" stroke-linecap="round" stroke-linejoin="round"/>
<path d="M2828.88 2584.94C2827.26 2421.16 2754.3 2293.46 2630.62 2190.94C2538.96 2114.97 2432.6 2073.91 2316.6 2052.88C2239.67 2038.94 2162.63 2032.74 2085.19 2042.61C1943.13 2060.73 1810.65 2105.36 1694 2191.03C1676.53 2203.86 1659.1 2216.74 1641.66 2229.6" stroke="black" stroke-width="12" stroke-linecap="round" stroke-linejoin="round"/>
<path d="M4567.02 1788.86C4528.89 1910.88 4453.91 2004.5 4346.5 2072.35C4304.83 2098.68 4258.42 2111.19 4208.97 2105.28C4173.06 2100.98 4145.86 2082.25 4125.97 2050.74C4075.95 1971.5 4068.51 1890.26 4109.76 1805.39" stroke="black" stroke-width="12" stroke-linecap="round" stroke-linejoin="round"/>
<path d="M1815.19 3171.66C1812.44 3174.42 1809.71 3177.2 1806.93 3179.92C1765.21 3220.74 1763.32 3226.4 1799.3 3281.43C1854.05 3365.16 1935.03 3417.42 2030.38 3440.24C2123.44 3462.51 2213.38 3439.12 2264.09 3339.64C2285.67 3297.33 2276.4 3229.91 2244.85 3193.75C2238.18 3186.11 2231.08 3178.85 2220.13 3177.09C2208.95 3175.29 2208.32 3166.86 2209.1 3157.89" stroke="black" stroke-width="12" stroke-linecap="round" stroke-linejoin="round"/>
<path d="M3685.55 3218.49C3665.31 3225.03 3673.37 3245.24 3670.38 3257.38C3647.78 3349.05 3628.85 3441.62 3602.95 3532.52C3590.53 3576.07 3600.68 3599.08 3641.44 3623.47C3694.49 3655.21 3753.7 3671.1 3812.46 3685.99C3895.34 3706.99 3978.31 3728.17 4062.89 3742.1C4115.31 3750.73 4167.13 3762.41 4219.78 3770.47C4288.51 3780.99 4357.16 3790.3 4426.54 3790.96C4482.53 3791.5 4538.85 3796.23 4594.56 3785.89C4641.52 3777.17 4686.58 3762.75 4726.65 3736.14C4751.97 3719.31 4753.95 3691.01 4753.89 3664.73C4753.66 3562.66 4750.9 3460.6 4740.27 3359C4736.59 3323.92 4729.24 3289.23 4724.22 3254.27C4722.8 3244.35 4716.42 3238.62 4710.26 3232.26" stroke="black" stroke-width="12" stroke-linecap="round" stroke-linejoin="round"/>
<path d="M3718.61 910.152C3719.52 979.935 3723.01 1049.81 3720.39 1119.46C3718.84 1160.8 3716.51 1202.73 3705.25 1243.57C3691.36 1293.94 3654.54 1315.13 3608.37 1325.87C3593.86 1329.24 3579.64 1334.77 3563.14 1330.79C3556.92 1400.72 3568.81 1466.56 3570.66 1532.82C3469.7 1515.51 3334.98 1292.54 3330.21 1136.03" stroke="black" stroke-width="12" stroke-linecap="round" stroke-linejoin="round"/>
<path d="M2817.86 3538.02C2783.58 3521.83 2773.67 3486.09 2754.89 3457.88C2720.45 3406.14 2691 3351.32 2650.23 3303.54C2597.39 3241.61 2532.19 3206.76 2451.59 3195.81C2394.51 3188.06 2336.66 3183.99 2280.73 3168.84C2194.34 3145.45 2107.25 3123.91 2024.71 3088.63C1983.68 3071.1 1947.48 3045.23 1917.05 3011.96C1908.29 3002.38 1899.06 2993.19 1889.47 2984.46C1881.71 2977.4 1872.24 2971.78 1862.2 2979.09C1853.52 2985.41 1856.4 2993.79 1858.66 3003.77C1867.77 3044.03 1867.64 3084.69 1856.46 3124.82C1851.59 3142.29 1845.78 3159.33 1826.21 3166.15" stroke="black" stroke-width="12" stroke-linecap="round" stroke-linejoin="round"/>
<path d="M2200.84 2312.23C2152.08 2264.65 2095.66 2244.77 2027.14 2259.12C2004.7 2263.83 1981.15 2258.71 1960.38 2275.42C1953.58 2280.89 1936.99 2272.34 1925.43 2274.02C1802.3 2291.81 1703.75 2348.58 1644.88 2461.23C1593.53 2559.49 1589.93 2702.63 1666.47 2794.27C1668.13 2796.25 1670.12 2797.96 1671.96 2799.79" stroke="black" stroke-width="12" stroke-linecap="round" stroke-linejoin="round"/>
<path d="M1509.44 3953.96C1503.26 3924.39 1476.93 3925.87 1457.04 3924.45C1392.7 3919.89 1328.96 3926.18 1267.06 3945.79C1257.66 3948.78 1246.33 3950.74 1239.98 3957.2C1226.87 3970.52 1204.52 3980.62 1214.72 4006.29C1225.3 4032.91 1253.85 4051.05 1280.78 4047.45C1294.91 4045.56 1307.44 4039.17 1319.46 4031.22C1363.77 4001.9 1410.97 3978.88 1462.49 3964.54C1478.1 3960.2 1495.25 3967.56 1509.44 3956.72" stroke="black" stroke-width="12" stroke-linecap="round" stroke-linejoin="round"/>
<path d="M2859.18 1813.66C2849.25 1754.43 2829.27 1698.06 2805.77 1643.33C2798.97 1627.48 2781.02 1613.9 2764.94 1605.42C2753.64 1599.45 2741.4 1607.57 2734.6 1623.32C2720.39 1656.24 2732.25 1687.41 2744.79 1713.87C2773.03 1773.49 2793.25 1834.79 2807.24 1898.96C2817.63 1946.58 2847.68 1984.59 2875.88 2022.87C2893.3 2046.52 2909.9 2071.69 2931.35 2091.26C2970.33 2126.85 2977.88 2175.17 2991.15 2221.4C2998.63 2247.46 2981.27 2268.01 2972.12 2290.2" stroke="black" stroke-width="12" stroke-linecap="round" stroke-linejoin="round"/>
<path d="M2379.88 2612.48C2371.88 2593.09 2372.63 2569.94 2357.1 2553.68C2336.17 2558.36 2336.03 2572.78 2335.73 2587.69C2334.27 2659.55 2354.27 2728.86 2360.69 2799.79C2366.09 2859.57 2353.26 2915.66 2330.67 2970.73C2313.07 3013.64 2296.59 3056.31 2261.76 3089.37C2247.12 3103.26 2230.52 3110.67 2211.79 3113.38C2199.69 3115.14 2190.34 3120.11 2181.55 3127.59" stroke="black" stroke-width="12" stroke-linecap="round" stroke-linejoin="round"/>
<path d="M2834.39 2606.97C2827.04 2650.13 2822.51 2693.99 2811.86 2736.31C2769.53 2904.44 2694.26 3050.97 2536.97 3141.48C2535.48 3142.34 2535.06 3145.03 2534.14 3146.87" stroke="black" stroke-width="12" stroke-linecap="round" stroke-linejoin="round"/>
<path d="M4864.51 2584.94C4866.35 2592.28 4865.8 2602.01 4870.39 2606.61C4922.46 2658.87 4967.63 2719.45 5038.1 2750.1C5054.63 2757.29 5071.99 2762.95 5090.37 2761.09C5114.63 2758.63 5121.99 2743.56 5109.64 2722.68C5089.19 2688.09 5057.85 2664.45 5027.2 2639.82C4997.3 2615.79 4961.4 2601.95 4929.67 2580.86C4917.02 2572.44 4894.23 2568.8 4875.56 2576.73C4857.97 2584.21 4842.91 2579.09 4828.7 2568.41" stroke="black" stroke-width="12" stroke-linecap="round" stroke-linejoin="round"/>
<path d="M4721.27 3284.6C4658.51 3335.18 4581.64 3349.22 4506.39 3367.12C4416.53 3388.51 4324.89 3385.33 4233.73 3383.01C4188.63 3381.86 4143.26 3375.21 4098.83 3366.76C3979.61 3344.09 3862.25 3314.21 3751.83 3262.21C3737.77 3255.59 3726.09 3244 3713.07 3235.06C3676.59 3210 3674.41 3200.46 3696.57 3160.64" stroke="black" stroke-width="12" stroke-linecap="round" stroke-linejoin="round"/>
<path d="M1435.06 2529.84C1415.82 2567.03 1407.78 2607.43 1402.15 2648.31C1394.72 2702.19 1390.06 2756.36 1391.2 2810.81C1391.58 2829.1 1377.55 2833.38 1366.24 2841.17C1312.54 2878.16 1253.73 2906.47 1198.21 2940.34C1182.34 2950.02 1166.95 2960.48 1151.34 2970.58" stroke="black" stroke-width="12" stroke-linecap="round" stroke-linejoin="round"/>
<path d="M2542.4 3367.24C2535.46 3379.17 2542.57 3391.11 2542.49 3403.05C2541.93 3486.22 2551.2 3568.79 2562.36 3650.87C2575.56 3747.94 2581.22 3845.5 2589.57 3942.92C2591.12 3961.06 2595.11 3978.69 2604.91 3995.77C2614.48 4012.44 2609.93 4033.99 2615.83 4053.41C2624.9 4083.29 2637.99 4109.38 2660.92 4130.18C2696.62 4162.57 2737.43 4157.18 2759.95 4105.44C2768.72 4085.3 2771.1 4063.76 2770.9 4042.11C2770.36 3984.26 2768.97 3926.42 2768.34 3868.57C2767.8 3817.45 2780.45 3767.62 2784.29 3717.03C2790.17 3639.47 2821.23 3567.69 2832.71 3491.36C2837.37 3460.43 2844.07 3424.54 2883.97 3414.07" stroke="black" stroke-width="12" stroke-linecap="round" stroke-linejoin="round"/>
<path d="M3225.54 1992.7C3226.86 1950.11 3242.13 1910.37 3257.11 1872C3271.84 1834.26 3270.9 1801.59 3253.27 1766.73C3235.82 1732.22 3228.02 1695.56 3233.76 1656.64C3239.67 1616.6 3233.71 1601.29 3211.77 1598.8C3181.37 1595.35 3154.61 1617.88 3151.36 1651.15C3148.75 1677.88 3151.64 1703.89 3164.72 1728.38C3173.22 1744.29 3179.81 1761.24 3186.91 1777.87C3191.35 1788.28 3194.08 1799.77 3184 1807.88C3173.33 1816.46 3166.56 1806.39 3159.4 1799.92C3128.49 1771.99 3113.02 1734.3 3096.38 1697.82C3067.72 1634.98 3041.67 1570.94 3013.07 1508.06C3002.73 1485.32 2990.34 1462.83 2969.32 1447.35C2944.8 1429.28 2932.91 1432.72 2919.78 1461.07" stroke="black" stroke-width="12" stroke-linecap="round" stroke-linejoin="round"/>
<path d="M4936.13 2576.67C4948.44 2563.86 4962.68 2568.38 4977.49 2570.92C5014.09 2577.18 5050.87 2582.5 5087.68 2587.37C5093.73 2588.17 5100.15 2588.23 5107.12 2585.44C5126.02 2577.87 5130.55 2566.2 5114.94 2554.97C5086.4 2534.45 5052.85 2523.48 5018.69 2519.52C4966.03 2513.42 4913.92 2517.65 4864.26 2540.3C4851.64 2546.05 4838.5 2550.04 4828.86 2560.3C4824.8 2564.62 4821.45 2567.2 4815.04 2568.85C4716.48 2594.27 4620.28 2628.42 4520.29 2648.78C4516.75 2649.5 4512.47 2649.58 4509.26 2651.21C4498.45 2656.72 4481.2 2660.27 4485.21 2675.62C4490.29 2695.07 4505.73 2679.72 4514.49 2677.75C4535.66 2673.01 4553.48 2677.86 4566.72 2692.64C4615.3 2746.88 4628.47 2809.49 4608.61 2879.75C4600.58 2908.15 4577.31 2920.08 4556 2934.77" stroke="black" stroke-width="12" stroke-linecap="round" stroke-linejoin="round"/>
<path d="M1603.09 3956.71C1708.22 3986.75 1814.61 4011.4 1922.69 4027.9C1953.47 4032.59 1985.19 4034.7 2016.24 4033.14C2052.64 4031.31 2082.99 4035.37 2096.16 4075.16" stroke="black" stroke-width="12" stroke-linecap="round" stroke-linejoin="round"/>
<path d="M1426.8 3609.64C1432.15 3721.51 1457.54 3825.07 1542.9 3905.31C1576.85 3889.47 1577.08 3862.8 1577.83 3838.26C1578.82 3806.18 1572.88 3773.6 1576.41 3741.96C1581.33 3697.89 1558.83 3652.09 1586.05 3609.31C1592.47 3599.21 1597.84 3588.58 1605.59 3579.13C1611.93 3571.39 1619.47 3569.45 1627.83 3571.31C1639.4 3573.88 1639.07 3583.9 1638.88 3593.11C1637.88 3643.48 1629.73 3692.44 1609.98 3739.1" stroke="black" stroke-width="12" stroke-linecap="round" stroke-linejoin="round"/>
<path d="M4864.51 2039.53C4817.89 2090.21 4800.68 2153.71 4787.59 2218.62C4774.92 2281.4 4773.9 2344.8 4778.58 2408.68C4780.79 2438.76 4777.33 2469.25 4776.31 2499.54C4776.18 2503.32 4777.63 2507.21 4773.7 2510.67C4758.07 2524.44 4764.45 2537.97 4776.7 2548.75C4783.53 2554.75 4779.51 2563 4784.63 2568.41" stroke="black" stroke-width="12" stroke-linecap="round" stroke-linejoin="round"/>
<path d="M2542.4 4204.63C2550.21 4197.62 2565.57 4200.31 2564.79 4180.25C2546.43 4159.5 2517.53 4143.2 2492.88 4121.92C2480.59 4111.31 2467.14 4101.33 2457.46 4088.59C2444.95 4072.14 2427.71 4066.66 2410.22 4067.58C2377.18 4069.31 2346.75 4060.1 2316.66 4049.97C2280.37 4037.75 2245.76 4048.92 2212.11 4056.96C2178.11 4065.09 2145.61 4076.83 2109.81 4070.34C2107 4069.84 2096.05 4071.12 2096.16 4080.67" stroke="black" stroke-width="12" stroke-linecap="round" stroke-linejoin="round"/>
<path d="M2782.05 3675.75C2763.78 3682.18 2759.95 3700.5 2752.15 3714.54C2717.64 3776.66 2680.18 3837.58 2668.96 3909.87C2655.75 3994.97 2670.67 4071.23 2735.22 4133.01" stroke="black" stroke-width="12" stroke-linecap="round" stroke-linejoin="round"/>
<path d="M2984 3847.66C2964.01 3891.22 2894.69 3979.1 2870.53 4020.27C2845.22 4063.4 2820.08 4106.45 2790.56 4146.96C2765.61 4181.2 2732.96 4198.56 2691.17 4196.04C2654.98 4193.86 2619.8 4205.22 2583.72 4201.88" stroke="black" stroke-width="12" stroke-linecap="round" stroke-linejoin="round"/>
<path d="M4556 1304.06C4518.81 1295.63 4495.31 1310.51 4476 1353.59C4466.44 1374.91 4456.54 1396.34 4435.63 1409.02C4402.27 1397.11 4412.78 1366.83 4411.71 1345.29C4410.86 1328.44 4406.74 1322.04 4393.63 1314.81C4334.36 1282.1 4303.07 1231.93 4302.62 1163.57C4302.53 1149.79 4302.2 1134.48 4288.5 1128.45C4277.21 1123.49 4265.07 1132.2 4255.97 1139.07C4206.12 1176.67 4151.7 1205.62 4093.17 1226.77C4054.75 1240.66 4013.78 1244.8 3974.51 1256.29C3944.27 1265.13 3921.06 1283.92 3895.05 1298.81C3886.52 1303.69 3884.95 1313.18 3883.03 1323.17C3881.27 1332.29 3884.32 1344.81 3872.69 1350.74C3810.12 1298.96 3800.83 1231.37 3840.56 1164.01C3880.51 1096.27 3932.44 1038.1 3989.62 982.78C4032.83 940.981 4078.87 911.757 4134.68 896.877C4205.6 877.967 4276.61 872.952 4346.94 903.995C4370.46 914.38 4383.81 931.787 4395.98 951.626C4402.32 961.951 4383.88 1012.54 4371.44 1023.09C4355.73 1036.43 4329.69 1037.44 4311.02 1022.86C4281.52 999.824 4252.82 975.627 4217.14 962.614C4161.88 942.46 4106.79 940.833 4051.77 964.929C4039.14 970.46 4025.72 979.091 4010.59 970.753" stroke="black" stroke-width="12" stroke-linecap="round" stroke-linejoin="round"/>
<path d="M3757.17 2255.77C3746.48 2320.73 3725.89 2383.72 3720.47 2449.89C3718.88 2469.34 3716.97 2489.34 3719.5 2507.69C3729.35 2579.26 3706.38 2648.56 3708.82 2719.96C3711.15 2788.54 3709.35 2857.67 3707.11 2926.49C3706.05 2958.72 3703.21 2990.77 3707.52 3022.93C3708.04 3026.83 3706.66 3031.49 3713.1 3031.18" stroke="black" stroke-width="12" stroke-linecap="round" stroke-linejoin="round"/>
<path d="M4688.22 3317.66C4695.75 3332.42 4696.81 3348.26 4696.54 3364.49C4694.6 3478.34 4692.88 3592.2 4690.88 3706.05C4690.63 3720.2 4692.1 3733.94 4696.48 3747.37" stroke="black" stroke-width="12" stroke-linecap="round" stroke-linejoin="round"/>
<path d="M2894.99 3449.88C2872.84 3483.27 2878.31 3517.21 2892.11 3551.84C2910.13 3597.02 2940.23 3633.47 2983.56 3652.77C3051.85 3683.19 3100.66 3659.3 3129.07 3593.09C3131.35 3587.77 3134.52 3582.04 3134.35 3576.6C3133.48 3549.48 3148.95 3533.64 3170.45 3521.49" stroke="black" stroke-width="12" stroke-linecap="round" stroke-linejoin="round"/>
<path d="M1732.56 2364.57C1757.85 2397.28 1746.19 2432.92 1737.51 2466.35C1709.68 2573.51 1746.94 2692.78 1831.93 2758.21C1837.81 2762.74 1844.63 2768.74 1853.76 2766.74" stroke="black" stroke-width="12" stroke-linecap="round" stroke-linejoin="round"/>
<path d="M4027.12 1755.81C3973.34 1769.52 3917.65 1774.44 3864.58 1791.55C3810.63 1808.94 3752.91 1821.92 3716.7 1869.39C3688.88 1905.86 3669.21 1949.35 3664.18 1995.53C3653.44 2094.23 3683.17 2186.15 3718.84 2276.33C3723.44 2287.96 3730.47 2298.98 3743.4 2303.97" stroke="black" stroke-width="12" stroke-linecap="round" stroke-linejoin="round"/>
<path d="M3903.16 1301.3C3924.71 1349.51 3938.56 1398.55 3934.01 1452.85C3925.53 1553.94 3954.89 1644.36 4015.34 1726.07C4029.48 1745.18 4042.48 1764.98 4060.43 1780.3C4079.05 1796.18 4100.38 1806.43 4126.37 1797.37C4131.28 1795.66 4137.76 1795.72 4142.74 1797.35C4184.63 1811.08 4218.45 1790.93 4253.06 1772.46C4290.11 1752.68 4324.8 1729.17 4357.35 1703.07C4395.99 1672.08 4422.02 1630.91 4440.19 1584.98C4445.52 1571.49 4449.21 1557.34 4460.3 1545.25C4485.01 1561.68 4506.14 1547.88 4522.25 1531.98C4539.75 1514.71 4553.28 1493.02 4567.86 1472.69C4595.34 1434.35 4578.2 1397.12 4572.46 1359.16C4568.58 1333.51 4561.76 1310.48 4568.1 1281.65C4592.98 1168.37 4577.06 1062.66 4486.84 979.333C4463.46 957.734 4435.9 942.246 4401.74 956.981" stroke="black" stroke-width="12" stroke-linecap="round" stroke-linejoin="round"/>
<path d="M4528.45 1703.47C4536.98 1769.07 4506.85 1822.83 4472.91 1873.95C4429.79 1938.9 4376.28 1995.11 4307.8 2033.51C4235.82 2073.86 4177.11 2039.95 4148.57 1970.57C4138.47 1946.02 4131.24 1920.26 4129.15 1893.53C4128.12 1880.4 4127.76 1867.01 4140.07 1857.74C4149.38 1855.48 4150.36 1864.2 4153.68 1868.86C4186.19 1914.52 4205.05 1966.02 4216.91 2020.31C4218.02 2025.37 4215.35 2031.27 4214.43 2036.78" stroke="black" stroke-width="12" stroke-linecap="round" stroke-linejoin="round"/>
<path d="M2333.06 2571.16C2322.96 2567.49 2312.74 2564.1 2302.77 2560.1C2249.56 2538.73 2182.79 2577.07 2180.89 2645.52C2179.57 2693.09 2202.7 2729.38 2225.71 2766.69C2238.56 2787.54 2255.06 2806.58 2255.93 2832.85" stroke="black" stroke-width="12" stroke-linecap="round" stroke-linejoin="round"/>
<path d="M3996.82 3353.46C3996.82 3434.27 4000.18 3515.26 3995.45 3595.79C3992.97 3637.99 3995.09 3680.59 3988.56 3722.58" stroke="black" stroke-width="12" stroke-linecap="round" stroke-linejoin="round"/>
<path d="M4076.7 3369.99C4074.87 3400.29 4071.92 3430.57 4071.4 3460.9C4069.9 3549.95 4069.38 3639.02 4068.37 3728.09C4068.33 3731.86 4070.21 3736.34 4065.68 3739.11" stroke="black" stroke-width="12" stroke-linecap="round" stroke-linejoin="round"/>
<path d="M4145.57 3381.01C4142.81 3430.59 4139.91 3480.16 4137.34 3529.76C4133.53 3603.21 4129.96 3676.67 4126.29 3750.12" stroke="black" stroke-width="12" stroke-linecap="round" stroke-linejoin="round"/>
<path d="M3079.54 3138.61C3060.48 3146.06 3053.3 3137.36 3054.89 3119.34C3057.91 3085.05 3072.08 3053.43 3080.17 3020.31C3087.29 2991.12 3099.06 2962.97 3110.08 2934.86C3117.71 2915.38 3100.62 2907.07 3092.44 2896.92C3083.77 2886.16 3067.27 2892.82 3057.96 2899.58C3042.7 2910.64 3033.45 2928.3 3027.56 2945.91C3005.56 3011.72 2984.37 3077.82 2964.13 3144.2C2955.23 3173.37 2937.93 3200.24 2939.06 3232.26" stroke="black" stroke-width="12" stroke-linecap="round" stroke-linejoin="round"/>
<path d="M3696.57 1888.03C3683.26 1884.35 3676.82 1894.23 3668.99 1901.77C3597.61 1970.49 3532.49 2044.76 3470.35 2121.89C3446.77 2151.15 3419.32 2177.3 3393.53 2204.77C3388.31 2210.33 3383.26 2216.61 3374.29 2215.82" stroke="black" stroke-width="12" stroke-linecap="round" stroke-linejoin="round"/>
<path d="M2269.7 2287.44C2308.36 2285.45 2331.64 2311.82 2351.74 2337.49C2407.57 2408.78 2421.93 2489.43 2396.31 2576.64C2393.44 2586.38 2391.73 2597.43 2379.88 2601.46" stroke="black" stroke-width="12" stroke-linecap="round" stroke-linejoin="round"/>
<path d="M2864.69 3078.01C2835.52 3086.58 2824.31 3108.25 2837.75 3141.12C2851.53 3174.82 2853.23 3208.36 2848.21 3243.29C2847.82 3245.99 2849.06 3249.2 2848.03 3251.49C2820 3313.81 2846.57 3364.75 2884.69 3410.72C2902.57 3432.28 2931.1 3443.48 2958.5 3449.13C2991.05 3455.84 3016.89 3436.05 3024.32 3403.02C3038.36 3340.54 3008.31 3282.42 2969.5 3248.63C2953.56 3234.75 2937.64 3233.11 2918.98 3243.77C2903.04 3218.49 2914.56 3193.53 2919.95 3168.95C2929.09 3127.24 2908.05 3090.02 2867.44 3078.01" stroke="black" stroke-width="12" stroke-linecap="round" stroke-linejoin="round"/>
<path d="M3514.77 2629.01C3593.61 2498.67 3541.42 2389.26 3448.66 2303.97C3426.58 2307.64 3418.07 2282.12 3396.45 2280.38C3385.23 2279.47 3378.69 2258.86 3377.81 2246.07C3375.87 2217.85 3359.68 2196.17 3349.51 2171.74C3326.3 2115.94 3293.61 2065.37 3260.62 2015.22C3253.4 2004.25 3244.05 1985.06 3222.79 1995.46" stroke="black" stroke-width="12" stroke-linecap="round" stroke-linejoin="round"/>
<path d="M2605.76 3334.18C2624.89 3443.42 2608.39 3550.22 2583.78 3656.48C2582.14 3663.55 2577.7 3668.37 2572.7 3673" stroke="black" stroke-width="12" stroke-linecap="round" stroke-linejoin="round"/>
<path d="M2479.05 4345.11C2466.23 4372.29 2452.58 4378.72 2426.67 4372.82C2357.66 4357.13 2288.01 4344.95 2217.34 4339.83C2201.96 4338.72 2187.72 4345.86 2173.28 4350.6C2123.92 4366.81 2077.44 4358.22 2032.8 4334.09" stroke="black" stroke-width="9" stroke-linecap="round" stroke-linejoin="round"/>
<path d="M2082.39 4058.64C2021.67 4060.11 1974.84 4125.66 1960.69 4190.75C1951.56 4232.7 1957.31 4269.23 1982.71 4304.17C1992.65 4317.84 2003.47 4323.37 2019.03 4323.08" stroke="black" stroke-width="12" stroke-linecap="round" stroke-linejoin="round"/>
<path d="M4944.39 3257.05C4926.27 3266.63 4931.93 3286.61 4925.51 3301.3C4910.16 3336.44 4896.88 3372.48 4879.51 3416.38C4938.56 3404.01 4989.8 3386.05 5044.14 3370.41C5013.86 3326.88 4979.49 3292.83 4947.15 3257.05" stroke="black" stroke-width="12" stroke-linecap="round" stroke-linejoin="round"/>
<path d="M4043.65 1232.44C4043.69 1205.55 4065.16 1193.92 4082.49 1180.46C4099.03 1167.61 4117.54 1157.16 4131.61 1141.37C4136.74 1135.6 4144.51 1129.27 4137.35 1119.46C4130.56 1110.15 4120.12 1112.58 4112.65 1114.53C4090.23 1120.38 4068.2 1128.04 4046.45 1136.16C3998.7 1153.98 3947.73 1168.26 3917.59 1213.58C3902.34 1236.5 3884.5 1261.98 3900.41 1293.04" stroke="black" stroke-width="12" stroke-linecap="round" stroke-linejoin="round"/>
<path d="M4264.02 2620.75C4245.67 2638.07 4221.2 2629.67 4200.41 2632.88C4148.92 2640.82 4099.9 2657.64 4049.22 2667.89C4042.33 2669.28 4036.18 2674.72 4029.9 2678.63C4000.83 2696.7 3998.36 2707.99 4016.04 2740.46C4088.86 2741.22 4158.81 2718.77 4230.96 2714.4" stroke="black" stroke-width="12" stroke-linecap="round" stroke-linejoin="round"/>
<path d="M1851 2827.34C1828.05 2808.06 1806.17 2787.26 1781.81 2769.96C1760.9 2755.1 1736.92 2745.53 1710.52 2758.49C1682.95 2772.02 1675.31 2795.58 1674.38 2824.57C1672.23 2891.81 1694.78 2945.74 1751.65 2984.63C1784.92 3007.37 1818.76 3002.54 1853.76 2992.61" stroke="black" stroke-width="12" stroke-linecap="round" stroke-linejoin="round"/>
<path d="M2258.68 2279.18C2230.03 2217.58 2162.84 2192.48 2096.19 2196.91C2061.35 2199.22 2027.62 2207.27 2002.43 2235.03C1997.28 2240.7 1993.15 2246.31 1994.24 2254.39" stroke="black" stroke-width="12" stroke-linecap="round" stroke-linejoin="round"/>
<path d="M3726.87 2568.41C3729.77 2571.98 3734.14 2573.03 3735.54 2579.34C3755.14 2667.62 3775.54 2755.72 3795.74 2843.87" stroke="black" stroke-width="12" stroke-linecap="round" stroke-linejoin="round"/>
<path d="M2625.04 4281.76C2600.44 4250.95 2561.22 4237.14 2536.89 4206.01C2479.64 4194.01 2443.19 4138.19 2382.66 4132.71C2376.95 4132.2 2370.61 4128.59 2366.27 4124.57C2334.36 4095.1 2297.46 4095.32 2258.68 4105.47" stroke="black" stroke-width="12" stroke-linecap="round" stroke-linejoin="round"/>
<path d="M1630.64 2240.61C1542.52 2313.57 1479.38 2404.36 1437.82 2510.56" stroke="black" stroke-width="12" stroke-linecap="round" stroke-linejoin="round"/>
<path d="M2087.9 2593.2C1998.18 2560.01 1922.21 2625.35 1883.85 2681.2C1872.66 2697.49 1886.65 2719.33 1870.29 2733.68" stroke="black" stroke-width="12" stroke-linecap="round" stroke-linejoin="round"/>
<path d="M3396.32 2284.69C3379.76 2302.13 3393 2320.64 3397.09 2336.83C3410.67 2390.6 3426.73 2443.79 3443.6 2496.65C3449.4 2514.83 3448.84 2536.82 3467.55 2549.4C3498.51 2527.9 3508.63 2487.65 3495.64 2444.41C3483.99 2405.64 3465.36 2370.43 3442.91 2337.19C3435.88 2326.78 3427.25 2317.79 3429.38 2303.97" stroke="black" stroke-width="12" stroke-linecap="round" stroke-linejoin="round"/>
<path d="M3225.54 2014.74C3264.42 2046.63 3251.54 2103.98 3225.05 2146.66C3208.62 2173.14 3186.63 2195.59 3162.6 2216.31C3140.99 2234.93 3118.59 2252.88 3097.49 2272.21C3065.39 2301.61 3021.99 2309.56 2977.62 2298.46" stroke="black" stroke-width="12" stroke-linecap="round" stroke-linejoin="round"/>
<path d="M2900.5 3430.59C2899.58 3435.18 2896.22 3441.81 2898.1 3444.07C2944.16 3499.28 2998.11 3540.77 3074.03 3543.69C3094.27 3544.47 3114.44 3547.2 3134.64 3549.04" stroke="black" stroke-width="12" stroke-linecap="round" stroke-linejoin="round"/>
<path d="M4714.39 2389.36C4719.05 2353.59 4703.6 2322.93 4687.67 2293.24C4679.6 2278.19 4660.94 2283.45 4650.14 2288.48C4637.89 2294.2 4635.15 2308.86 4641.27 2323.3C4653.36 2351.82 4673.92 2376.25 4700.01 2387.59C4722.8 2397.49 4726.44 2413.2 4732.09 2430.75C4741.64 2460.33 4743.71 2492.47 4762.59 2518.83" stroke="black" stroke-width="12" stroke-linecap="round" stroke-linejoin="round"/>
<path d="M3214.52 2014.74C3179.7 2059.29 3139.06 2096.21 3088.18 2122.88C3054.44 2140.57 3022.04 2155.4 2983.09 2147.17C2979.76 2146.47 2975.79 2148.79 2972.12 2149.71" stroke="black" stroke-width="12" stroke-linecap="round" stroke-linejoin="round"/>
<path d="M2308.27 4196.36C2379.91 4210.63 2443.92 4243.03 2506.76 4278.71C2528.98 4291.32 2551.54 4305.64 2578.22 4306.19C2596.55 4306.56 2618.51 4313.05 2625.6 4284.65C2628.04 4274.86 2641.99 4278.12 2649.83 4273.49" stroke="black" stroke-width="12" stroke-linecap="round" stroke-linejoin="round"/>
<path d="M3666.27 2331.52C3597.87 2292.8 3524.45 2271.75 3445.92 2267.93C3434.97 2267.4 3427.18 2270.56 3421.11 2279.18" stroke="black" stroke-width="12" stroke-linecap="round" stroke-linejoin="round"/>
<path d="M3002.42 1697.96C2975.79 1622.67 2949.36 1547.31 2922.39 1472.14C2916.1 1454.6 2901.41 1442.4 2886.36 1434.2C2863.79 1421.9 2835.58 1444.6 2837.31 1472.07C2838.53 1491.52 2844.8 1509.26 2852.78 1527.57C2867.8 1562.03 2876.81 1599.06 2889.71 1634.52C2900.54 1664.31 2912.78 1693.63 2925.71 1722.57C2928.82 1729.53 2926.58 1735.68 2928.04 1742.03" stroke="black" stroke-width="12" stroke-linecap="round" stroke-linejoin="round"/>
<path d="M3751.66 2039.53C3738.3 2104.4 3744.64 2169.83 3746.5 2235.1C3746.63 2239.76 3751.66 2244.29 3754.42 2248.88" stroke="black" stroke-width="12" stroke-linecap="round" stroke-linejoin="round"/>
<path d="M4275.03 2612.48C4324.03 2605.52 4362.27 2632.53 4401.47 2654.29C4426.95 2668.44 4452.84 2676.3 4481.62 2675.84" stroke="black" stroke-width="12" stroke-linecap="round" stroke-linejoin="round"/>
<path d="M3115.36 2915.49C3120.86 2907.22 3125.6 2898.28 3132.04 2890.83C3146.07 2874.62 3171.11 2875.02 3177.76 2893.79C3184.03 2911.5 3190.05 2935.72 3182.83 2950.62C3158 3001.87 3155.84 3058.63 3137.43 3111.07C3132.61 3124.77 3128.21 3138.61 3123.62 3152.38" stroke="black" stroke-width="12" stroke-linecap="round" stroke-linejoin="round"/>
<path d="M4478.87 1557.48C4475.48 1603.6 4472.53 1650.08 4485.06 1695.02C4491.39 1717.72 4496.4 1746.39 4531.21 1744.79" stroke="black" stroke-width="12" stroke-linecap="round" stroke-linejoin="round"/>
<path d="M4492.64 2686.86C4540.12 2735.56 4532.84 2794.23 4519.04 2851.86C4514.42 2871.15 4496.54 2887.28 4498.15 2909.98" stroke="black" stroke-width="12" stroke-linecap="round" stroke-linejoin="round"/>
<path d="M2355.09 2551.88C2370.56 2499.4 2353.7 2433.39 2319.51 2413.75C2309.45 2407.97 2299.78 2405.06 2288.99 2406.02C2243.37 2410.11 2214.96 2387.75 2209.1 2342.53C2204.23 2305.01 2206.89 2301.94 2261.73 2281.82C2269.63 2289.48 2268.21 2299.91 2269.7 2309.48" stroke="black" stroke-width="12" stroke-linecap="round" stroke-linejoin="round"/>
<path d="M3806.75 2056.06C3790.79 2113.07 3776.75 2170.5 3771.13 2229.61C3770.3 2238.31 3764.41 2242.91 3759.93 2248.88" stroke="black" stroke-width="12" stroke-linecap="round" stroke-linejoin="round"/>
<path d="M2445.99 1901.8C2455.22 1958.39 2463.93 2015.04 2481.29 2069.99C2483.51 2077.01 2485.19 2086.94 2479.05 2094.62" stroke="black" stroke-width="12" stroke-linecap="round" stroke-linejoin="round"/>
<path d="M3046.49 2370.08C3081.32 2413.4 3126.61 2442.79 3176.04 2466.31C3193.87 2474.79 3212.69 2481.18 3231.05 2488.53" stroke="black" stroke-width="12" stroke-linecap="round" stroke-linejoin="round"/>
<path d="M1839.99 2549.12C1817.74 2598.23 1825.55 2647.26 1843.65 2694.77C1848.54 2707.61 1847.1 2723.68 1859.27 2733.68" stroke="black" stroke-width="12" stroke-linecap="round" stroke-linejoin="round"/>
<path d="M4487.14 2697.88C4452.89 2751.88 4458.79 2837.65 4499.53 2878.3" stroke="black" stroke-width="12" stroke-linecap="round" stroke-linejoin="round"/>
<path d="M2203.59 2323.25C2177.6 2328.23 2166.38 2345.5 2158.95 2369.91C2146.49 2410.85 2136.66 2453.31 2109.93 2488.52" stroke="black" stroke-width="12" stroke-linecap="round" stroke-linejoin="round"/>
<path d="M1437.82 3400.29C1478.83 3445.8 1501.01 3501.54 1523.43 3557.21C1525.35 3561.97 1522.59 3570.16 1531.47 3571.08" stroke="black" stroke-width="12" stroke-linecap="round" stroke-linejoin="round"/>
<path d="M4657.92 3593.11C4658.14 3625.69 4651.06 3657.44 4647.37 3689.58C4644.32 3716.15 4636.01 3742.22 4638.64 3769.41" stroke="black" stroke-width="12" stroke-linecap="round" stroke-linejoin="round"/>
<path d="M4820.44 2314.99C4819.52 2371.92 4821.2 2429.06 4816.46 2485.67C4814.44 2509.72 4809.19 2538.17 4781.88 2551.88" stroke="black" stroke-width="12" stroke-linecap="round" stroke-linejoin="round"/>
<path d="M4208.92 1651.14C4189.31 1647.92 4169.98 1644.78 4150.65 1638.71C4137.37 1634.55 4120.18 1631.85 4103.96 1639.5C4092.37 1644.98 4078.16 1650.71 4065.5 1637.54C4056.58 1628.27 4050.83 1640.38 4043.65 1642.87" stroke="black" stroke-width="12" stroke-linecap="round" stroke-linejoin="round"/>
<path d="M4032.63 1523.05C4035.38 1523.51 4038.14 1523.97 4040.89 1524.43C4040 1493.52 4058.42 1469.02 4068.65 1441.87C4079.41 1413.32 4073.51 1402.15 4043.73 1394.65C4028.75 1390.88 4014.32 1392.27 3999.57 1393.58" stroke="black" stroke-width="12" stroke-linecap="round" stroke-linejoin="round"/>
<path d="M2098.91 2491.28C2052.34 2474.91 2009.52 2448.02 1958.51 2443.59C1948.48 2442.73 1942.43 2442.9 1936.39 2449.96" stroke="black" stroke-width="12" stroke-linecap="round" stroke-linejoin="round"/>
<path d="M4087.72 2885.19C4072.78 2914.75 4076.46 2925.54 4109.89 2937.16C4134.68 2945.77 4160.34 2952.78 4186.9 2953.83C4195.62 2954.17 4203.17 2955.32 4208.92 2962.32" stroke="black" stroke-width="12" stroke-linecap="round" stroke-linejoin="round"/>
<path d="M3018.95 3212.98C3078.69 3240.31 3132.64 3276.01 3178.71 3323.16" stroke="black" stroke-width="12" stroke-linecap="round" stroke-linejoin="round"/>
<path d="M4936.13 2337.02C4893.05 2369.83 4866.84 2415.83 4840.04 2461.16C4834.22 2471 4833.18 2483.76 4820.44 2488.53" stroke="black" stroke-width="12" stroke-linecap="round" stroke-linejoin="round"/>
<path d="M4230.96 2808.06C4182.29 2810.81 4133.65 2814.69 4084.95 2815.59C4071.51 2815.84 4058.98 2822.36 4043.18 2814.5C4000.99 2793.48 3995.36 2782.35 4017.48 2741.95" stroke="black" stroke-width="12" stroke-linecap="round" stroke-linejoin="round"/>
<path d="M4302.58 1339.87C4253.95 1308.36 4203.09 1297.65 4148.32 1323.34" stroke="black" stroke-width="12" stroke-linecap="round" stroke-linejoin="round"/>
<path d="M2655.34 3843.78C2635.76 3853.27 2633.01 3873.18 2628.19 3890.72C2621.56 3914.87 2617.24 3939.74 2616.88 3964.98C2616.74 3974.32 2617.02 3983.43 2608.51 3989.77" stroke="black" stroke-width="12" stroke-linecap="round" stroke-linejoin="round"/>
<path d="M2209.1 2326.01C2236.89 2328.64 2260.41 2344.71 2267.98 2367.89C2276.02 2392.47 2268.54 2419.87 2248.05 2442.06C2217.02 2475.66 2184.35 2502.02 2134.67 2497.43C2124.02 2496.45 2115.07 2490.12 2103.23 2490.75C2087.15 2510.68 2070.54 2531.05 2043.81 2538.04C2026.47 2542.58 2012.57 2544.29 1998.82 2525C1980.55 2499.36 1955.93 2478.18 1933.58 2455.53C1899.12 2420.6 1842.59 2426.21 1826.43 2466.58C1814.97 2495.23 1827.55 2521.47 1843.5 2543.06C1861.23 2567.08 1886.82 2583.58 1917.41 2592.03C1929.96 2571.4 1922 2546.9 1912.88 2536.67C1887.69 2508.39 1874.02 2473.43 1851 2444.45" stroke="black" stroke-width="12" stroke-linecap="round" stroke-linejoin="round"/>
<path d="M4346.65 1180.1C4378.16 1214.85 4393.21 1257.86 4406.86 1301.43C4408 1305.08 4403.58 1310.48 4401.74 1315.08" stroke="black" stroke-width="12" stroke-linecap="round" stroke-linejoin="round"/>
<path d="M4046.4 2821.83C4033.03 2848.84 4035.97 2856.87 4065.71 2871.36C4100.52 2888.32 4138.7 2886.94 4175.88 2890.53C4192.33 2892.12 4209.13 2888.74 4225.45 2893.45" stroke="black" stroke-width="12" stroke-linecap="round" stroke-linejoin="round"/>
<path d="M2302.76 2937.52C2243.35 2929.55 2189.57 2947.52 2137.48 2973.33" stroke="black" stroke-width="12" stroke-linecap="round" stroke-linejoin="round"/>
<path d="M4051.91 1337.11C4038.61 1322.41 4021.68 1315.44 4002.36 1312.16C3966.84 1306.13 3954.47 1310.52 3939.59 1340.18C3937.02 1345.3 3933.92 1349.32 3930.71 1353.64" stroke="black" stroke-width="12" stroke-linecap="round" stroke-linejoin="round"/>
<path d="M1768.37 2794.28C1758.34 2791.24 1748.32 2788.2 1738.82 2785.31C1709.68 2812.67 1717.25 2851.78 1754.59 2871.41" stroke="black" stroke-width="12" stroke-linecap="round" stroke-linejoin="round"/>
<path d="M2266.95 2427.93C2296.85 2458.55 2312.3 2497.77 2329.72 2535.62C2332.18 2540.98 2335.36 2544.81 2338.56 2549.13" stroke="black" stroke-width="12" stroke-linecap="round" stroke-linejoin="round"/>
<path d="M4569.77 1403.22C4556.92 1415.33 4557.08 1434.15 4545.61 1447.82C4534.06 1461.57 4524.33 1468.61 4506 1457.82C4509.08 1446.73 4518.26 1437.46 4517.42 1425.28C4511 1414.73 4499.23 1417.52 4487 1416.82C4489.04 1396.2 4495.24 1379.2 4504.21 1365.01C4521.53 1337.64 4532.11 1336.38 4564.26 1350.89" stroke="black" stroke-width="12" stroke-linecap="round" stroke-linejoin="round"/>
<path d="M2996.91 2246.12C3021.11 2263.01 3045.93 2267.78 3074.36 2255.1C3083.34 2251.09 3096.07 2249.25 3107.09 2254.39" stroke="black" stroke-width="12" stroke-linecap="round" stroke-linejoin="round"/>
<path d="M3220.03 3097.29C3204.2 3117.53 3205.37 3143.29 3198.82 3166.39C3194.96 3180.04 3190.18 3193.57 3186.97 3207.47" stroke="black" stroke-width="12" stroke-linecap="round" stroke-linejoin="round"/>
<path d="M2308.26 2684.1C2276.1 2650.95 2239.92 2659.99 2220.12 2706.14" stroke="black" stroke-width="12" stroke-linecap="round" stroke-linejoin="round"/>
<path d="M2030.05 4323.07C2049.71 4316.29 2055.84 4300.05 2057.42 4281.74C2059.53 4257.16 2046.08 4244.21 2019.03 4243.19" stroke="black" stroke-width="12" stroke-linecap="round" stroke-linejoin="round"/>
<path d="M2272.45 2940.28C2262.78 2974.45 2240.74 2984.33 2192.57 2976.13C2190.78 2975.82 2188.9 2976.09 2187.06 2976.09" stroke="black" stroke-width="12" stroke-linecap="round" stroke-linejoin="round"/>
<path d="M3186.97 2945.79C3224.2 2937.97 3231.32 2943.54 3230.92 2981.6C3230.75 2998.13 3229.21 3014.65 3228.29 3031.18" stroke="black" stroke-width="12" stroke-linecap="round" stroke-linejoin="round"/>
<path d="M2834.39 1499.63C2789.78 1505.52 2788.77 1510.86 2795.89 1568.49C2798.61 1590.53 2812.68 1611.15 2804.09 1634.61" stroke="black" stroke-width="12" stroke-linecap="round" stroke-linejoin="round"/>
<path d="M1919.87 2538.11C1939.84 2536.25 1954.53 2552.68 1974.94 2552.95C1988.56 2553.13 1998.8 2554.56 2005.26 2540.86" stroke="black" stroke-width="12" stroke-linecap="round" stroke-linejoin="round"/>
<path d="M2104.42 2717.16C2092.82 2709.27 2079.32 2705.51 2068.1 2695.71C2051.92 2681.56 2033.42 2690.38 2015.86 2714.09C2009.84 2722.21 2011.57 2735.14 1999.75 2739.19" stroke="black" stroke-width="12" stroke-linecap="round" stroke-linejoin="round"/>
<path d="M4277.67 1395.4C4266.07 1387.51 4252.57 1383.75 4241.35 1373.95C4225.17 1359.8 4206.67 1368.62 4189.11 1392.33C4183.09 1400.46 4184.82 1413.38 4173 1417.44" stroke="black" stroke-width="12" stroke-linecap="round" stroke-linejoin="round"/>
<path d="M4065.67 1414.4C4054.07 1406.51 4040.57 1402.75 4029.35 1392.95C4013.17 1378.8 3994.67 1387.62 3977.11 1411.33C3971.09 1419.46 3972.82 1432.38 3961 1436.44" stroke="black" stroke-width="12" stroke-linecap="round" stroke-linejoin="round"/>
<path d="M4043.65 1527.18C4067.87 1558.75 4092.12 1562.22 4120.78 1538.19C4136.67 1540.64 4148.75 1561.24 4167.49 1549.04C4180.17 1540.78 4168.67 1530.85 4167.6 1521.67" stroke="black" stroke-width="12" stroke-linecap="round" stroke-linejoin="round"/>
<path d="M1798.67 2849.38C1782.38 2830.21 1779.69 2830.39 1768.24 2849.3C1762.96 2858 1757.17 2866.2 1757.28 2879.66C1777.16 2899.24 1798.24 2918.46 1831.72 2907.22" stroke="black" stroke-width="12" stroke-linecap="round" stroke-linejoin="round"/>
<path d="M1955.68 2281.93C1941.74 2307.77 1918.8 2324.19 1895.08 2339.78" stroke="black" stroke-width="12" stroke-linecap="round" stroke-linejoin="round"/>
<path d="M4473.36 1348.13C4454.08 1342.62 4434.8 1337.11 4415.52 1331.6" stroke="black" stroke-width="12" stroke-linecap="round" stroke-linejoin="round"/>
<path d="M4137.3 1686.94C4120.29 1687.41 4103.09 1694.77 4086.34 1685.57" stroke="black" stroke-width="12" stroke-linecap="round" stroke-linejoin="round"/>
<path d="M4192.39 2414.15C4180.42 2415.22 4171.83 2402.74 4159.34 2405.89" stroke="black" stroke-width="12" stroke-linecap="round" stroke-linejoin="round"/>
<path d="M2275.21 2838.36C2253.35 2831.07 2240.31 2846.46 2225.32 2857.89C2208.38 2845.65 2192.12 2851.3 2176.04 2860.39C2175.15 2860.89 2174.21 2861.31 2173.29 2861.77C2173.75 2862.23 2174.21 2862.69 2174.67 2863.15" stroke="black" stroke-width="12" stroke-linecap="round" stroke-linejoin="round"/>
<path d="M3255.84 4047.62C3179.21 4062.91 3104.83 4131.43 3089.98 4196.23C3082.36 4229.51 3102.97 4259.05 3140.16 4257.24C3169.74 4255.8 3194.08 4244.48 3217.52 4226.99C3257.53 4197.14 3290.69 4162.51 3305.25 4113.68C3319.83 4064.81 3309.29 4050.6 3258.59 4047.62" stroke="black" stroke-width="12" stroke-linecap="round" stroke-linejoin="round"/>
<path d="M4487.94 4361.93C4469.98 4355.03 4450.25 4355.45 4432.81 4344.66C4405.48 4327.75 4389.05 4306.09 4387.72 4273.24C4386.99 4255.09 4393.86 4240.64 4409.17 4233.48C4424.47 4226.33 4441.77 4226.78 4457.28 4236.16C4491.73 4256.98 4497.08 4290.78 4495.79 4326.45C4493.79 4381.52 4463.77 4423.45 4428.16 4461.83C4358.47 4536.92 4269.87 4577.41 4171.87 4600.79C4124.05 4612.2 4075.53 4616.59 4026.67 4618.13C4012.2 4618.59 3997.65 4616.22 3983.13 4615.14" stroke="black" stroke-width="12" stroke-linecap="round" stroke-linejoin="round"/>
<path d="M4528.25 3942.61C4554.84 3968.52 4577.87 3996.48 4597.27 4028.93C4612.64 4054.64 4625.33 4080.25 4631.14 4108.79C4646.04 4181.93 4637.97 4250.83 4587.9 4310.31C4565.83 4336.53 4538.06 4353.11 4504.04 4358.57C4500.98 4359.06 4497.61 4357.63 4494.38 4357.1" stroke="black" stroke-width="12" stroke-linecap="round" stroke-linejoin="round"/>
<path d="M4525.03 3936.16C4530.09 3940.72 4524.64 3944.15 4523.22 3947.36C4507.41 3983.22 4499.58 4021.58 4488.05 4058.77C4487.64 4060.09 4489.01 4061.95 4489.54 4063.57" stroke="black" stroke-width="12" stroke-linecap="round" stroke-linejoin="round"/>
<path d="M4595.99 4031.31C4562.09 4044.12 4528.09 4056.81 4492.68 4064.77C4485.61 4066.36 4482.56 4067.87 4483.1 4074.86" stroke="black" stroke-width="12" stroke-linecap="round" stroke-linejoin="round"/>
<path d="M3925.07 3970.03C3910.01 3975.92 3893.94 3978.12 3879.63 3987.33C3861.01 3999.31 3850.54 4016.27 3846.43 4036.23C3834.94 4092.07 3828.9 4148.75 3823.09 4205.45C3821.26 4223.33 3817.6 4241.44 3822.3 4258.59C3830.32 4287.84 3851.98 4304.95 3879.88 4315.26C3910.66 4326.64 3942.92 4330.31 3975.08 4334.4C4012.65 4339.19 4050.24 4345.13 4087.99 4346.89C4131.96 4348.95 4176.12 4354.74 4220.21 4347.44C4263.35 4340.29 4292.45 4312.39 4300.61 4266.74C4310.91 4209.08 4321.95 4151.44 4323.45 4092.6C4323.66 4084.52 4326.92 4077.24 4325.5 4068.33C4318.78 4026.38 4300.77 4007.67 4258.92 4002.29C4191.72 3993.65 4124.58 3984.51 4057.3 3976.68C4013.97 3971.63 3970.43 3968.13 3926.68 3970.03" stroke="black" stroke-width="12" stroke-linecap="round" stroke-linejoin="round"/>
<path d="M3598 905.315C3554.52 905.315 3511.02 904.888 3467.56 905.435C3424.06 905.982 3380.61 907.928 3337.11 908.498C3267.55 909.409 3197.95 909.235 3128.41 910.374C3069.25 911.343 3010.13 913.516 2951 915.156" stroke="black" stroke-width="12" stroke-linecap="round" stroke-linejoin="round"/>
<path d="M3590 1017.31C3546.52 1017.31 3503.02 1016.89 3459.56 1017.43C3416.06 1017.98 3372.61 1019.93 3329.11 1020.5C3259.55 1021.41 3189.95 1021.24 3120.41 1022.37C3061.25 1023.34 3002.13 1025.52 2943 1027.16" stroke="black" stroke-width="12" stroke-linecap="round" stroke-linejoin="round"/>
<path d="M3582 1129.31C3538.52 1129.31 3495.02 1128.89 3451.56 1129.43C3408.06 1129.98 3364.61 1131.93 3321.11 1132.5C3251.55 1133.41 3181.95 1133.24 3112.41 1134.37C3053.25 1135.34 2994.13 1137.52 2935 1139.16" stroke="black" stroke-width="12" stroke-linecap="round" stroke-linejoin="round"/>
<path d="M1594.85 2067.02C1589.1 2082.3 1595.2 2097.6 1597.23 2112.07C1604.62 2164.65 1608.63 2217.42 1605.59 2270.2C1602.72 2319.94 1577.27 2355.02 1527.09 2368.52C1518.66 2370.79 1509.96 2372.2 1501.3 2373.37C1485.21 2375.55 1480.61 2380.82 1480.31 2397.64C1479.57 2438.02 1485.71 2478.2 1483.58 2518.6C1483.25 2524.88 1485.17 2531.75 1477.42 2536.97C1464.38 2532.56 1454.93 2522.4 1444.63 2512.38C1407.37 2476.14 1375.19 2435.49 1341.74 2395.95C1331.25 2383.55 1320.01 2378.17 1302.84 2380.97C1283.89 2384.06 1264.14 2382.72 1244.88 2382.62C1177.55 2382.27 1110.61 2392.64 1043.28 2389.46C976.945 2386.31 957.452 2367.46 942.055 2308.84C933.244 2275.29 931.703 2240.31 928.618 2205.73C926.118 2177.71 920.396 2149.87 919.556 2121.84C918.411 2083.63 907.016 2045.59 914.569 2007.41C923.845 1960.52 950.29 1946.89 991.678 1944.73C1019.56 1943.27 1047.6 1945.28 1075.52 1944.29C1158.84 1941.36 1242.21 1942.63 1325.5 1940.57C1382.57 1939.16 1439.48 1941.78 1496.47 1941.76C1526.79 1941.75 1550.97 1956.8 1565.9 1984.72C1578.14 2007.61 1586.24 2031.7 1590.17 2057.32C1590.61 2060.19 1593.24 2062.72 1594.85 2065.41" stroke="black" stroke-width="12" stroke-linecap="round" stroke-linejoin="round"/>
<path d="M1396.97 2056.31C1370.09 2056.31 1343.2 2055.89 1316.34 2056.43C1289.44 2056.97 1262.58 2058.88 1235.69 2059.44C1192.69 2060.34 1149.67 2060.17 1106.67 2061.29C1070.1 2062.24 1033.56 2064.38 997 2065.99" stroke="black" stroke-width="12" stroke-linecap="round" stroke-linejoin="round"/>
<path d="M1446.97 2139.31C1420.09 2139.31 1393.2 2138.89 1366.34 2139.43C1339.44 2139.97 1312.58 2141.88 1285.69 2142.44C1242.69 2143.34 1199.67 2143.17 1156.67 2144.29C1120.1 2145.24 1083.56 2147.38 1047 2148.99" stroke="black" stroke-width="12" stroke-linecap="round" stroke-linejoin="round"/>
<path d="M1550.97 2244.31C1524.09 2244.31 1497.2 2243.89 1470.34 2244.43C1443.44 2244.97 1416.58 2246.88 1389.69 2247.44C1346.69 2248.34 1303.67 2248.17 1260.67 2249.29C1224.1 2250.24 1187.56 2252.38 1151 2253.99" stroke="black" stroke-width="12" stroke-linecap="round" stroke-linejoin="round"/>
<path d="M2480.5 4342.16L2301 4276.16" stroke="black" stroke-width="12"/>
<path d="M2481 4345.16C2528.39 4342.88 2541.19 4333.58 2533 4299.16" stroke="black" stroke-width="12"/>
<path d="M3246 2016.16L3304 2086.16L3374 2230.16L3686 1892.16L3770 1828.16L3856 1796.16L4032 1762.16L4100 1828.16L4076 1924.16L4100 2004.16L4162 2086.16L4234 2118.16L4356 2066.16L4448 1988.16L4518 1902.16L4576 1796.16L4764 1892.16L4938 2016.16L5148 2363.16L5222 2568.16L5234 2766.16L5180 2842.16L5088 2888.16L5006 2928.16L4918 2942.16L4726 2967.16H4622L4499 2921.66L4514 2876.16L4530 2762.16L4499 2678.16L4460 2668.16L4272.5 2601.16L4206 2350.16L3798 2456.16L3948 3034.16L4094 3014.16L4234 2967.16L4277.5 2962.66L4324.5 2959.16L4370 2943.16L4431.5 2919.16L4463.5 2912.66L4499 2921.66L4546.5 2945.66L4598 2967.16L4670 2973.16L4726 2976.66V2992.16L4714 3092.16L4722.5 3136.66L4735.5 3172.16L4733 3191.16L4726 3204.16L4705.5 3225.66L4590.5 3268.16L4479.5 3299.16L4370 3308.66L4166.5 3299.16L3962.5 3259.16L3892 3243.66L3822 3217.66L3762 3192.16L3702 3156.16L3688.5 3145.66L3681.5 3127.16L3678.5 3105.16V3084.16L3681.5 3066.66L3688.5 3054.16L3697 3041.66L3710.5 3029.66L3706.5 2982.66L3710.5 2929.16L3714 2819.66V2703.66L3736 2498.16L3550 2668.16L3426 2750.16H3286L3220 2716.16L3145.5 2630.66L3082 2532.16L3002 2408.16L2967 2292.16L2943.5 2212.66L2967 2165.66L3117 2109.66L3246 2016.16Z" fill="#F80000" fill-opacity="0.33"/>
<path d="M1796 3154.16L1822 3166.16L1842 3237.16L1882 3290.16L1960 3348.16L2066 3378.16L2168 3367.16L2216 3319.16L2207 3216.16L2216 3154.16L2278 3172.16L2397 3194.16L2449 3199.16L2500 3210.16L2540 3223.16L2578 3245.16L2625 3280.16L2681 3353.16L2743 3449.16L2770 3494.16L2792 3526.16L2822 3544.16L2839 3480.16L2856 3437.16L2890 3419.16L2893 3445.16L2933 3486.16L2999 3531.16L3093 3549.16L3141 3554.16L3168 3526.16L3184 3554.16L3086 3792.16L3072 3808.16L2980 3847.16L2823.5 4089.66L2805.5 4117.16L2788 4143.66L2750.5 4181.16L2717 4193.16H2663L2618.5 4197.66H2580.5L2568 4178.16L2478 4104.16L2435 4061.16H2372L2309 4044.16L2272 4041.66L2201 4055.66L2147.5 4067.66L2098.5 4070.16L2053.5 4119.16L2019.5 4192.66L2010 4228.66V4264.66L2014 4296.66L2023.5 4331.16L2010 4348.16L1995 4359.66L1956.5 4369.66L1910 4362.16L1842 4359.66L1765.5 4357.66L1660.5 4350.16L1578 4341.66L1515 4334.16L1364.5 4310.66L1298.5 4293.66L1248 4276.16L1219 4263.66L1192 4244.66L1174.75 4229.41L1157.5 4214.16L1126.5 4174.16L1109 4119.16L1096 4036.16L1120 3896.16L1136 3823.16L1198 3666.66L1278 3510.16L1344 3405.16L1434 3331.16L1756 3194.16L1796 3154.16Z" fill="#817CFF" fill-opacity="0.33"/>
</svg>
