<svg width="4528" height="4447" viewBox="0 0 4528 4447" fill="none" xmlns="http://www.w3.org/2000/svg">
<path fill-rule="evenodd" clip-rule="evenodd" d="M2152.17 302.596C2654.49 209.767 3187.44 343.476 3579.61 670.831C3945.5 976.253 3998.69 1476.02 4112.42 1938.88C4239.35 2455.45 4547.95 3014.84 4266.48 3466.2C3980.55 3924.72 3350.51 3995.97 2810.98 4025.86C2342.07 4051.83 1925.56 3852.45 1518.4 3618.4C1051.99 3350.29 459.911 3130.9 341.242 2606.16C220.6 2072.71 623.219 1584.67 961.231 1154.7C1274.85 755.773 1653.18 394.809 2152.17 302.596Z" fill="#FFC935" fill-opacity="0.15"/>
<path d="M3049 3494.16L3105 3480.16L3270 3494.16L3446 3519.16L3473 3536.16L3491 3580.16L3478 3692.16L3461 3788.16L3446 3821.16L3409 3854.16L3350 3859.16H3270L3188 3849.16L3088 3837.16L3036 3821.16L3006 3800.16L2983 3763.16L3016 3528.16L3049 3494.16Z" fill="#85C4F9" fill-opacity="0.5"/>
<path d="M2149.5 3361.66L2918 3330.16L2937 3361.66L2588 3900.16L2562.5 3923.16L2519 3938.16L2189 3958.16L1851.5 3970.16H1761L1660 3958.16L1335.5 3899.16L1315 3875.66L1374 3846.16L1492.5 3866.16L1593.5 3889.16L1634.5 3882.16L1645 3855.66L1700 3846.16V3808.66L1750 3820.66H1781.5L1793.5 3793.16L1707.5 3721.16L1733 3698.66L1744.5 3708.16L1787 3713.66L1833.5 3708.16H1890.5L1932.5 3689.16L2149.5 3361.66Z" fill="#D9D9D9"/>
<path d="M2970.5 1976.66L3367 1864.66L3434.5 2127.16L3410.5 2140.16L3287.5 2158.16L3180 2191.16L3169.5 2214.66L3180 2258.16L3169.5 2291.66L3212.5 2332.66L3200.5 2358.16L3247 2394.16L3239 2427.66L3287.5 2451.66L3378 2476.16L3304.5 2508.16L3116 2541.66L2970.5 1976.66Z" fill="#F9E728" fill-opacity="0.45"/>
<path d="M100.5 1478.66L115.5 1464.66L152 1458.66L406.5 1456.16L565.5 1452.16L679 1456.16L709.5 1471.66L727.5 1492.16L739.5 1515.16L756.5 1575.66L767.5 1677.66V1798.16L756.5 1837.16L733 1858.66L703 1873.66L645 1888.66L647.5 2031.16L643 2046.16L625.5 2038.16L490 1890.66H473.5H388.5L256.5 1901.16L185 1897.16L147 1885.16L121 1858.16L100.5 1784.16L90 1671.16L81 1547.16V1505.16L100.5 1478.66Z" fill="#87FF95" fill-opacity="0.5"/>
<path d="M2092 238.656L2220 230.156L2449.5 225.156L2605 230.156L2757.5 251.156L2832 286.156L2866 353.156L2883.5 414.156V567.156L2876 729.156L2855 779.156L2825 819.156L2768 839.156H2729V1041.16L2641 981.656L2559.5 867.156L2416.5 880.156L2128 867.156L2047 843.156L2005 799.156L1988 739.156L1976.5 678.156L1956.5 532.656L1948 414.156L1952 335.656L1965.5 302.156L1991 275.656L2023 257.656L2092 238.656Z" fill="#85C4F9" fill-opacity="0.5"/>
<path d="M2845 2731.16L2990.5 2812.16L3285.5 2889.66H3574L3792 2851.16L3889.5 2801.66L3912 3019.16V3226.16L3875 3257.16L3809 3282.16L3739 3297.16H3554L3370 3275.16L3189 3242.16L2990.5 3199.16L2887 3168.16L2825 3142.16L2785 3115.16L2760 3092.16L2845 2731.16Z" fill="#D2B48C" fill-opacity="0.71"/>
<path d="M1919.51 528.582C1846.13 565.222 1780.07 611.138 1726.47 674.388C1665.02 746.884 1624.25 828.316 1607.78 922.406C1599.93 967.252 1594.9 1012.08 1590.33 1057.32C1585.67 1103.5 1585 1149.46 1587.14 1195.15C1589.47 1244.82 1591.41 1294.9 1602.19 1344.06C1605.65 1359.83 1602.73 1376.99 1602.73 1396.43C1560.64 1374.81 1520.33 1352.34 1476.1 1338.17C1383.07 1308.35 1290.12 1296.51 1192.06 1315.12C1105.2 1331.59 1026.33 1366.03 947.098 1401.69C925.336 1411.48 903.083 1420.19 881.022 1429.31C871.409 1433.28 861.422 1436.07 853.609 1426.47C846.596 1417.86 841.565 1409.98 844.45 1396.11C851.415 1362.63 854.602 1328.35 858.944 1294.35C864.783 1248.62 869.728 1202.92 870.686 1156.64C871.281 1127.89 884.64 1122.23 914.026 1134.73C974.28 1160.34 1032.07 1190.88 1087.55 1225.61C1124.67 1248.85 1161.08 1273.24 1197.81 1297.11" stroke="black" stroke-width="12" stroke-linecap="round" stroke-linejoin="round"/>
<path d="M2891.83 401.784C2890.3 402.462 2888.2 401.869 2886.37 401.867C2871.71 391.449 2877.08 374.307 2872.87 360.464C2850.39 286.377 2794.64 254.39 2723.82 242.246C2565.78 215.147 2406.21 225.977 2247.31 226.942C2183.14 227.331 2117.92 230.915 2054.37 247.2C1969.11 269.05 1948.82 307.216 1947.28 379.837C1945.78 450.842 1950.71 521.437 1960.15 592.025C1968.46 654.176 1976.6 715.879 1993.08 776.707C2004.69 819.524 2032.02 840.672 2070.94 853.829C2113.97 868.377 2158.4 872.862 2203.23 875.638C2258.27 879.046 2313.27 883.289 2368.5 881.203C2421.75 879.192 2475.01 876.716 2528.27 876.312C2538.91 876.232 2543.59 866.53 2553.06 867.393" stroke="black" stroke-width="12" stroke-linecap="round" stroke-linejoin="round"/>
<path d="M3435.9 2128.99C3407.66 2058.9 3400.31 1983.37 3379.2 1911.45C3368.15 1873.78 3356.53 1868.87 3318.83 1881.07C3222.05 1912.38 3122.3 1932.33 3024.07 1958.11C2980.72 1969.49 2967.7 1987.68 2983.31 2029.63C3021.35 2131.86 3041.78 2238.63 3067.89 2343.92C3079.63 2391.26 3087.58 2439.52 3098.69 2487.04C3109.59 2533.71 3125.08 2545.46 3169.98 2536.17C3230.13 2523.71 3293.18 2518.7 3348.49 2491.29C3385.09 2473.16 3421.05 2472.31 3459.26 2469.72C3502.78 2466.78 3543.05 2447.37 3582.9 2431.08C3620.44 2415.73 3650.51 2414.07 3685.98 2439.14C3724.82 2466.59 3771.95 2479.56 3820.18 2481.2C3870.62 2482.91 3921.56 2485.6 3971.58 2480.67C4053.38 2472.59 4134.28 2456.95 4211.26 2426.34C4258.06 2407.73 4303 2384.31 4343.04 2354.21C4388.34 2320.17 4403.89 2268.97 4406.64 2214.37C4410.72 2133.5 4389.15 2057.82 4360.59 1982.8C4311.4 1853.66 4243.84 1734.16 4172.17 1616.99C4120.01 1531.72 4048.9 1464.19 3960.7 1415.47C3888.05 1375.34 3815.63 1334.84 3740.31 1299.81C3722.88 1291.71 3715.31 1273.42 3701.72 1261.3" stroke="black" stroke-width="12" stroke-linecap="round" stroke-linejoin="round"/>
<path d="M1657.82 1624.9C1705.5 1752.5 1772.73 1868.31 1861.37 1972.22C1976.46 2107.14 2117.29 2207.59 2271.81 2292.02C2410.23 2367.66 2555.36 2426.44 2704.63 2475.87C2750.11 2490.93 2796.29 2503.92 2842.38 2517.08C2850.02 2519.26 2858.82 2517.39 2867.08 2517.39" stroke="black" stroke-width="12" stroke-linecap="round" stroke-linejoin="round"/>
<path d="M2624.68 3858.87C2601.27 3889.47 2580.47 3922.19 2539.46 3933.84C2522.02 3938.8 2505.2 3943.18 2486.97 3944.58C2380.58 3952.72 2273.76 3949.96 2167.3 3959.47C2122.78 3963.45 2077.52 3967.12 2032.45 3966.19C1969.9 3964.88 1907.76 3972.9 1845.13 3972.54C1756 3972.04 1668.16 3965.33 1580.55 3947.75C1504.47 3932.48 1427.79 3920.06 1352.14 3902.63C1336.11 3898.93 1317.47 3895.41 1316.25 3872.64" stroke="black" stroke-width="9" stroke-linecap="round" stroke-linejoin="round"/>
<path d="M958.159 297.195C920.138 315.001 903.576 353.166 878.763 382.992C781.678 499.692 687.646 618.955 583.507 729.636C557.644 757.123 559.91 763.865 597.269 776.609C720.331 818.585 841.405 865.661 961.038 916.684C1076.15 965.78 1192.34 1012.36 1307.89 1060.45C1315.98 1063.81 1322.68 1064.24 1330.73 1060.16C1317.92 1008.71 1293.04 961.949 1271.28 914.638C1204.67 769.877 1142.2 623.115 1068.27 481.792C1040.27 428.289 1011.51 375.188 982.86 322.035C977.549 312.183 970.97 303.05 960.914 297.195" stroke="black" stroke-width="12" stroke-linecap="round" stroke-linejoin="round"/>
<path d="M2401.55 2550.44C2442.03 2552.83 2460.86 2586.14 2451.92 2627.74C2441.48 2676.31 2422.98 2722.45 2412.95 2770.88C2408.86 2790.62 2406.42 2811.35 2407.55 2831.38C2410.38 2881.12 2386.67 2919.15 2357.45 2955.34C2334.57 2983.67 2325.33 3011.72 2347.03 3046.77C2359.44 3066.81 2344.63 3090.07 2337.3 3109.28C2316.94 3162.61 2292.19 3214.25 2269.41 3266.66C2264.31 3278.38 2259.1 3290.22 2255.77 3302.5C2247.23 3333.94 2127.72 3360.16 2160.5 3360.25C2209.16 3360.39 2385.97 3345.34 2434.6 3343.58C2489.72 3341.59 2544.77 3337.61 2599.89 3335.64C2691.69 3332.36 2783.52 3329.84 2875.35 3327.41C2888.17 3327.07 2901.07 3328.88 2913.9 3330.03C2933.23 3331.76 2938.13 3343.48 2933.07 3360.25C2922.34 3395.85 2896.81 3422.95 2877.89 3453.82C2856.74 3488.33 2621.93 3851.18 2599.89 3885.16" stroke="black" stroke-width="12" stroke-linecap="round" stroke-linejoin="round"/>
<path d="M1374.1 2688.17C1363.21 2709.29 1369.99 2730.14 1373.71 2751.59C1378.44 2778.86 1387.5 2807.49 1373.68 2833.94C1356.23 2867.35 1322.78 2880.3 1288.65 2883C1187.56 2890.99 1100.34 2859.58 1032.69 2781.69C1013.07 2759.09 1001.32 2732.48 999.391 2701.95C997.546 2672.69 969.042 2656.35 947.565 2674.89C861.691 2749.02 753.071 2774.69 652.632 2818.17C573.403 2852.47 507.312 2903.49 461.933 2979.92C392.543 3096.78 337.578 3219.71 297.082 3349.28C276.89 3413.88 263.936 3480.64 262.441 3547.63C260.082 3653.28 292.84 3740.92 418.352 3792.54C466.839 3812.48 518.051 3822.82 569.709 3831.64C629.174 3841.8 688.683 3850.93 748.8 3856.23C793.846 3860.21 838.7 3867.03 883.808 3869.47C947.993 3872.94 1012.33 3873.76 1076.61 3875.24C1090.7 3875.56 1103.43 3881.62 1117.93 3881.43C1150.02 3881.01 1176.06 3871.69 1192.3 3842.34C1157.24 3766.87 1186.4 3643.85 1255.65 3597.18" stroke="black" stroke-width="12" stroke-linecap="round" stroke-linejoin="round"/>
<path d="M3894.54 2489.84C3898.15 2518.92 3888.27 2546.71 3885.42 2575.15C3882.22 2607.1 3883.24 2636.82 3897.08 2666.23C3912.02 2697.98 3897.12 2729.63 3864.32 2743.45C3799.03 2770.95 3732.59 2794.73 3663.13 2809.24C3645.86 2812.85 3628.33 2815.41 3610.8 2817.54C3552.23 2824.67 3493.64 2827.51 3434.5 2823.51C3340.55 2817.15 3248.12 2802.05 3156.28 2781.97C3079.18 2765.12 3004.13 2742.98 2932.94 2707.97C2908.47 2695.94 2886.4 2680.15 2862.22 2667.64C2837.39 2654.79 2830.81 2592.56 2848.4 2567.39C2854.74 2558.33 2859.99 2546.11 2872.59 2542.18" stroke="black" stroke-width="12" stroke-linecap="round" stroke-linejoin="round"/>
<path d="M2131.61 1663.47C2093.7 1705.12 2097.47 1770.61 2140.09 1806.89C2132.15 1853.21 2151.71 1894.02 2170.83 1933.1C2220.83 2035.27 2282.13 2130.31 2365.97 2208.64C2400.14 2240.56 2436.36 2267.99 2486.86 2273.09C2544.47 2278.9 2596 2263.41 2643.61 2235.81C2720.42 2191.28 2780.46 2127.62 2834.51 2057.75C2845.95 2042.96 2857.87 2024.88 2880.86 2024.32" stroke="black" stroke-width="12" stroke-linecap="round" stroke-linejoin="round"/>
<path d="M264.005 2583.5C237.337 2647.3 220.904 2713.65 208.16 2781.68C188.83 2884.87 183.08 2988.69 184.398 3093.09C185.723 3197.98 199.121 3300.61 246.748 3396.46C253.305 3409.66 259.207 3420.22 272.269 3426.4" stroke="black" stroke-width="12" stroke-linecap="round" stroke-linejoin="round"/>
<path d="M1993.88 2095.94C1992.26 1932.16 1919.3 1804.46 1795.62 1701.94C1703.96 1625.97 1597.6 1584.91 1481.6 1563.88C1404.67 1549.94 1327.63 1543.74 1250.19 1553.61C1108.13 1571.73 975.651 1616.36 858.996 1702.03C841.53 1714.86 824.102 1727.74 806.656 1740.6" stroke="black" stroke-width="12" stroke-linecap="round" stroke-linejoin="round"/>
<path d="M3732.02 1299.86C3693.89 1421.88 3618.91 1515.5 3511.5 1583.35C3469.83 1609.68 3423.42 1622.19 3373.97 1616.28C3338.06 1611.98 3310.86 1593.25 3290.97 1561.74C3240.95 1482.5 3233.51 1401.26 3274.76 1316.39" stroke="black" stroke-width="12" stroke-linecap="round" stroke-linejoin="round"/>
<path d="M980.193 2682.66C977.438 2685.42 974.709 2688.2 971.925 2690.92C930.212 2731.74 928.316 2737.4 964.302 2792.43C1019.05 2876.16 1100.03 2928.42 1195.38 2951.24C1288.44 2973.51 1378.38 2950.12 1429.09 2850.64C1450.67 2808.33 1441.4 2740.91 1409.85 2704.75C1403.18 2697.11 1396.08 2689.85 1385.13 2688.09C1373.95 2686.29 1373.32 2677.86 1374.1 2668.89" stroke="black" stroke-width="12" stroke-linecap="round" stroke-linejoin="round"/>
<path d="M2850.55 2729.49C2830.31 2736.03 2838.37 2756.24 2835.38 2768.38C2812.78 2860.05 2793.85 2952.62 2767.95 3043.52C2755.53 3087.07 2765.68 3110.08 2806.44 3134.47C2859.49 3166.21 2918.7 3182.1 2977.46 3196.99C3060.34 3217.99 3143.31 3239.17 3227.89 3253.1C3280.31 3261.73 3332.13 3273.41 3384.78 3281.47C3453.51 3291.99 3522.16 3301.3 3591.54 3301.96C3647.53 3302.5 3703.85 3307.23 3759.56 3296.89C3806.52 3288.17 3851.58 3273.75 3891.65 3247.14C3916.97 3230.31 3918.95 3202.01 3918.89 3175.73C3918.66 3073.66 3915.9 2971.6 3905.27 2870C3901.59 2834.92 3894.24 2800.23 3889.22 2765.27C3887.8 2755.35 3881.42 2749.62 3875.26 2743.26" stroke="black" stroke-width="12" stroke-linecap="round" stroke-linejoin="round"/>
<path d="M2883.61 421.152C2884.52 490.935 2888.01 560.814 2885.39 630.464C2883.84 671.804 2881.51 713.729 2870.25 754.57C2856.36 804.939 2819.54 826.135 2773.37 836.867C2758.86 840.241 2744.64 845.772 2728.14 841.788C2721.92 911.725 2733.81 977.555 2735.66 1043.82C2634.7 1026.51 2499.98 803.536 2495.21 647.028" stroke="black" stroke-width="12" stroke-linecap="round" stroke-linejoin="round"/>
<path d="M1982.86 3049.02C1948.58 3032.83 1938.67 2997.09 1919.89 2968.88C1885.45 2917.14 1856 2862.32 1815.23 2814.54C1762.39 2752.61 1697.19 2717.76 1616.59 2706.81C1559.51 2699.06 1501.66 2694.99 1445.73 2679.84C1359.34 2656.45 1272.25 2634.91 1189.71 2599.63C1148.68 2582.1 1112.48 2556.23 1082.05 2522.96C1073.29 2513.38 1064.06 2504.19 1054.47 2495.46C1046.71 2488.4 1037.24 2482.78 1027.2 2490.09C1018.52 2496.41 1021.4 2504.79 1023.66 2514.77C1032.77 2555.03 1032.64 2595.69 1021.46 2635.82C1016.59 2653.29 1010.78 2670.33 991.211 2677.15" stroke="black" stroke-width="12" stroke-linecap="round" stroke-linejoin="round"/>
<path d="M1365.84 1823.23C1317.08 1775.65 1260.66 1755.77 1192.14 1770.12C1169.7 1774.83 1146.15 1769.71 1125.38 1786.42C1118.58 1791.89 1101.99 1783.34 1090.43 1785.02C967.304 1802.81 868.749 1859.58 809.878 1972.23C758.526 2070.49 754.932 2213.63 831.471 2305.27C833.129 2307.25 835.121 2308.96 836.957 2310.79" stroke="black" stroke-width="12" stroke-linecap="round" stroke-linejoin="round"/>
<path d="M674.435 3464.96C668.264 3435.39 641.928 3436.87 622.042 3435.45C557.702 3430.89 493.958 3437.18 432.063 3456.79C422.661 3459.78 411.326 3461.74 404.975 3468.2C391.872 3481.52 369.516 3491.62 379.718 3517.29C390.301 3543.91 418.849 3562.05 445.783 3558.45C459.912 3556.56 472.443 3550.17 484.458 3542.22C528.774 3512.9 575.973 3489.88 627.485 3475.54C643.102 3471.2 660.252 3478.56 674.435 3467.72" stroke="black" stroke-width="12" stroke-linecap="round" stroke-linejoin="round"/>
<path d="M2024.18 1324.66C2014.25 1265.43 1994.27 1209.06 1970.77 1154.33C1963.97 1138.48 1946.02 1124.9 1929.94 1116.42C1918.64 1110.45 1906.4 1118.57 1899.6 1134.32C1885.39 1167.24 1897.25 1198.41 1909.79 1224.87C1938.03 1284.49 1958.25 1345.79 1972.24 1409.96C1982.63 1457.58 2012.68 1495.59 2040.88 1533.87C2058.3 1557.52 2074.9 1582.69 2096.35 1602.26C2135.33 1637.85 2142.88 1686.17 2156.15 1732.4C2163.63 1758.46 2146.27 1779.01 2137.12 1801.2" stroke="black" stroke-width="12" stroke-linecap="round" stroke-linejoin="round"/>
<path d="M1544.88 2123.48C1536.88 2104.09 1537.63 2080.94 1522.1 2064.68C1501.17 2069.36 1501.03 2083.78 1500.73 2098.69C1499.27 2170.55 1519.27 2239.86 1525.69 2310.79C1531.09 2370.57 1518.26 2426.66 1495.67 2481.73C1478.07 2524.64 1461.59 2567.31 1426.76 2600.37C1412.12 2614.26 1395.52 2621.67 1376.79 2624.38C1364.69 2626.14 1355.34 2631.11 1346.55 2638.59" stroke="black" stroke-width="12" stroke-linecap="round" stroke-linejoin="round"/>
<path d="M1999.39 2117.97C1992.04 2161.13 1987.51 2204.99 1976.86 2247.31C1934.53 2415.44 1859.26 2561.97 1701.97 2652.48C1700.48 2653.34 1700.06 2656.03 1699.14 2657.87" stroke="black" stroke-width="12" stroke-linecap="round" stroke-linejoin="round"/>
<path d="M4029.51 2095.94C4031.35 2103.28 4030.8 2113.01 4035.39 2117.61C4087.46 2169.87 4132.63 2230.45 4203.1 2261.1C4219.63 2268.29 4236.99 2273.95 4255.37 2272.09C4279.63 2269.63 4286.99 2254.56 4274.64 2233.68C4254.19 2199.09 4222.85 2175.45 4192.2 2150.82C4162.3 2126.79 4126.4 2112.95 4094.67 2091.86C4082.02 2083.44 4059.23 2079.8 4040.56 2087.73C4022.97 2095.21 4007.91 2090.09 3993.7 2079.41" stroke="black" stroke-width="12" stroke-linecap="round" stroke-linejoin="round"/>
<path d="M3886.27 2795.6C3823.51 2846.18 3746.64 2860.22 3671.39 2878.12C3581.53 2899.51 3489.89 2896.33 3398.73 2894.01C3353.63 2892.86 3308.26 2886.21 3263.83 2877.76C3144.61 2855.09 3027.25 2825.21 2916.83 2773.21C2902.77 2766.59 2891.09 2755 2878.07 2746.06C2841.59 2721 2839.41 2711.46 2861.57 2671.64" stroke="black" stroke-width="12" stroke-linecap="round" stroke-linejoin="round"/>
<path d="M600.061 2040.84C580.823 2078.03 572.78 2118.43 567.147 2159.31C559.724 2213.19 555.062 2267.36 556.199 2321.81C556.582 2340.1 542.552 2344.38 531.239 2352.17C477.535 2389.16 418.73 2417.47 363.207 2451.34C347.341 2461.02 331.949 2471.48 316.34 2481.58" stroke="black" stroke-width="12" stroke-linecap="round" stroke-linejoin="round"/>
<path d="M1707.4 2878.24C1700.46 2890.17 1707.57 2902.11 1707.49 2914.05C1706.93 2997.22 1716.2 3079.79 1727.36 3161.87C1740.56 3258.94 1746.22 3356.5 1754.57 3453.92C1756.12 3472.06 1760.11 3489.69 1769.91 3506.77C1779.48 3523.44 1774.93 3544.99 1780.83 3564.41C1789.9 3594.29 1802.99 3620.38 1825.92 3641.18C1861.62 3673.57 1902.43 3668.18 1924.95 3616.44C1933.72 3596.3 1936.1 3574.76 1935.9 3553.11C1935.36 3495.26 1933.97 3437.42 1933.34 3379.57C1932.8 3328.45 1945.45 3278.62 1949.29 3228.03C1955.17 3150.47 1986.23 3078.69 1997.71 3002.36C2002.37 2971.43 2009.07 2935.54 2048.97 2925.07" stroke="black" stroke-width="12" stroke-linecap="round" stroke-linejoin="round"/>
<path d="M2390.54 1503.7C2391.86 1461.11 2407.13 1421.37 2422.11 1383C2436.84 1345.26 2435.9 1312.59 2418.27 1277.73C2400.82 1243.22 2393.02 1206.56 2398.76 1167.64C2404.67 1127.6 2398.71 1112.29 2376.77 1109.8C2346.37 1106.35 2319.61 1128.88 2316.36 1162.15C2313.75 1188.88 2316.64 1214.89 2329.72 1239.38C2338.22 1255.29 2344.81 1272.24 2351.91 1288.87C2356.35 1299.28 2359.08 1310.77 2349 1318.88C2338.33 1327.46 2331.56 1317.39 2324.4 1310.92C2293.49 1282.99 2278.02 1245.3 2261.38 1208.82C2232.72 1145.98 2206.67 1081.94 2178.07 1019.06C2167.73 996.316 2155.34 973.83 2134.32 958.349C2109.8 940.283 2097.91 943.723 2084.78 972.069" stroke="black" stroke-width="12" stroke-linecap="round" stroke-linejoin="round"/>
<path d="M4101.13 2087.67C4113.44 2074.86 4127.68 2079.38 4142.49 2081.92C4179.09 2088.18 4215.87 2093.5 4252.68 2098.37C4258.73 2099.17 4265.15 2099.23 4272.12 2096.44C4291.02 2088.87 4295.55 2077.2 4279.94 2065.97C4251.4 2045.45 4217.85 2034.48 4183.69 2030.52C4131.03 2024.42 4078.92 2028.65 4029.26 2051.3C4016.64 2057.05 4003.5 2061.04 3993.86 2071.3C3989.8 2075.62 3986.45 2078.2 3980.04 2079.85C3881.48 2105.27 3785.28 2139.42 3685.29 2159.78C3681.75 2160.5 3677.47 2160.58 3674.26 2162.21C3663.45 2167.72 3646.2 2171.27 3650.21 2186.62C3655.29 2206.07 3670.73 2190.72 3679.49 2188.75C3700.66 2184.01 3718.48 2188.86 3731.72 2203.64C3780.3 2257.88 3793.47 2320.49 3773.61 2390.75C3765.58 2419.15 3742.31 2431.08 3721 2445.77" stroke="black" stroke-width="12" stroke-linecap="round" stroke-linejoin="round"/>
<path d="M768.09 3467.71C873.22 3497.75 979.605 3522.4 1087.69 3538.9C1118.47 3543.59 1150.19 3545.7 1181.24 3544.14C1217.64 3542.31 1247.99 3546.37 1261.16 3586.16" stroke="black" stroke-width="12" stroke-linecap="round" stroke-linejoin="round"/>
<path d="M591.797 3120.64C597.153 3232.51 622.545 3336.07 707.899 3416.31C741.85 3400.47 742.08 3373.8 742.833 3349.26C743.817 3317.18 737.875 3284.6 741.411 3252.96C746.335 3208.89 723.83 3163.09 751.047 3120.31C757.474 3110.21 762.835 3099.58 770.589 3090.13C776.935 3082.39 784.472 3080.45 792.829 3082.31C804.4 3084.88 804.065 3094.9 803.882 3104.11C802.88 3154.48 794.732 3203.44 774.976 3250.1" stroke="black" stroke-width="12" stroke-linecap="round" stroke-linejoin="round"/>
<path d="M4029.51 1550.53C3982.89 1601.21 3965.68 1664.71 3952.59 1729.62C3939.92 1792.4 3938.9 1855.8 3943.58 1919.68C3945.79 1949.76 3942.33 1980.25 3941.31 2010.54C3941.18 2014.32 3942.63 2018.21 3938.7 2021.67C3923.07 2035.44 3929.45 2048.97 3941.7 2059.75C3948.53 2065.75 3944.51 2074 3949.63 2079.41" stroke="black" stroke-width="12" stroke-linecap="round" stroke-linejoin="round"/>
<path d="M1707.4 3715.63C1715.21 3708.62 1730.57 3711.31 1729.79 3691.25C1711.43 3670.5 1682.53 3654.2 1657.88 3632.92C1645.59 3622.31 1632.14 3612.33 1622.46 3599.59C1609.95 3583.14 1592.71 3577.66 1575.22 3578.58C1542.18 3580.31 1511.75 3571.1 1481.66 3560.97C1445.37 3548.75 1410.76 3559.92 1377.11 3567.96C1343.11 3576.09 1310.61 3587.83 1274.81 3581.34C1272 3580.84 1261.05 3582.12 1261.16 3591.67" stroke="black" stroke-width="12" stroke-linecap="round" stroke-linejoin="round"/>
<path d="M1947.05 3186.75C1928.78 3193.18 1924.95 3211.5 1917.15 3225.54C1882.64 3287.66 1845.18 3348.58 1833.96 3420.87C1820.75 3505.97 1835.67 3582.23 1900.22 3644.01" stroke="black" stroke-width="12" stroke-linecap="round" stroke-linejoin="round"/>
<path d="M2149 3358.66C2129.01 3402.22 2059.69 3490.1 2035.53 3531.27C2010.22 3574.4 1985.08 3617.45 1955.56 3657.96C1930.61 3692.2 1897.96 3709.56 1856.17 3707.04C1819.98 3704.86 1784.8 3716.22 1748.72 3712.88" stroke="black" stroke-width="12" stroke-linecap="round" stroke-linejoin="round"/>
<path d="M3721 815.057C3683.81 806.63 3660.31 821.509 3641 864.588C3631.44 885.911 3621.54 907.344 3600.63 920.022C3567.27 908.107 3577.78 877.833 3576.71 856.291C3575.86 839.445 3571.74 833.041 3558.63 825.808C3499.36 793.099 3468.07 742.931 3467.62 674.574C3467.53 660.79 3467.2 645.478 3453.5 639.453C3442.21 634.485 3430.07 643.205 3420.97 650.071C3371.12 687.673 3316.7 716.62 3258.17 737.772C3219.75 751.659 3178.78 755.799 3139.51 767.287C3109.27 776.133 3086.06 794.922 3060.05 809.807C3051.52 814.687 3049.95 824.184 3048.03 834.175C3046.27 843.285 3049.32 855.815 3037.69 861.743C2975.12 809.964 2965.83 742.373 3005.56 675.014C3045.51 607.275 3097.44 549.096 3154.62 493.78C3197.83 451.981 3243.87 422.757 3299.68 407.877C3370.6 388.967 3441.61 383.952 3511.94 414.995C3535.46 425.38 3548.81 442.787 3560.98 462.626C3567.32 472.951 3548.88 523.535 3536.44 534.091C3520.73 547.428 3494.69 548.436 3476.02 533.859C3446.52 510.824 3417.82 486.627 3382.14 473.614C3326.88 453.46 3271.79 451.833 3216.77 475.929C3204.14 481.46 3190.72 490.091 3175.59 481.753" stroke="black" stroke-width="12" stroke-linecap="round" stroke-linejoin="round"/>
<path d="M2922.17 1766.77C2911.48 1831.73 2890.89 1894.72 2885.47 1960.89C2883.88 1980.34 2881.97 2000.34 2884.5 2018.69C2894.35 2090.26 2871.38 2159.56 2873.82 2230.96C2876.15 2299.54 2874.35 2368.67 2872.11 2437.49C2871.05 2469.72 2868.21 2501.77 2872.52 2533.93C2873.04 2537.83 2871.66 2542.49 2878.1 2542.18" stroke="black" stroke-width="12" stroke-linecap="round" stroke-linejoin="round"/>
<path d="M3853.22 2828.66C3860.75 2843.42 3861.81 2859.26 3861.54 2875.49C3859.6 2989.34 3857.88 3103.2 3855.88 3217.05C3855.63 3231.2 3857.1 3244.94 3861.48 3258.37" stroke="black" stroke-width="12" stroke-linecap="round" stroke-linejoin="round"/>
<path d="M2059.99 2960.88C2037.84 2994.27 2043.31 3028.21 2057.11 3062.84C2075.13 3108.02 2105.23 3144.47 2148.56 3163.77C2216.85 3194.19 2265.66 3170.3 2294.07 3104.09C2296.35 3098.77 2299.52 3093.04 2299.35 3087.6C2298.48 3060.48 2313.95 3044.64 2335.45 3032.49" stroke="black" stroke-width="12" stroke-linecap="round" stroke-linejoin="round"/>
<path d="M897.557 1875.57C922.848 1908.28 911.191 1943.92 902.51 1977.35C874.675 2084.51 911.937 2203.78 996.926 2269.21C1002.81 2273.74 1009.63 2279.74 1018.76 2277.74" stroke="black" stroke-width="12" stroke-linecap="round" stroke-linejoin="round"/>
<path d="M3192.12 1266.81C3138.34 1280.52 3082.65 1285.44 3029.58 1302.55C2975.63 1319.94 2917.91 1332.92 2881.7 1380.39C2853.88 1416.86 2834.21 1460.35 2829.18 1506.53C2818.44 1605.23 2848.17 1697.15 2883.84 1787.33C2888.44 1798.96 2895.47 1809.98 2908.4 1814.97" stroke="black" stroke-width="12" stroke-linecap="round" stroke-linejoin="round"/>
<path d="M3068.16 812.303C3089.71 860.515 3103.56 909.555 3099.01 963.85C3090.53 1064.94 3119.89 1155.36 3180.34 1237.07C3194.48 1256.18 3207.48 1275.98 3225.43 1291.3C3244.05 1307.18 3265.38 1317.43 3291.37 1308.37C3296.28 1306.66 3302.76 1306.72 3307.74 1308.35C3349.63 1322.08 3383.45 1301.93 3418.06 1283.46C3455.11 1263.68 3489.8 1240.17 3522.35 1214.07C3560.99 1183.08 3587.02 1141.91 3605.19 1095.98C3610.52 1082.49 3614.21 1068.34 3625.3 1056.25C3650.01 1072.68 3671.14 1058.88 3687.25 1042.98C3704.75 1025.71 3718.28 1004.02 3732.86 983.687C3760.34 945.353 3743.2 908.122 3737.46 870.159C3733.58 844.514 3726.76 821.476 3733.1 792.653C3757.98 679.368 3742.06 573.659 3651.84 490.333C3628.46 468.734 3600.9 453.246 3566.74 467.981" stroke="black" stroke-width="12" stroke-linecap="round" stroke-linejoin="round"/>
<path d="M3693.45 1214.47C3701.98 1280.07 3671.85 1333.83 3637.91 1384.95C3594.79 1449.9 3541.28 1506.11 3472.8 1544.51C3400.82 1584.86 3342.11 1550.95 3313.57 1481.57C3303.47 1457.02 3296.24 1431.26 3294.15 1404.53C3293.12 1391.4 3292.76 1378.01 3305.07 1368.74C3314.38 1366.48 3315.36 1375.2 3318.68 1379.86C3351.19 1425.52 3370.05 1477.02 3381.91 1531.31C3383.02 1536.37 3380.35 1542.27 3379.43 1547.78" stroke="black" stroke-width="12" stroke-linecap="round" stroke-linejoin="round"/>
<path d="M1498.06 2082.16C1487.96 2078.49 1477.74 2075.1 1467.77 2071.1C1414.56 2049.73 1347.79 2088.07 1345.89 2156.52C1344.57 2204.09 1367.7 2240.38 1390.71 2277.69C1403.56 2298.54 1420.06 2317.58 1420.93 2343.85" stroke="black" stroke-width="12" stroke-linecap="round" stroke-linejoin="round"/>
<path d="M3161.82 2864.46C3161.82 2945.27 3165.18 3026.26 3160.45 3106.79C3157.97 3148.99 3160.09 3191.59 3153.56 3233.58" stroke="black" stroke-width="12" stroke-linecap="round" stroke-linejoin="round"/>
<path d="M3241.7 2880.99C3239.87 2911.29 3236.92 2941.57 3236.4 2971.9C3234.9 3060.95 3234.38 3150.02 3233.37 3239.09C3233.33 3242.86 3235.21 3247.34 3230.68 3250.11" stroke="black" stroke-width="12" stroke-linecap="round" stroke-linejoin="round"/>
<path d="M3310.57 2892.01C3307.81 2941.59 3304.91 2991.16 3302.34 3040.76C3298.53 3114.21 3294.96 3187.67 3291.29 3261.12" stroke="black" stroke-width="12" stroke-linecap="round" stroke-linejoin="round"/>
<path d="M2244.54 2649.61C2225.48 2657.06 2218.3 2648.36 2219.89 2630.34C2222.91 2596.05 2237.08 2564.43 2245.17 2531.31C2252.29 2502.12 2264.06 2473.97 2275.08 2445.86C2282.71 2426.38 2265.62 2418.07 2257.44 2407.92C2248.77 2397.16 2232.27 2403.82 2222.96 2410.58C2207.7 2421.64 2198.45 2439.3 2192.56 2456.91C2170.56 2522.72 2149.37 2588.82 2129.13 2655.2C2120.23 2684.37 2102.93 2711.24 2104.06 2743.26" stroke="black" stroke-width="12" stroke-linecap="round" stroke-linejoin="round"/>
<path d="M2861.57 1399.03C2848.26 1395.35 2841.82 1405.23 2833.99 1412.77C2762.61 1481.49 2697.49 1555.76 2635.35 1632.89C2611.77 1662.15 2584.32 1688.3 2558.53 1715.77C2553.31 1721.33 2548.26 1727.61 2539.29 1726.82" stroke="black" stroke-width="12" stroke-linecap="round" stroke-linejoin="round"/>
<path d="M1434.7 1798.44C1473.36 1796.45 1496.64 1822.82 1516.74 1848.49C1572.57 1919.78 1586.93 2000.43 1561.31 2087.64C1558.44 2097.38 1556.73 2108.43 1544.88 2112.46" stroke="black" stroke-width="12" stroke-linecap="round" stroke-linejoin="round"/>
<path d="M2029.69 2589.01C2000.52 2597.58 1989.31 2619.25 2002.75 2652.12C2016.53 2685.82 2018.23 2719.36 2013.21 2754.29C2012.82 2756.99 2014.06 2760.2 2013.03 2762.49C1985 2824.81 2011.57 2875.75 2049.69 2921.72C2067.57 2943.28 2096.1 2954.48 2123.5 2960.13C2156.05 2966.84 2181.89 2947.05 2189.32 2914.02C2203.36 2851.54 2173.31 2793.42 2134.5 2759.63C2118.56 2745.75 2102.64 2744.11 2083.98 2754.77C2068.04 2729.49 2079.56 2704.53 2084.95 2679.95C2094.09 2638.24 2073.05 2601.02 2032.44 2589.01" stroke="black" stroke-width="12" stroke-linecap="round" stroke-linejoin="round"/>
<path d="M2679.77 2140.01C2758.61 2009.67 2706.42 1900.26 2613.66 1814.97C2591.58 1818.64 2583.07 1793.12 2561.45 1791.38C2550.23 1790.47 2543.69 1769.86 2542.81 1757.07C2540.87 1728.85 2524.68 1707.17 2514.51 1682.74C2491.3 1626.94 2458.61 1576.37 2425.62 1526.22C2418.4 1515.25 2409.05 1496.06 2387.79 1506.46" stroke="black" stroke-width="12" stroke-linecap="round" stroke-linejoin="round"/>
<path d="M1770.76 2845.18C1789.89 2954.42 1773.39 3061.22 1748.78 3167.48C1747.14 3174.55 1742.7 3179.37 1737.7 3184" stroke="black" stroke-width="12" stroke-linecap="round" stroke-linejoin="round"/>
<path d="M1644.05 3856.11C1631.23 3883.29 1617.58 3889.72 1591.67 3883.82C1522.66 3868.13 1453.01 3855.95 1382.34 3850.83C1366.96 3849.72 1352.72 3856.86 1338.28 3861.6C1288.92 3877.81 1242.44 3869.22 1197.8 3845.09" stroke="black" stroke-width="9" stroke-linecap="round" stroke-linejoin="round"/>
<path d="M1247.39 3569.64C1186.67 3571.11 1139.84 3636.66 1125.69 3701.75C1116.56 3743.7 1122.31 3780.23 1147.71 3815.17C1157.65 3828.84 1168.47 3834.37 1184.03 3834.08" stroke="black" stroke-width="12" stroke-linecap="round" stroke-linejoin="round"/>
<path d="M4109.39 2768.05C4091.27 2777.63 4096.93 2797.61 4090.51 2812.3C4075.16 2847.44 4061.88 2883.48 4044.51 2927.38C4103.56 2915.01 4154.8 2897.05 4209.14 2881.41C4178.86 2837.88 4144.49 2803.83 4112.15 2768.05" stroke="black" stroke-width="12" stroke-linecap="round" stroke-linejoin="round"/>
<path d="M3208.65 743.437C3208.69 716.547 3230.16 704.92 3247.49 691.458C3264.03 678.613 3282.54 668.162 3296.61 652.365C3301.74 646.604 3309.51 640.274 3302.35 630.463C3295.56 621.145 3285.12 623.577 3277.65 625.526C3255.23 631.383 3233.2 639.04 3211.45 647.158C3163.7 664.983 3112.73 679.262 3082.59 724.585C3067.34 747.502 3049.5 772.979 3065.41 804.037" stroke="black" stroke-width="12" stroke-linecap="round" stroke-linejoin="round"/>
<path d="M3429.02 2131.75C3410.67 2149.07 3386.2 2140.67 3365.41 2143.88C3313.92 2151.82 3264.9 2168.64 3214.22 2178.89C3207.33 2180.28 3201.18 2185.72 3194.9 2189.63C3165.83 2207.7 3163.36 2218.99 3181.04 2251.46C3253.86 2252.22 3323.81 2229.77 3395.96 2225.4" stroke="black" stroke-width="12" stroke-linecap="round" stroke-linejoin="round"/>
<path d="M1016 2338.34C993.047 2319.06 971.171 2298.26 946.809 2280.96C925.897 2266.1 901.925 2256.53 875.523 2269.49C847.949 2283.02 840.312 2306.58 839.383 2335.57C837.226 2402.81 859.775 2456.74 916.648 2495.63C949.917 2518.37 983.755 2513.54 1018.76 2503.61" stroke="black" stroke-width="12" stroke-linecap="round" stroke-linejoin="round"/>
<path d="M1423.68 1790.18C1395.03 1728.58 1327.84 1703.48 1261.19 1707.91C1226.35 1710.22 1192.62 1718.27 1167.43 1746.03C1162.28 1751.7 1158.15 1757.31 1159.24 1765.39" stroke="black" stroke-width="12" stroke-linecap="round" stroke-linejoin="round"/>
<path d="M2891.87 2079.41C2894.77 2082.98 2899.14 2084.03 2900.54 2090.34C2920.14 2178.62 2940.54 2266.72 2960.74 2354.87" stroke="black" stroke-width="12" stroke-linecap="round" stroke-linejoin="round"/>
<path d="M1790.04 3792.76C1765.44 3761.95 1726.22 3748.14 1701.89 3717.01C1644.64 3705.01 1608.19 3649.19 1547.66 3643.71C1541.95 3643.2 1535.61 3639.59 1531.27 3635.57C1499.36 3606.1 1462.46 3606.32 1423.68 3616.47" stroke="black" stroke-width="12" stroke-linecap="round" stroke-linejoin="round"/>
<path d="M795.637 1751.61C707.52 1824.57 644.379 1915.36 602.816 2021.56" stroke="black" stroke-width="12" stroke-linecap="round" stroke-linejoin="round"/>
<path d="M1252.9 2104.2C1163.18 2071.01 1087.21 2136.35 1048.85 2192.2C1037.66 2208.49 1051.65 2230.33 1035.29 2244.68" stroke="black" stroke-width="12" stroke-linecap="round" stroke-linejoin="round"/>
<path d="M2561.32 1795.69C2544.76 1813.13 2558 1831.64 2562.09 1847.83C2575.67 1901.6 2591.73 1954.79 2608.6 2007.65C2614.4 2025.83 2613.84 2047.82 2632.55 2060.4C2663.51 2038.9 2673.63 1998.65 2660.64 1955.41C2648.99 1916.64 2630.36 1881.43 2607.91 1848.19C2600.88 1837.78 2592.25 1828.79 2594.38 1814.97" stroke="black" stroke-width="12" stroke-linecap="round" stroke-linejoin="round"/>
<path d="M2390.54 1525.74C2429.42 1557.63 2416.54 1614.98 2390.05 1657.66C2373.62 1684.14 2351.63 1706.59 2327.6 1727.31C2305.99 1745.93 2283.59 1763.88 2262.49 1783.21C2230.39 1812.61 2186.99 1820.56 2142.62 1809.46" stroke="black" stroke-width="12" stroke-linecap="round" stroke-linejoin="round"/>
<path d="M2065.5 2941.59C2064.58 2946.18 2061.22 2952.81 2063.1 2955.07C2109.16 3010.28 2163.11 3051.77 2239.03 3054.69C2259.27 3055.47 2279.44 3058.2 2299.64 3060.04" stroke="black" stroke-width="12" stroke-linecap="round" stroke-linejoin="round"/>
<path d="M3879.39 1900.36C3884.05 1864.59 3868.6 1833.93 3852.67 1804.24C3844.6 1789.19 3825.94 1794.45 3815.14 1799.48C3802.89 1805.2 3800.15 1819.86 3806.27 1834.3C3818.36 1862.82 3838.92 1887.25 3865.01 1898.59C3887.8 1908.49 3891.44 1924.2 3897.09 1941.75C3906.64 1971.33 3908.71 2003.47 3927.59 2029.83" stroke="black" stroke-width="12" stroke-linecap="round" stroke-linejoin="round"/>
<path d="M2379.52 1525.74C2344.7 1570.29 2304.06 1607.21 2253.18 1633.88C2219.44 1651.57 2187.04 1666.4 2148.09 1658.17C2144.76 1657.47 2140.79 1659.79 2137.12 1660.71" stroke="black" stroke-width="12" stroke-linecap="round" stroke-linejoin="round"/>
<path d="M1473.27 3707.36C1544.91 3721.63 1608.92 3754.03 1671.76 3789.71C1693.98 3802.32 1716.54 3816.64 1743.22 3817.19C1761.55 3817.56 1783.51 3824.05 1790.6 3795.65C1793.04 3785.86 1806.99 3789.12 1814.83 3784.49" stroke="black" stroke-width="12" stroke-linecap="round" stroke-linejoin="round"/>
<path d="M2831.27 1842.52C2762.87 1803.8 2689.45 1782.75 2610.92 1778.93C2599.97 1778.4 2592.18 1781.56 2586.11 1790.18" stroke="black" stroke-width="12" stroke-linecap="round" stroke-linejoin="round"/>
<path d="M2167.42 1208.96C2140.79 1133.67 2114.36 1058.31 2087.39 983.138C2081.1 965.602 2066.41 953.4 2051.36 945.196C2028.79 932.899 2000.58 955.6 2002.31 983.075C2003.53 1002.52 2009.8 1020.26 2017.78 1038.57C2032.8 1073.03 2041.81 1110.06 2054.71 1145.52C2065.54 1175.31 2077.78 1204.63 2090.71 1233.57C2093.82 1240.53 2091.58 1246.68 2093.04 1253.03" stroke="black" stroke-width="12" stroke-linecap="round" stroke-linejoin="round"/>
<path d="M2916.66 1550.53C2903.3 1615.4 2909.64 1680.83 2911.5 1746.1C2911.63 1750.76 2916.66 1755.29 2919.42 1759.88" stroke="black" stroke-width="12" stroke-linecap="round" stroke-linejoin="round"/>
<path d="M3440.03 2123.48C3489.03 2116.52 3527.27 2143.53 3566.47 2165.29C3591.95 2179.44 3617.84 2187.3 3646.62 2186.84" stroke="black" stroke-width="12" stroke-linecap="round" stroke-linejoin="round"/>
<path d="M2280.36 2426.49C2285.86 2418.22 2290.6 2409.28 2297.04 2401.83C2311.07 2385.62 2336.11 2386.02 2342.76 2404.79C2349.03 2422.5 2355.05 2446.72 2347.83 2461.62C2323 2512.87 2320.84 2569.63 2302.43 2622.07C2297.61 2635.77 2293.21 2649.61 2288.62 2663.38" stroke="black" stroke-width="12" stroke-linecap="round" stroke-linejoin="round"/>
<path d="M3643.87 1068.48C3640.48 1114.6 3637.53 1161.08 3650.06 1206.02C3656.39 1228.72 3661.4 1257.39 3696.21 1255.79" stroke="black" stroke-width="12" stroke-linecap="round" stroke-linejoin="round"/>
<path d="M3657.64 2197.86C3705.12 2246.56 3697.84 2305.23 3684.04 2362.86C3679.42 2382.15 3661.54 2398.28 3663.15 2420.98" stroke="black" stroke-width="12" stroke-linecap="round" stroke-linejoin="round"/>
<path d="M1520.09 2062.88C1535.56 2010.4 1518.7 1944.39 1484.51 1924.75C1474.45 1918.97 1464.78 1916.06 1453.99 1917.02C1408.37 1921.11 1379.96 1898.75 1374.1 1853.53C1369.23 1816.01 1371.89 1812.94 1426.73 1792.82C1434.63 1800.48 1433.21 1810.91 1434.7 1820.48" stroke="black" stroke-width="12" stroke-linecap="round" stroke-linejoin="round"/>
<path d="M2971.75 1567.06C2955.79 1624.07 2941.75 1681.5 2936.13 1740.61C2935.3 1749.31 2929.41 1753.91 2924.93 1759.88" stroke="black" stroke-width="12" stroke-linecap="round" stroke-linejoin="round"/>
<path d="M1610.99 1412.8C1620.22 1469.39 1628.93 1526.04 1646.29 1580.99C1648.51 1588.01 1650.19 1597.94 1644.05 1605.62" stroke="black" stroke-width="12" stroke-linecap="round" stroke-linejoin="round"/>
<path d="M2211.49 1881.08C2246.32 1924.4 2291.61 1953.79 2341.04 1977.31C2358.87 1985.79 2377.69 1992.18 2396.05 1999.53" stroke="black" stroke-width="12" stroke-linecap="round" stroke-linejoin="round"/>
<path d="M1004.99 2060.12C982.741 2109.23 990.554 2158.26 1008.65 2205.77C1013.54 2218.61 1012.1 2234.68 1024.27 2244.68" stroke="black" stroke-width="12" stroke-linecap="round" stroke-linejoin="round"/>
<path d="M3652.14 2208.88C3617.89 2262.88 3623.79 2348.65 3664.53 2389.3" stroke="black" stroke-width="12" stroke-linecap="round" stroke-linejoin="round"/>
<path d="M1368.59 1834.25C1342.6 1839.23 1331.38 1856.5 1323.95 1880.91C1311.49 1921.85 1301.66 1964.31 1274.93 1999.52" stroke="black" stroke-width="12" stroke-linecap="round" stroke-linejoin="round"/>
<path d="M602.816 2911.29C643.833 2956.8 666.014 3012.54 688.433 3068.21C690.349 3072.97 687.593 3081.16 696.472 3082.08" stroke="black" stroke-width="12" stroke-linecap="round" stroke-linejoin="round"/>
<path d="M3822.92 3104.11C3823.14 3136.69 3816.06 3168.44 3812.37 3200.58C3809.32 3227.15 3801.01 3253.22 3803.64 3280.41" stroke="black" stroke-width="12" stroke-linecap="round" stroke-linejoin="round"/>
<path d="M3985.44 1825.99C3984.52 1882.92 3986.2 1940.06 3981.46 1996.67C3979.44 2020.72 3974.19 2049.17 3946.88 2062.88" stroke="black" stroke-width="12" stroke-linecap="round" stroke-linejoin="round"/>
<path d="M3373.92 1162.14C3354.31 1158.92 3334.98 1155.78 3315.65 1149.71C3302.37 1145.55 3285.18 1142.85 3268.96 1150.5C3257.37 1155.98 3243.16 1161.71 3230.5 1148.54C3221.58 1139.27 3215.83 1151.38 3208.65 1153.87" stroke="black" stroke-width="12" stroke-linecap="round" stroke-linejoin="round"/>
<path d="M3197.63 1034.05C3200.38 1034.51 3203.14 1034.97 3205.89 1035.43C3205 1004.52 3223.42 980.022 3233.65 952.869C3244.41 924.319 3238.51 913.146 3208.73 905.649C3193.75 901.879 3179.32 903.268 3164.57 904.583" stroke="black" stroke-width="12" stroke-linecap="round" stroke-linejoin="round"/>
<path d="M1263.91 2002.28C1217.34 1985.91 1174.52 1959.02 1123.51 1954.59C1113.48 1953.73 1107.43 1953.9 1101.39 1960.96" stroke="black" stroke-width="12" stroke-linecap="round" stroke-linejoin="round"/>
<path d="M3252.72 2396.19C3237.78 2425.75 3241.46 2436.54 3274.89 2448.16C3299.68 2456.77 3325.34 2463.78 3351.9 2464.83C3360.62 2465.17 3368.17 2466.32 3373.92 2473.32" stroke="black" stroke-width="12" stroke-linecap="round" stroke-linejoin="round"/>
<path d="M2183.95 2723.98C2243.69 2751.31 2297.64 2787.01 2343.71 2834.16" stroke="black" stroke-width="12" stroke-linecap="round" stroke-linejoin="round"/>
<path d="M4101.13 1848.02C4058.05 1880.83 4031.84 1926.83 4005.04 1972.16C3999.22 1982 3998.18 1994.76 3985.44 1999.53" stroke="black" stroke-width="12" stroke-linecap="round" stroke-linejoin="round"/>
<path d="M3395.96 2319.06C3347.29 2321.81 3298.65 2325.69 3249.95 2326.59C3236.51 2326.84 3223.98 2333.36 3208.18 2325.5C3165.99 2304.48 3160.36 2293.35 3182.48 2252.95" stroke="black" stroke-width="12" stroke-linecap="round" stroke-linejoin="round"/>
<path d="M3467.58 850.866C3418.95 819.365 3368.09 808.65 3313.32 834.339" stroke="black" stroke-width="12" stroke-linecap="round" stroke-linejoin="round"/>
<path d="M1820.34 3354.78C1800.76 3364.27 1798.01 3384.18 1793.19 3401.72C1786.56 3425.87 1782.24 3450.74 1781.88 3475.98C1781.74 3485.32 1782.02 3494.43 1773.51 3500.77" stroke="black" stroke-width="12" stroke-linecap="round" stroke-linejoin="round"/>
<path d="M1374.1 1837.01C1401.89 1839.64 1425.41 1855.71 1432.98 1878.89C1441.02 1903.47 1433.54 1930.87 1413.05 1953.06C1382.02 1986.66 1349.35 2013.02 1299.67 2008.43C1289.02 2007.45 1280.07 2001.12 1268.23 2001.75C1252.15 2021.68 1235.54 2042.05 1208.81 2049.04C1191.47 2053.58 1177.57 2055.29 1163.82 2036C1145.55 2010.36 1120.93 1989.18 1098.58 1966.53C1064.12 1931.6 1007.59 1937.21 991.434 1977.58C979.971 2006.23 992.55 2032.47 1008.5 2054.06C1026.23 2078.08 1051.82 2094.58 1082.41 2103.03C1094.96 2082.4 1087 2057.9 1077.88 2047.67C1052.69 2019.39 1039.02 1984.43 1016 1955.45" stroke="black" stroke-width="12" stroke-linecap="round" stroke-linejoin="round"/>
<path d="M3511.65 691.102C3543.16 725.848 3558.21 768.864 3571.86 812.427C3573 816.083 3568.58 821.485 3566.74 826.076" stroke="black" stroke-width="12" stroke-linecap="round" stroke-linejoin="round"/>
<path d="M3211.4 2332.83C3198.03 2359.84 3200.97 2367.87 3230.71 2382.36C3265.52 2399.32 3303.7 2397.94 3340.88 2401.53C3357.33 2403.12 3374.13 2399.74 3390.45 2404.45" stroke="black" stroke-width="12" stroke-linecap="round" stroke-linejoin="round"/>
<path d="M1467.76 2448.52C1408.35 2440.55 1354.57 2458.52 1302.48 2484.33" stroke="black" stroke-width="12" stroke-linecap="round" stroke-linejoin="round"/>
<path d="M3216.91 848.113C3203.61 833.409 3186.68 826.436 3167.36 823.156C3131.84 817.128 3119.47 821.522 3104.59 851.175C3102.02 856.301 3098.92 860.322 3095.71 864.64" stroke="black" stroke-width="12" stroke-linecap="round" stroke-linejoin="round"/>
<path d="M933.368 2305.28C923.344 2302.24 913.321 2299.2 903.822 2296.31C874.68 2323.67 882.249 2362.78 919.595 2382.41" stroke="black" stroke-width="12" stroke-linecap="round" stroke-linejoin="round"/>
<path d="M1431.95 1938.93C1461.85 1969.55 1477.3 2008.77 1494.72 2046.62C1497.18 2051.98 1500.36 2055.81 1503.56 2060.13" stroke="black" stroke-width="12" stroke-linecap="round" stroke-linejoin="round"/>
<path d="M3734.77 914.223C3721.92 926.331 3722.08 945.148 3710.61 958.821C3699.06 972.571 3689.33 979.614 3671 968.825C3674.08 957.733 3683.26 948.455 3682.42 936.285C3676 925.728 3664.23 928.518 3652 927.819C3654.04 907.203 3660.24 890.203 3669.21 876.009C3686.53 848.635 3697.11 847.385 3729.26 861.886" stroke="black" stroke-width="12" stroke-linecap="round" stroke-linejoin="round"/>
<path d="M2161.91 1757.12C2186.11 1774.01 2210.93 1778.78 2239.36 1766.1C2248.34 1762.09 2261.07 1760.25 2272.09 1765.39" stroke="black" stroke-width="12" stroke-linecap="round" stroke-linejoin="round"/>
<path d="M2385.03 2608.29C2369.2 2628.53 2370.37 2654.29 2363.82 2677.39C2359.96 2691.04 2355.18 2704.57 2351.97 2718.47" stroke="black" stroke-width="12" stroke-linecap="round" stroke-linejoin="round"/>
<path d="M1473.26 2195.1C1441.1 2161.95 1404.92 2170.99 1385.12 2217.14" stroke="black" stroke-width="12" stroke-linecap="round" stroke-linejoin="round"/>
<path d="M1195.05 3834.07C1214.71 3827.29 1220.84 3811.05 1222.42 3792.74C1224.53 3768.16 1211.08 3755.21 1184.03 3754.19" stroke="black" stroke-width="12" stroke-linecap="round" stroke-linejoin="round"/>
<path d="M1437.45 2451.28C1427.78 2485.45 1405.74 2495.33 1357.57 2487.13C1355.78 2486.82 1353.9 2487.09 1352.06 2487.09" stroke="black" stroke-width="12" stroke-linecap="round" stroke-linejoin="round"/>
<path d="M2351.97 2456.79C2389.2 2448.97 2396.32 2454.54 2395.92 2492.6C2395.75 2509.13 2394.21 2525.65 2393.29 2542.18" stroke="black" stroke-width="12" stroke-linecap="round" stroke-linejoin="round"/>
<path d="M1999.39 1010.63C1954.78 1016.52 1953.77 1021.86 1960.89 1079.49C1963.61 1101.53 1977.68 1122.15 1969.09 1145.61" stroke="black" stroke-width="12" stroke-linecap="round" stroke-linejoin="round"/>
<path d="M1084.87 2049.11C1104.84 2047.25 1119.53 2063.68 1139.94 2063.95C1153.56 2064.13 1163.8 2065.56 1170.26 2051.86" stroke="black" stroke-width="12" stroke-linecap="round" stroke-linejoin="round"/>
<path d="M1269.42 2228.16C1257.82 2220.27 1244.32 2216.51 1233.1 2206.71C1216.92 2192.56 1198.42 2201.38 1180.86 2225.09C1174.84 2233.21 1176.57 2246.14 1164.75 2250.19" stroke="black" stroke-width="12" stroke-linecap="round" stroke-linejoin="round"/>
<path d="M3442.67 906.4C3431.07 898.511 3417.57 894.75 3406.35 884.949C3390.17 870.805 3371.67 879.618 3354.11 903.335C3348.09 911.456 3349.82 924.378 3338 928.436" stroke="black" stroke-width="12" stroke-linecap="round" stroke-linejoin="round"/>
<path d="M3230.67 925.4C3219.07 917.511 3205.57 913.75 3194.35 903.949C3178.17 889.805 3159.67 898.618 3142.11 922.335C3136.09 930.456 3137.82 943.378 3126 947.436" stroke="black" stroke-width="12" stroke-linecap="round" stroke-linejoin="round"/>
<path d="M3208.65 1038.18C3232.87 1069.75 3257.12 1073.22 3285.78 1049.19C3301.67 1051.64 3313.75 1072.24 3332.49 1060.04C3345.17 1051.78 3333.67 1041.85 3332.6 1032.67" stroke="black" stroke-width="12" stroke-linecap="round" stroke-linejoin="round"/>
<path d="M963.668 2360.38C947.381 2341.21 944.693 2341.39 933.236 2360.3C927.962 2369 922.175 2377.2 922.279 2390.66C942.162 2410.24 963.239 2429.46 996.723 2418.22" stroke="black" stroke-width="12" stroke-linecap="round" stroke-linejoin="round"/>
<path d="M1120.68 1792.93C1106.74 1818.77 1083.8 1835.19 1060.08 1850.78" stroke="black" stroke-width="12" stroke-linecap="round" stroke-linejoin="round"/>
<path d="M3638.36 859.129C3619.08 853.62 3599.8 848.111 3580.52 842.602" stroke="black" stroke-width="12" stroke-linecap="round" stroke-linejoin="round"/>
<path d="M3302.3 1197.94C3285.29 1198.41 3268.09 1205.77 3251.34 1196.57" stroke="black" stroke-width="12" stroke-linecap="round" stroke-linejoin="round"/>
<path d="M3357.39 1925.15C3345.42 1926.22 3336.83 1913.74 3324.34 1916.89" stroke="black" stroke-width="12" stroke-linecap="round" stroke-linejoin="round"/>
<path d="M1440.21 2349.36C1418.35 2342.07 1405.31 2357.46 1390.32 2368.89C1373.38 2356.65 1357.12 2362.3 1341.04 2371.39C1340.15 2371.89 1339.21 2372.31 1338.29 2372.77C1338.75 2373.23 1339.21 2373.69 1339.67 2374.15" stroke="black" stroke-width="12" stroke-linecap="round" stroke-linejoin="round"/>
<path d="M2420.84 3558.62C2344.21 3573.91 2269.83 3642.43 2254.98 3707.23C2247.36 3740.51 2267.97 3770.05 2305.16 3768.24C2334.74 3766.8 2359.08 3755.48 2382.52 3737.99C2422.53 3708.14 2455.69 3673.51 2470.25 3624.68C2484.83 3575.81 2474.29 3561.6 2423.59 3558.62" stroke="black" stroke-width="12" stroke-linecap="round" stroke-linejoin="round"/>
<path d="M3652.94 3872.93C3634.98 3866.03 3615.25 3866.45 3597.81 3855.66C3570.48 3838.75 3554.05 3817.09 3552.72 3784.24C3551.99 3766.09 3558.86 3751.64 3574.17 3744.48C3589.47 3737.33 3606.77 3737.78 3622.28 3747.16C3656.73 3767.98 3662.08 3801.78 3660.79 3837.45C3658.79 3892.52 3628.77 3934.45 3593.16 3972.83C3523.47 4047.92 3434.87 4088.41 3336.87 4111.79C3289.05 4123.2 3240.53 4127.59 3191.67 4129.13C3177.2 4129.59 3162.65 4127.22 3148.13 4126.14" stroke="black" stroke-width="12" stroke-linecap="round" stroke-linejoin="round"/>
<path d="M3693.25 3453.61C3719.84 3479.52 3742.87 3507.48 3762.27 3539.93C3777.64 3565.64 3790.33 3591.25 3796.14 3619.79C3811.04 3692.93 3802.97 3761.83 3752.9 3821.31C3730.83 3847.53 3703.06 3864.11 3669.04 3869.57C3665.98 3870.06 3662.61 3868.63 3659.38 3868.1" stroke="black" stroke-width="12" stroke-linecap="round" stroke-linejoin="round"/>
<path d="M3690.03 3447.16C3695.09 3451.72 3689.64 3455.15 3688.22 3458.36C3672.41 3494.22 3664.58 3532.58 3653.05 3569.77C3652.64 3571.09 3654.01 3572.95 3654.54 3574.57" stroke="black" stroke-width="12" stroke-linecap="round" stroke-linejoin="round"/>
<path d="M3760.99 3542.31C3727.09 3555.12 3693.09 3567.81 3657.68 3575.77C3650.61 3577.36 3647.56 3578.87 3648.1 3585.86" stroke="black" stroke-width="12" stroke-linecap="round" stroke-linejoin="round"/>
<path d="M3090.07 3481.03C3075.01 3486.92 3058.94 3489.12 3044.63 3498.33C3026.01 3510.31 3015.54 3527.27 3011.43 3547.23C2999.94 3603.07 2993.9 3659.75 2988.09 3716.45C2986.26 3734.33 2982.6 3752.44 2987.3 3769.59C2995.32 3798.84 3016.98 3815.95 3044.88 3826.26C3075.66 3837.64 3107.92 3841.31 3140.08 3845.4C3177.65 3850.19 3215.24 3856.13 3252.99 3857.89C3296.96 3859.95 3341.12 3865.74 3385.21 3858.44C3428.35 3851.29 3457.45 3823.39 3465.61 3777.74C3475.91 3720.08 3486.95 3662.44 3488.45 3603.6C3488.66 3595.52 3491.92 3588.24 3490.5 3579.33C3483.78 3537.38 3465.77 3518.67 3423.92 3513.29C3356.72 3504.65 3289.58 3495.51 3222.3 3487.68C3178.97 3482.63 3135.43 3479.13 3091.68 3481.03" stroke="black" stroke-width="12" stroke-linecap="round" stroke-linejoin="round"/>
<path d="M2763 416.315C2719.52 416.315 2676.02 415.888 2632.56 416.435C2589.06 416.982 2545.61 418.928 2502.11 419.498C2432.55 420.409 2362.95 420.235 2293.41 421.374C2234.25 422.343 2175.13 424.516 2116 426.156" stroke="black" stroke-width="12" stroke-linecap="round" stroke-linejoin="round"/>
<path d="M2755 528.315C2711.52 528.315 2668.02 527.888 2624.56 528.435C2581.06 528.982 2537.61 530.928 2494.11 531.498C2424.55 532.409 2354.95 532.235 2285.41 533.374C2226.25 534.343 2167.13 536.516 2108 538.156" stroke="black" stroke-width="12" stroke-linecap="round" stroke-linejoin="round"/>
<path d="M2747 640.315C2703.52 640.315 2660.02 639.888 2616.56 640.435C2573.06 640.982 2529.61 642.928 2486.11 643.498C2416.55 644.409 2346.95 644.235 2277.41 645.374C2218.25 646.343 2159.13 648.516 2100 650.156" stroke="black" stroke-width="12" stroke-linecap="round" stroke-linejoin="round"/>
<path d="M759.848 1578.02C754.102 1593.3 760.196 1608.6 762.23 1623.07C769.622 1675.65 773.633 1728.42 770.589 1781.2C767.72 1830.94 742.269 1866.02 692.086 1879.52C683.66 1881.79 674.957 1883.2 666.296 1884.37C650.206 1886.55 645.613 1891.82 645.306 1908.64C644.569 1949.02 650.706 1989.2 648.576 2029.6C648.245 2035.88 650.166 2042.75 642.418 2047.97C629.38 2043.56 619.926 2033.4 609.632 2023.38C572.368 1987.14 540.194 1946.49 506.736 1906.95C496.247 1894.55 485.008 1889.17 467.843 1891.97C448.886 1895.06 429.136 1893.72 409.875 1893.62C342.546 1893.27 275.605 1903.64 208.279 1900.46C141.945 1897.31 122.452 1878.46 107.055 1819.84C98.2438 1786.29 96.7031 1751.31 93.6178 1716.73C91.1177 1688.71 85.3957 1660.87 84.5559 1632.84C83.411 1594.63 72.0157 1556.59 79.5689 1518.41C88.8451 1471.52 115.29 1457.89 156.678 1455.73C184.557 1454.27 212.603 1456.28 240.524 1455.29C323.837 1452.36 407.211 1453.63 490.496 1451.57C547.565 1450.16 604.482 1452.78 661.468 1452.76C691.792 1452.75 715.972 1467.8 730.901 1495.72C743.136 1518.61 751.238 1542.7 755.169 1568.32C755.609 1571.19 758.236 1573.72 759.848 1576.41" stroke="black" stroke-width="12" stroke-linecap="round" stroke-linejoin="round"/>
<path d="M561.973 1567.31C535.093 1567.31 508.204 1566.89 481.335 1567.43C454.445 1567.97 427.582 1569.88 400.691 1570.44C357.691 1571.34 314.666 1571.17 271.673 1572.29C235.1 1573.24 198.557 1575.38 162 1576.99" stroke="black" stroke-width="12" stroke-linecap="round" stroke-linejoin="round"/>
<path d="M611.973 1650.31C585.093 1650.31 558.204 1649.89 531.335 1650.43C504.445 1650.97 477.582 1652.88 450.691 1653.44C407.691 1654.34 364.666 1654.17 321.673 1655.29C285.1 1656.24 248.557 1658.38 212 1659.99" stroke="black" stroke-width="12" stroke-linecap="round" stroke-linejoin="round"/>
<path d="M715.973 1755.31C689.093 1755.31 662.204 1754.89 635.335 1755.43C608.445 1755.97 581.582 1757.88 554.691 1758.44C511.691 1759.34 468.666 1759.17 425.673 1760.29C389.1 1761.24 352.557 1763.38 316 1764.99" stroke="black" stroke-width="12" stroke-linecap="round" stroke-linejoin="round"/>
<path d="M1645.5 3853.16L1466 3787.16" stroke="black" stroke-width="12"/>
<path d="M1646 3856.16C1693.39 3853.88 1706.19 3844.58 1698 3810.16" stroke="black" stroke-width="12"/>
<path d="M2411 1527.16L2469 1597.16L2539 1741.16L2851 1403.16L2935 1339.16L3021 1307.16L3197 1273.16L3265 1339.16L3241 1435.16L3265 1515.16L3327 1597.16L3399 1629.16L3521 1577.16L3613 1499.16L3683 1413.16L3741 1307.16L3929 1403.16L4103 1527.16L4313 1874.16L4387 2079.16L4399 2277.16L4345 2353.16L4253 2399.16L4171 2439.16L4083 2453.16L3891 2478.16H3787L3664 2432.66L3679 2387.16L3695 2273.16L3664 2189.16L3625 2179.16L3437.5 2112.16L3371 1861.16L2963 1967.16L3113 2545.16L3259 2525.16L3399 2478.16L3442.5 2473.66L3489.5 2470.16L3535 2454.16L3596.5 2430.16L3628.5 2423.66L3664 2432.66L3711.5 2456.66L3763 2478.16L3835 2484.16L3891 2487.66V2503.16L3879 2603.16L3887.5 2647.66L3900.5 2683.16L3898 2702.16L3891 2715.16L3870.5 2736.66L3755.5 2779.16L3644.5 2810.16L3535 2819.66L3331.5 2810.16L3127.5 2770.16L3057 2754.66L2987 2728.66L2927 2703.16L2867 2667.16L2853.5 2656.66L2846.5 2638.16L2843.5 2616.16V2595.16L2846.5 2577.66L2853.5 2565.16L2862 2552.66L2875.5 2540.66L2871.5 2493.66L2875.5 2440.16L2879 2330.66V2214.66L2901 2009.16L2715 2179.16L2591 2261.16H2451L2385 2227.16L2310.5 2141.66L2247 2043.16L2167 1919.16L2132 1803.16L2108.5 1723.66L2132 1676.66L2282 1620.66L2411 1527.16Z" fill="#F80000" fill-opacity="0.33"/>
<path d="M961 2665.16L987 2677.16L1007 2748.16L1047 2801.16L1125 2859.16L1231 2889.16L1333 2878.16L1381 2830.16L1372 2727.16L1381 2665.16L1443 2683.16L1562 2705.16L1614 2710.16L1665 2721.16L1705 2734.16L1743 2756.16L1790 2791.16L1846 2864.16L1908 2960.16L1935 3005.16L1957 3037.16L1987 3055.16L2004 2991.16L2021 2948.16L2055 2930.16L2058 2956.16L2098 2997.16L2164 3042.16L2258 3060.16L2306 3065.16L2333 3037.16L2349 3065.16L2251 3303.16L2237 3319.16L2145 3358.16L1988.5 3600.66L1970.5 3628.16L1953 3654.66L1915.5 3692.16L1882 3704.16H1828L1783.5 3708.66H1745.5L1733 3689.16L1643 3615.16L1600 3572.16H1537L1474 3555.16L1437 3552.66L1366 3566.66L1312.5 3578.66L1263.5 3581.16L1218.5 3630.16L1184.5 3703.66L1175 3739.66V3775.66L1179 3807.66L1188.5 3842.16L1175 3859.16L1160 3870.66L1121.5 3880.66L1075 3873.16L1007 3870.66L930.5 3868.66L825.5 3861.16L743 3852.66L680 3845.16L529.5 3821.66L463.5 3804.66L413 3787.16L384 3774.66L357 3755.66L339.75 3740.41L322.5 3725.16L291.5 3685.16L274 3630.16L261 3547.16L285 3407.16L301 3334.16L363 3177.66L443 3021.16L509 2916.16L599 2842.16L921 2705.16L961 2665.16Z" fill="#817CFF" fill-opacity="0.33"/>
</svg>
