<svg width="1553" height="1030" viewBox="0 0 1553 1030" fill="none" xmlns="http://www.w3.org/2000/svg">
<path fill-rule="evenodd" clip-rule="evenodd" d="M673.366 0.100064C801.615 2.79715 899.383 89.4722 1003.57 161.772C1141.54 257.526 1368.73 316.655 1365.98 480.753C1363.21 645.159 1125.64 686.478 993.022 789.548C885.493 873.119 809.548 997.421 673.366 1019.05C516.338 1043.98 324.074 1033.55 227.948 911.039C134.59 792.052 231.516 628.863 251.017 480.753C266.472 363.37 249.203 237.786 328.471 147.575C413.051 51.3192 542.699 -2.64789 673.366 0.100064Z" fill="#FF3D3D" fill-opacity="0.12"/>
<g clip-path="url(#clip0_287_6)">
<ellipse cx="690.529" cy="758.384" rx="27.0039" ry="27.107" fill="#FF6868" fill-opacity="0.5"/>
<ellipse cx="500.95" cy="756.08" rx="27.0039" ry="27.107" fill="#FF6868" fill-opacity="0.5"/>
<ellipse cx="611.17" cy="669.567" rx="34.7193" ry="34.0279" fill="#85C4F9" fill-opacity="0.5"/>
<path d="M1021.11 526.998C1037.93 527.468 1051.62 532.781 1064.32 544.921C1074.01 554.187 1075.34 563.38 1076.34 574.979C1082.01 640.776 1079.83 706.683 1079.48 772.534C1079.39 790.613 1078.06 808.99 1074.52 827.056C1073.36 832.983 1072.9 839.306 1072.37 845.464C1071.43 856.329 1068.36 860.102 1058.09 862.076C1031.48 867.191 1004.45 868.459 977.491 869.157C963.226 869.526 949.108 871.748 934.834 871.319C912.713 870.653 890.459 871.305 868.504 869.108C847.288 866.984 826.131 866.289 804.948 866.844C773.275 867.672 741.692 870.326 710.123 873.044C697.544 874.127 684.84 873.397 672.199 873.706C661.444 873.968 650.73 875.022 639.973 875.011C606.473 874.976 572.922 876.113 539.489 874.651C511.958 873.447 484.291 872.551 456.932 867.928C449.192 866.62 441.174 865.865 433.286 864.838C421.039 863.244 414.346 855.851 412.511 844.524C407.699 814.808 402.405 785.214 400.748 755.014C398.975 722.704 396.955 690.393 394.878 658.104C393.726 640.202 394.422 622.369 393.421 604.539C392.35 585.452 390.002 566.39 389.846 547.304C389.369 488.539 389.301 429.764 389.845 371C390.081 345.452 391.435 319.857 393.686 294.401C395.816 270.315 399.687 246.37 402.988 222.388C404.582 210.815 409.864 205.838 421.899 202.964C441.223 198.35 460.829 196.567 480.674 195.356C504.059 193.928 527.432 192.72 550.837 191.636C586.231 189.997 621.673 189.577 657.012 187.745C682.666 186.415 708.282 185.976 733.824 186.733C760.365 187.52 786.864 190.962 813.472 189.955C841.04 188.911 868.454 192.346 895.96 191.841C923.813 191.33 951.655 191.833 979.379 193.968C1006.33 196.043 1033.45 197.151 1059.99 202.972C1067.84 204.693 1073.1 208.838 1074.16 216.849C1075.6 227.597 1076.75 238.381 1077.99 249.152C1079.59 262.997 1080.69 276.916 1082.9 290.667C1084.53 300.811 1084.21 311.038 1085.15 321.19C1088.38 356.143 1087.66 391.292 1087.48 426.383C1087.36 450.228 1090.59 473.8 1092.95 497.48C1097.29 541.186 1124.86 565.1 1164.37 578.435C1185.77 585.661 1207.73 582.784 1228.72 574.937C1255.51 564.923 1283.28 556.372 1300.89 531.673C1303.7 527.731 1308.54 526.029 1313.1 524.172C1329.29 517.591 1345.37 518.81 1361.48 524.234C1378.32 529.903 1392.87 540.022 1408.84 547.399C1429.98 557.159 1452.18 561.511 1475.22 559.031C1490.24 557.414 1505.26 554.104 1519.72 549.771C1531.09 546.362 1542.32 545.253 1553.95 545.46" stroke="black" stroke-width="4" stroke-linecap="round" stroke-linejoin="round"/>
<path d="M1071.36 550.079C1073.89 534.841 1062.51 520.302 1046.71 518.707C1029.5 516.972 1012.55 520.107 995.518 521.515C980.009 522.797 964.817 526.889 949.053 526.144C938.247 525.632 933.61 519.688 936.734 509.464C940.432 497.36 941.269 485.57 935.938 473.399C929.522 458.751 916.752 452.973 902.547 450.689C885.987 448.028 870.493 452.755 860.223 466.287C854.639 473.644 854.493 483.851 855.52 492.813C856.472 501.12 855.348 509.482 857.759 517.847C860.385 526.955 852.714 532.863 841.912 533.274C817.617 534.198 793.402 533.147 769.83 526.187C766.81 525.296 763.548 526.007 760.308 524.372C750.458 519.4 745.843 512.437 745.926 501.154C746.073 480.928 749.119 461.093 751.675 441.134C752.806 432.301 752.604 423.307 753.444 414.36C755.126 396.432 751.227 394.18 731.997 398.042C718.054 400.842 704.973 402.096 692.109 395.019C677.077 386.75 666.979 364.509 672.336 348.889C679.461 328.115 693.182 319.872 712.03 319.36C717.761 319.204 723.364 319.439 729.146 320.971C748.842 326.191 750.95 322.796 753.38 305.415C757.007 279.47 760.448 253.426 759.719 226.994C759.297 211.679 753.044 209.482 741.404 208.82C724.001 207.831 706.481 205.993 689.132 211.832C683.399 213.761 675.974 210.28 669.369 210.51C638.346 211.587 607.411 207.333 576.462 208.784C556.236 209.733 535.989 211.012 515.788 212.461C496.114 213.872 476.554 216.962 456.996 219.673C438.52 222.235 433.43 230.094 431.198 250.982C424.009 318.264 425.3 385.734 426.091 453.151C426.322 472.843 426.621 493.033 433.269 512.238C438.628 527.718 446.75 532.946 463.625 531.622C495.227 529.143 526.831 526.677 558.436 524.24C572.474 523.158 576.686 529.062 573.808 542.735C570.842 556.82 569.753 570.993 575.31 585.227C580.984 599.761 597.795 611.945 618.158 610.847C640.039 609.667 652.298 592.013 655.372 578.745C658.561 564.98 655.93 551.632 655.243 538.074C654.743 528.214 656.069 527.228 666.52 526.079C680.526 524.54 694.348 525.335 708.279 527.687C715.375 528.885 722.785 528.802 730.066 529.557C746.305 531.241 751.038 536.375 752.032 551.914C753.582 576.131 747.735 599.84 748.025 623.925C748.201 638.601 752.37 641.788 767.015 637.758C781.283 633.831 795.222 633.329 808.75 640.514C824.97 649.129 832.948 662.41 831.341 680.22C829.844 696.822 820.316 708.142 803.973 713.396C792.61 717.049 781.068 716.29 769.885 712.48C757.389 708.223 751.546 711.757 751.93 724.538C752.424 740.973 754.956 757.211 757.147 773.513C758.747 785.425 760.821 797.391 761.309 809.464C761.523 814.753 763.731 819.68 763.367 825.165C762.705 835.166 757.024 840.964 747.186 843.866C738.345 846.474 729.253 846.107 720.519 846.8C699.093 848.498 677.595 850.146 656.12 851.458C613.726 854.048 571.378 852.759 529.047 852.461C504.047 852.285 478.905 849.813 454.154 845.409C443.892 843.584 439.213 836.593 437.04 822.392C428.465 766.364 427.052 709.975 427.552 653.463C427.808 624.542 427.597 595.617 427.597 566.694C427.597 564.233 426.691 561.276 427.77 559.404C430.785 554.176 433.211 547.573 440.873 547.411C448.17 547.257 450.801 553.085 453.14 558.41C461.638 577.755 450.064 598.817 429.493 601.771" stroke="black" stroke-width="4" stroke-linecap="round" stroke-linejoin="round"/>
<path d="M425.701 605.46C415.148 606.207 404.826 608.646 394.467 610.379C365.957 615.146 337.81 614.218 310.098 607.06C295.907 603.394 282.911 595.787 275.157 583.186C263.91 564.909 245.875 557.43 226.527 552.167C216.819 549.526 206.401 548.772 196.253 548.356C164.4 547.053 135.731 556.997 109.041 573.164C91.7711 583.625 75.9125 596.273 57.7751 605.346C46.7339 610.869 34.8454 614.56 22.7549 617.46" stroke="black" stroke-width="3" stroke-linecap="round" stroke-linejoin="round"/>
<path d="M571.236 638.338C579.708 631.528 589.337 629.465 599.638 631.816C610.741 634.351 620.757 639.336 628.592 648.172C634.008 654.28 636.304 661.62 636.221 670.026C636.135 678.615 632.711 685.959 629.062 693.42C628.569 694.429 628.089 695.456 627.656 696.505C627.059 697.952 626.837 699.359 627.064 700.707C627.293 702.058 627.965 703.306 629.082 704.441C631.214 706.608 633.476 708.624 635.703 710.644C637.936 712.667 640.138 714.697 642.177 716.908C645.617 720.639 649.199 724.091 652.462 727.914C654.461 730.257 656.645 731.862 659.099 732.744C661.552 733.626 664.24 733.772 667.228 733.252C679.264 731.156 691.339 737.17 696.5 747.401C701.161 756.641 699.695 768.539 692.873 776.23C688.764 780.863 684.371 784.933 678.346 786.223C665.261 789.024 650.611 781.462 646.834 769.647C645.795 766.397 646.054 763.113 646.293 759.761C646.806 752.561 648.912 746.027 654.006 740.873C654.579 740.294 655.276 739.888 656.035 739.396C656.772 738.92 657.549 738.37 658.108 737.527L658.261 737.298L658.147 737.046C658.094 736.926 658.071 736.843 658.021 736.704C658 736.648 657.968 736.566 657.922 736.489C657.888 736.432 657.829 736.349 657.734 736.28L657.628 736.219C653.8 734.492 650.728 731.857 647.896 728.874C646.48 727.382 645.13 725.809 643.774 724.222C642.422 722.638 641.063 721.039 639.642 719.51C636.682 716.326 633.701 713.14 630.599 710.091C628.282 707.814 626.271 706.513 624.055 706.214C621.843 705.915 619.532 706.627 616.655 708.113C605.523 713.864 593.88 714.379 581.956 711.431C578.297 710.526 574.93 708.679 571.688 706.541C570.587 705.815 569.434 704.982 568.192 704.38C565.722 703.182 563.713 702.672 561.904 703.163C560.092 703.656 558.619 705.116 557.119 707.493C552.483 714.844 546.571 721.008 541.166 727.81C539.6 729.78 538.615 731.349 538.396 733.002C538.175 734.676 538.752 736.333 540.025 738.448C545.071 746.831 546.237 755.581 543.232 765.164C540.958 771.754 537.488 775.887 533.115 778.249C528.727 780.619 523.366 781.24 517.255 780.676C512.126 780.202 507.414 778.473 503.248 775.145C499.65 772.27 497.394 768.409 496.276 764.046C494.286 756.275 495.861 748.098 499.693 741.583C503.528 735.065 509.591 730.261 516.534 729.165C520.492 728.54 524.324 729.075 527.964 730.802C529.968 731.753 531.839 732.003 533.559 731.527C535.274 731.052 536.767 729.874 538.059 728.108C543.679 720.425 549.992 713.468 555.883 705.948C557.711 703.614 558.712 702.022 558.741 700.336C558.77 698.662 557.835 697.007 556.259 694.566C551.723 687.544 551.484 679.696 552.609 671.567C554.507 657.864 560.741 646.775 571.236 638.338ZM682.12 739.319C668.609 731.911 652.941 739.269 649.688 754.652C648.401 760.734 647.949 767.271 652.044 772.594C656.18 777.97 662.251 781.885 668.867 783.057C675.497 784.231 682.655 782.647 688.914 777.063C695.699 771.011 698.889 760.672 694.72 751.758C692.059 746.069 687.707 742.264 682.119 739.319H682.12ZM539.787 743.649C534.702 732.25 520.065 727.278 509.789 734.001C501.645 739.329 497.608 747.29 497.401 757.271C497.269 763.666 499.299 769.37 504.401 773.158C508.704 776.352 513.209 778.128 517.905 778.526C522.6 778.925 527.454 777.945 532.453 775.678L532.474 775.668L532.494 775.656C535.803 773.762 538.367 771.105 540.079 767.559C543.965 759.507 543.339 751.611 539.787 743.649ZM602.247 634.996C595.958 633.159 589.302 632.141 582.984 634.49C572.696 638.316 565.013 645.718 559.371 655.875L559.363 655.89L559.356 655.904C554.983 665.177 553.31 674.962 554.579 685.219C555.206 690.284 557.369 694.501 560.863 698.236C562.198 699.663 563.714 700.58 565.243 701.344C566.807 702.125 568.285 702.705 569.753 703.536C585.952 712.703 602.263 712.241 618.595 704.044C620.924 702.875 622.752 701.102 624.033 698.763C627.634 692.186 631.013 685.454 633.181 678.141C636.846 665.773 632.423 652.709 622.31 645.095C616.172 640.473 609.497 637.113 602.247 634.996Z" fill="black" stroke="black"/>
<path d="M587.682 653.026C590.463 651.977 594.484 651.539 598.388 652.175C602.291 652.811 606 654.505 608.252 657.642C610.421 660.662 611.408 663.993 611.661 667.732C611.957 672.09 612.483 676.326 612.047 680.615C611.862 682.434 611.348 684.098 610.231 685.323C604.607 691.492 598.385 695.746 589.795 694.294C584.82 693.453 581.668 690.296 579.161 685.97C578.074 684.094 577.474 681.989 576.789 679.612C575.463 671.25 578.133 664.149 582.33 657.437C583.61 655.389 585.428 653.876 587.682 653.026ZM599.674 654.722C593.077 652.88 586.802 654.931 583.324 660.144C580.623 664.192 579.346 668.767 579.031 673.558C578.628 679.705 579.906 685.415 585.205 689.801L585.224 689.815L585.242 689.828C587.27 691.211 589.429 692.14 591.975 692.304C598.529 692.725 603.282 689.087 607.559 684.963C609.399 683.189 610.218 680.627 610.188 677.963C610.148 674.515 610.219 671.017 609.871 667.516C609.253 661.29 605.464 656.338 599.674 654.722Z" fill="black" stroke="black"/>
<path d="M678.447 748.539C678.658 748.482 678.793 748.497 678.879 748.525C678.965 748.554 679.045 748.61 679.123 748.709C679.295 748.926 679.406 749.276 679.483 749.661C679.934 751.888 680.444 754.064 680.502 756.242C680.646 761.62 680.634 767.009 680.478 772.387C680.472 772.567 680.474 772.762 680.475 772.955C680.475 773.151 680.476 773.349 680.472 773.548C680.463 773.949 680.434 774.327 680.354 774.649C680.273 774.972 680.152 775.199 679.989 775.343C679.836 775.478 679.593 775.588 679.167 775.578C678.645 775.565 678.416 775.435 678.308 775.322C678.195 775.206 678.122 775.017 678.108 774.699C678.095 774.379 678.143 774.011 678.2 773.593C678.254 773.199 678.317 772.747 678.296 772.345C678.246 771.407 678.245 770.464 678.252 769.508C678.258 768.556 678.271 767.588 678.246 766.622C678.21 765.243 677.775 764.187 676.998 763.432C676.232 762.687 675.186 762.285 674.021 762.1C672.673 761.885 671.429 762.059 670.402 762.599C669.372 763.14 668.591 764.034 668.149 765.2C667.619 766.601 667.527 768.049 667.497 769.46C667.462 771.132 667.645 772.578 666.753 773.981C666.141 774.17 665.862 774.076 665.716 773.958C665.516 773.797 665.35 773.44 665.248 772.78C664.143 765.658 664.205 758.54 665.339 751.428C665.431 750.849 665.512 750.305 665.711 749.899C665.805 749.708 665.912 749.577 666.033 749.494C666.149 749.415 666.311 749.356 666.561 749.363C666.896 749.372 667.075 749.456 667.18 749.542C667.286 749.629 667.37 749.764 667.428 749.974C667.487 750.188 667.512 750.449 667.521 750.752C667.53 751.013 667.527 751.404 667.541 751.683C667.645 753.803 668.266 755.53 669.38 756.699C670.504 757.879 672.076 758.432 673.944 758.303C675.443 758.199 676.615 757.793 677.37 756.911C678.123 756.033 678.37 754.79 678.275 753.233C678.242 752.683 678.143 752.142 678.048 751.634C677.951 751.116 677.859 750.632 677.82 750.147C677.786 749.717 677.786 749.343 677.88 749.058C677.96 748.815 678.105 748.632 678.447 748.539ZM668.382 758.012C668.05 758.011 667.735 758.009 667.497 758.049C667.252 758.09 666.894 758.21 666.77 758.613C666.72 758.774 666.726 758.935 666.744 759.069C666.763 759.207 666.801 759.355 666.849 759.508C666.943 759.811 667.099 760.208 667.292 760.703L668.254 760.457L668.253 760.49C668.248 760.53 668.229 760.588 668.182 760.633C668.149 760.664 668.14 760.652 668.223 760.631C668.298 760.612 668.392 760.598 668.522 760.58C668.639 760.564 668.791 760.544 668.932 760.509C669.065 760.475 669.26 760.411 669.417 760.261C669.605 760.081 669.678 759.836 669.644 759.581C669.613 759.36 669.505 759.142 669.366 758.932C669.223 758.714 669.019 758.463 668.748 758.172L668.6 758.012H668.382Z" fill="black" stroke="black"/>
<path d="M513.86 740.799C514.464 740.85 514.85 741.093 515.098 741.441C515.357 741.807 515.501 742.344 515.492 743.028C515.466 745.086 515.36 747.21 515.391 749.301C515.412 750.753 515.699 751.903 516.374 752.747C517.056 753.599 518.067 754.058 519.357 754.266C521.712 754.645 524.271 753.093 525.134 750.824C525.881 748.858 525.635 746.798 525.589 744.961C525.58 744.596 525.54 744.223 525.513 743.894C525.484 743.552 525.467 743.24 525.489 742.939C525.52 742.534 525.547 742.206 525.651 741.955C525.699 741.841 525.756 741.761 525.823 741.704C525.889 741.649 525.988 741.596 526.151 741.568C526.443 741.519 526.617 741.597 526.767 741.739C526.947 741.91 527.1 742.187 527.265 742.559C527.728 743.605 527.88 744.719 527.868 745.907C527.843 748.339 527.836 750.773 527.82 753.451C527.661 757.619 527.566 761.517 527.315 765.408C527.29 765.807 527.304 766.28 527.304 766.698C527.303 767.137 527.288 767.543 527.218 767.887C527.148 768.231 527.034 768.459 526.88 768.598C526.738 768.726 526.496 768.838 526.037 768.815C525.539 768.791 525.267 768.652 525.107 768.497C524.944 768.338 524.835 768.1 524.784 767.759C524.733 767.415 524.747 767.009 524.79 766.562C524.811 766.34 524.839 766.116 524.868 765.89C524.897 765.666 524.927 765.437 524.95 765.218C525.142 763.414 525.343 761.478 524.482 759.584C524.01 758.544 523.35 757.766 522.51 757.312C521.666 756.857 520.691 756.756 519.646 756.975C518.674 757.178 517.642 757.479 516.83 758.104C515.99 758.749 515.427 759.708 515.343 761.122C515.214 763.276 515.057 765.459 514.937 767.623C514.911 768.087 514.849 768.448 514.718 768.69C514.657 768.802 514.587 768.877 514.505 768.929C514.422 768.98 514.3 769.025 514.109 769.033C513.766 769.047 513.579 768.926 513.444 768.739C513.286 768.52 513.182 768.175 513.133 767.736C512.189 759.37 512.53 750.979 512.846 742.546C512.864 742.057 512.9 741.569 513.06 741.22C513.134 741.058 513.222 740.953 513.326 740.89C513.428 740.827 513.589 740.776 513.86 740.799Z" fill="black" stroke="black"/>
<g clip-path="url(#clip1_287_6)">
<ellipse cx="908.213" cy="317.754" rx="112.465" ry="30.8616" transform="rotate(90 908.213 317.754)" fill="#85C4F9" fill-opacity="0.5"/>
<path d="M936.827 313.413C940.604 314.954 944.048 317.037 947.641 318.878C951.7 320.958 955.707 323.123 959.701 325.305C961.314 326.186 962.949 327.057 964.397 328.235C971.336 324.447 978.109 320.377 984.603 315.93C991.766 311.025 998.26 305.482 1004.08 299.294C1006.26 296.981 1007.98 294.322 1008.77 291.448C1009.75 287.943 1008.98 284.828 1004.84 282.686C1003.32 281.897 1001.42 281.577 1000 280.839C998.427 280.017 997.043 280.279 995.577 280.177C993.937 280.062 992.228 279.914 990.643 280.203C987.919 280.698 985.08 280.437 982.424 281.379C981.222 281.806 979.854 281.619 978.56 281.925C975.962 282.538 973.301 282.928 970.674 283.454C966.39 284.314 962.196 285.441 958.018 286.607C951.353 288.466 944.653 290.248 938.21 292.711C937.166 293.11 936.011 293.272 935.018 293.517C935.117 294.589 935.276 295.476 935.267 296.362C935.236 299.459 935.856 302.519 936.2 305.573C936.533 308.533 936.241 311.461 936.516 314.391C936.613 315.423 936.44 316.436 936.907 317.492C937.238 318.239 936.835 319.236 936.834 320.121C936.821 326.922 936.827 333.724 936.827 340.525C936.827 345.51 937.165 350.52 936.712 355.471C936.392 358.982 936.747 362.49 936.285 365.953C936.03 367.86 935.947 369.794 935.506 371.705C935.09 373.505 935.433 375.416 935.327 377.284C935.193 379.623 934.834 381.947 934.558 384.26C934.263 386.736 934.69 389.292 933.961 391.656C933.244 393.976 933.147 396.355 932.548 398.675C932.172 400.131 931.922 401.642 931.646 403.125C931.153 405.776 930.276 408.382 929.384 410.957C927.887 415.279 926.033 419.46 923.239 423.273C921.04 426.272 918.216 428.278 914.273 429.199C912.009 429.729 909.816 430.594 907.452 430.506C901.787 430.295 897.015 428.376 893.871 423.946C891.648 420.813 889.794 417.494 888.572 413.903C887.535 410.853 886.535 407.806 885.742 404.687C884.986 401.715 884.374 398.728 883.799 395.729C883.013 391.632 882.071 387.549 881.559 383.423C881.335 381.62 880.934 379.861 880.479 378.135C879.987 376.268 879.414 374.364 877.949 372.788C876.706 371.45 875.083 371.23 873.439 371.31C870.734 371.442 868.316 372.526 865.846 373.476C861.841 375.018 857.765 376.408 853.672 377.765C850.849 378.701 847.993 379.552 845.118 380.276C843.586 380.662 841.987 381.047 840.357 381.242C838.858 381.422 837.39 381.864 835.87 382.06C835.297 382.134 834.734 382.166 834.165 382.169C832.426 382.179 830.75 382.646 829.078 382.941C826.063 383.472 822.985 383.667 820.126 383.039C817.235 382.403 814.146 382.184 811.465 381.004C807.844 379.41 804.62 377.286 803.077 373.652C802.289 371.796 801.505 369.958 801.697 367.918" stroke="black" stroke-width="4" stroke-linecap="round" stroke-linejoin="round"/>
<path d="M964.966 328.367C967.44 330.091 969.958 331.765 972.379 333.548C978.725 338.222 984.846 343.109 990.183 348.76C993.944 352.743 997.54 356.818 1000.21 361.492C1001.78 364.237 1002.95 367.086 1003.73 370.133C1004.16 371.85 1004.2 373.5 1004.22 375.186C1004.26 379.103 1002.04 381.936 998.663 384.121C996.51 385.513 993.964 385.78 991.411 386.126C988.703 386.493 986.008 386.529 983.375 386.044C980.384 385.493 977.337 385.208 974.393 384.423C971.202 383.572 967.97 382.856 964.802 381.921C963.154 381.435 961.599 380.843 960.501 379.644C957.8 376.695 954.066 375.382 950.288 374.046C946.701 372.777 943.114 371.525 939.462 370.417C938.442 370.107 937.463 369.72 936.363 369.735" stroke="black" stroke-width="3" stroke-linecap="round" stroke-linejoin="round"/>
<path d="M936.519 342.484C933.811 343.355 931.361 344.718 928.803 345.865C923.586 348.203 918.267 350.312 912.871 352.285C909.447 353.537 906.052 354.88 902.621 356.092C899.736 357.111 896.814 358.12 893.849 358.983C888.016 360.682 882.199 362.424 876.375 364.146C873.912 364.875 871.435 365.707 868.933 366.146C865.931 366.674 863.02 367.529 860.012 368.042C858.61 368.281 856.956 368.282 855.639 369.155C854.958 369.606 853.968 369.481 853.179 369.528C851.51 369.627 849.993 370.178 848.394 370.453C846.37 370.802 844.391 371.489 842.356 371.645C839.042 371.899 835.962 373.076 832.629 373.321C830.478 373.479 828.309 373.914 826.149 374.205C824.703 374.399 823.187 374.314 821.812 374.672C818.952 375.418 815.94 375.009 813.173 375.596C810.402 376.182 807.62 375.575 804.945 376.306" stroke="black" stroke-width="4" stroke-linecap="round" stroke-linejoin="round"/>
<path d="M831.538 268.271C831.218 267.741 830.658 267.854 830.147 267.854C827.158 267.851 824.168 267.839 821.18 267.866C820.722 267.871 820.025 267.529 819.913 268.408C819.869 268.758 819.364 268.679 819.015 268.696C816.66 268.806 814.389 269.259 812.211 270.087C808.076 271.659 805.753 275.91 807.284 280.005C808.681 283.743 811.044 287.019 813.769 290.066C818.661 295.535 823.904 300.73 829.389 305.713C836.097 311.807 842.618 318.068 849.59 323.932C853.33 327.077 856.975 330.321 860.934 333.236C865.734 336.77 870.842 339.909 876.527 342.209C877.245 342.499 877.94 342.68 877.38 343.773C877.014 344.487 877.186 345.521 877.458 346.396" stroke="black" stroke-width="3" stroke-linecap="round" stroke-linejoin="round"/>
<path d="M851.638 326.691C843.813 330.23 836.457 334.411 829.492 339.226C823.082 343.657 816.944 348.357 810.995 353.265C807.953 355.774 805.287 358.624 803.584 362.062C802.807 363.63 802.295 365.317 802.317 367.081" stroke="black" stroke-width="4" stroke-linecap="round" stroke-linejoin="round"/>
<path d="M925.232 250.523C923.288 250.813 921.447 251.374 920.305 252.912C918.754 255.001 918.223 257.311 919.22 259.741C919.685 260.874 920.131 262.012 920.698 263.123C921.931 265.54 923.961 266.399 926.76 266.829C928.957 267.167 930.91 268.334 931.923 270.492C932.925 272.626 933.242 274.856 933.353 277.08C933.427 278.569 934.054 279.917 934.17 281.402C934.286 282.875 934.286 284.398 934.576 285.896C934.817 287.139 935.546 288.29 935.334 289.662C935.152 290.841 935.12 292.087 935.436 293.289" stroke="black" stroke-width="4" stroke-linecap="round" stroke-linejoin="round"/>
<path d="M831.924 268.55C833.157 268.136 834.473 268.518 835.529 268.781C838.306 269.472 841.155 269.854 843.93 270.572C847.171 271.41 850.327 272.415 853.502 273.417C859.584 275.337 865.349 277.894 871.092 280.476C873.499 281.557 875.86 282.757 878.22 283.94C878.503 284.081 878.745 284.016 879.003 284.063" stroke="black" stroke-width="4" stroke-linecap="round" stroke-linejoin="round"/>
<path d="M925.542 250.662C928.686 250.887 931.25 252.129 933.27 254.298C935.544 256.741 934.624 261.014 931.277 262.293C928.655 263.295 926.409 261.943 925.047 260.327C923.816 258.867 923.974 257.237 924.536 255.859C925.72 252.957 925.556 249.961 925.59 247.028C925.616 244.89 924.94 242.649 924.09 240.62C922.566 236.985 920.718 233.484 917.366 230.797C913.447 227.656 909.028 225.853 903.744 226.368C898.115 226.917 893.655 229.264 890.916 233.895C889.393 236.471 888.273 239.189 887.305 241.984C886.507 244.289 886.125 246.667 885.412 248.964C884.892 250.64 884.905 252.422 884.015 254.045C883.618 254.769 883.903 255.779 883.705 256.683C883.409 258.037 882.973 259.309 882.502 260.613C882.076 261.792 882.234 263.197 882.141 264.501C882.057 265.684 881.856 266.832 881.652 267.995C881.311 269.936 881.355 271.974 880.881 273.834C880.417 275.651 880.194 277.541 879.805 279.345C879.369 281.366 878.948 283.562 879.288 285.745C879.8 289.026 878.621 292.232 878.602 295.524C878.579 299.43 878.118 303.344 878.076 307.264" stroke="black" stroke-width="4" stroke-linecap="round" stroke-linejoin="round"/>
<path d="M936.21 312.715C931.52 310.385 926.81 308.089 922.148 305.714C919.531 304.381 916.774 303.243 914.419 301.524C913.151 300.599 912.178 301.647 911.351 302.015C905.918 304.427 900.291 306.431 894.775 308.663C891.575 309.959 888.386 311.276 885.187 312.573C882.619 313.615 880.043 314.642 877.458 315.681C877.458 324.175 877.458 332.7 877.455 341.225C877.455 341.617 877.56 342.04 877.148 342.343" stroke="black" stroke-width="4" stroke-linecap="round" stroke-linejoin="round"/>
<path d="M902.35 356.461C906.044 358.802 910.164 360.435 914.275 362.008C920.7 364.468 927.259 366.639 933.885 368.634C934.468 368.81 935.026 368.693 935.591 368.76" stroke="black" stroke-width="3" stroke-linecap="round" stroke-linejoin="round"/>
<path d="M912.785 301.254C911.232 299.797 909.167 299.054 907.297 298.039C899.619 293.87 891.651 290.187 883.632 286.596C882.313 286.005 881.187 285.019 879.621 284.902" stroke="black" stroke-width="3" stroke-linecap="round" stroke-linejoin="round"/>
<path d="M964.039 328.367C962.477 329.771 960.432 330.533 958.595 331.533C953.535 334.283 948.363 336.872 943.144 339.369C941.261 340.27 939.382 341.26 937.291 341.784" stroke="black" stroke-width="3" stroke-linecap="round" stroke-linejoin="round"/>
<path d="M877.147 315.93C874.451 316.767 871.998 318.081 869.421 319.153C864.458 321.218 859.529 323.352 854.565 325.416C853.898 325.693 853.299 326.025 852.719 326.412" stroke="black" stroke-width="3" stroke-linecap="round" stroke-linejoin="round"/>
<path d="M877.766 343.184C882.851 345.833 887.948 348.459 892.94 351.256C895.64 352.769 898.428 354.15 900.952 355.908C901.046 355.974 901.06 356.134 901.112 356.251" stroke="black" stroke-width="3" stroke-linecap="round" stroke-linejoin="round"/>
<path d="M934.817 293.848C931.895 294.562 929.132 295.668 926.304 296.62C922.704 297.833 919.123 299.074 915.633 300.531C915.09 300.758 914.662 301.04 914.254 301.395" stroke="black" stroke-width="3" stroke-linecap="round" stroke-linejoin="round"/>
<path d="M804.018 376.023C803.087 376.536 802.061 376.281 801.08 376.291C797.885 376.323 794.689 376.303 791.494 376.303" stroke="black" stroke-width="4" stroke-linecap="round" stroke-linejoin="round"/>
<path d="M877.457 308.102C877.555 310.523 877.256 312.952 877.612 315.369" stroke="black" stroke-width="4" stroke-linecap="round" stroke-linejoin="round"/>
<ellipse cx="904.355" cy="328.712" rx="107.465" ry="32.2977" fill="#FF6868" fill-opacity="0.5"/>
</g>
<g clip-path="url(#clip2_287_6)">
<ellipse cx="65.566" cy="27.6626" rx="65.566" ry="27.6626" transform="matrix(0.751404 -0.659842 0.625546 0.780187 914.826 626.324)" fill="#A5FFAF" fill-opacity="0.5"/>
<ellipse cx="63.3589" cy="29.3973" rx="63.3589" ry="29.3973" transform="matrix(-0.625546 -0.780187 0.751404 -0.659842 901.51 656.695)" fill="#87FF95" fill-opacity="0.5"/>
<ellipse cx="63.3589" cy="29.3973" rx="63.3589" ry="29.3973" transform="matrix(-0.625546 -0.780187 0.751404 -0.659842 901.51 656.695)" fill="#87FF95" fill-opacity="0.5"/>
<path d="M890.443 660.531C890.443 661.749 890.445 662.966 890.443 664.184C890.37 714.553 890.296 764.922 890.223 815.291" stroke="black" stroke-width="3" stroke-linecap="round" stroke-linejoin="round"/>
<path d="M956.183 735.699C956.183 756.206 956.183 776.712 956.183 797.219C956.183 802.73 956.179 808.241 956.188 813.752C956.189 814.396 956.05 815.058 956.404 815.674" stroke="black" stroke-width="4" stroke-linecap="round" stroke-linejoin="round"/>
<path d="M955.741 660.723C953.8 661.786 955.358 663.153 955.666 664.149C955.929 664.997 956.173 665.82 956.173 666.682C956.185 689.175 956.182 711.668 956.182 734.161" stroke="black" stroke-width="4" stroke-linecap="round" stroke-linejoin="round"/>
<path d="M1000.52 582.477C999.946 582.93 999.546 583.51 998.537 583.469C996.781 583.397 994.917 583.122 993.464 584.399C993.391 584.463 993.322 584.578 993.243 584.584C988.647 584.916 985.034 587.229 981.06 588.923C976.323 590.943 971.838 593.25 967.421 595.725C959.037 600.423 951.386 605.825 945.15 612.658C941.767 616.366 938.188 619.949 935.666 624.194" stroke="black" stroke-width="4" stroke-linecap="round" stroke-linejoin="round"/>
<path d="M899.928 730.895C902.224 732.15 904.61 733.131 907.429 733.029C908.097 733.004 908.885 732.734 909.266 733.758C909.516 734.428 910.644 734.113 911.399 734.165C912.792 734.263 914.372 733.698 915.388 735.114C915.73 735.59 916.405 735.301 916.914 735.303C923.679 735.323 930.445 735.318 937.21 735.313C937.807 735.313 938.412 735.475 938.787 734.753C939.162 734.031 940.072 734.364 940.739 734.37C945.078 734.405 949.417 734.541 953.755 734.534C960.153 734.522 966.556 734.239 972.946 734.393C985.596 734.697 998.244 734.43 1010.89 734.547" stroke="black" stroke-width="4" stroke-linecap="round" stroke-linejoin="round"/>
<path d="M922.209 777.609C922.142 778.623 922.552 779.734 921.333 780.501C920.785 780.847 920.846 781.303 921.083 781.846C921.453 782.697 921.708 783.585 920.449 784.154C919.696 784.495 920.016 785.158 920.014 785.684C919.996 791.772 919.765 797.87 920.121 803.942C920.262 806.352 920.054 808.886 921.261 811.278C922.089 812.918 921.665 814.841 922.101 816.655C923.165 821.09 924.906 825.141 928.385 828.556C928.835 828.998 929.268 829.452 929.709 829.901" stroke="black" stroke-width="4" stroke-linecap="round" stroke-linejoin="round"/>
<path d="M901.473 672.258C901.473 674.693 901.423 677.129 901.489 679.563C901.541 681.504 901.722 683.43 902.986 685.156C903.274 685.549 903.165 686.164 903.238 686.676C903.367 687.59 902.718 688.754 904.334 689.196C904.464 689.232 904.563 689.564 904.55 689.752C904.401 692.006 905.709 693.899 906.556 695.901C906.96 696.857 906.68 697.828 906.762 698.788C906.825 699.518 906.518 700.315 907.641 700.73C908.415 701.016 908.074 701.723 908.079 702.249C908.105 704.94 908.091 707.631 908.091 710.323" stroke="black" stroke-width="4" stroke-linecap="round" stroke-linejoin="round"/>
<path d="M985.744 567.098C987.566 567.521 989.422 567.247 991.26 567.275C994.568 567.327 997.878 567.258 1001.19 567.309C1002.23 567.325 1003.59 566.802 1004.08 568.245C1004.12 568.356 1004.51 568.461 1004.71 568.431C1007.6 568.005 1010.29 569.032 1013.1 569.227C1013.76 569.273 1014.79 568.762 1014.89 569.979C1014.92 570.224 1015.32 570.434 1015.75 570.37C1017.79 570.062 1019.59 571.134 1021.49 571.237C1023.47 571.345 1024.83 572.431 1026.56 572.865" stroke="black" stroke-width="4" stroke-linecap="round" stroke-linejoin="round"/>
<path d="M854.926 572.48C855.536 573.493 856.837 573.648 857.763 574.247C860.786 576.201 863.715 578.272 866.609 580.372C871.613 584.001 876.758 587.515 880.942 591.908C884.832 595.993 888.462 600.254 892.019 604.566C893.437 606.286 894.246 608.375 896.179 609.777" stroke="black" stroke-width="3" stroke-linecap="round" stroke-linejoin="round"/>
<path d="M915.371 674.562C915.697 678.988 916.698 683.308 917.621 687.664C918.36 691.151 919.598 694.53 920.45 697.974C920.896 699.776 920.819 701.863 922.256 703.696C923.084 704.752 923.739 706.532 923.577 708.209C923.467 709.345 923.005 710.701 924.626 711.49C924.776 711.563 924.852 711.86 924.847 712.051C924.729 717.068 926.44 722.012 925.716 727.044C925.329 729.731 924.839 732.402 924.841 735.121C924.842 735.633 924.84 736.414 924.493 736.615C922.314 737.872 923.713 739.734 923.344 741.278C923.324 741.363 923.754 741.529 923.975 741.657" stroke="black" stroke-width="4" stroke-linecap="round" stroke-linejoin="round"/>
<path d="M1017.95 577.479C1015.24 577.063 1012.51 577.36 1009.79 577.297C1007.66 577.247 1005.53 577.287 1003.39 577.287C1002.95 577.287 1002.2 577.156 1002.12 577.307C1001.09 579.165 999.13 578.54 997.668 578.368C995.088 578.064 992.908 579.703 990.377 579.209C989.25 580.585 987.592 579.762 986.186 579.978" stroke="black" stroke-width="4" stroke-linecap="round" stroke-linejoin="round"/>
<path d="M921.988 677.254C923.006 678.339 922.268 679.696 922.777 680.936C923.478 682.647 924.09 684.393 924.798 686.115C925.503 687.827 925.619 689.716 926.209 691.473C926.981 693.772 927.055 696.185 928.258 698.453C928.946 699.751 928.724 701.486 929.208 703.03C930.217 706.25 930.849 709.559 931.743 712.81C931.853 713.211 931.901 713.594 931.902 713.973C931.921 720.638 931.919 727.302 931.906 733.967C931.905 734.288 931.768 734.608 931.695 734.928" stroke="black" stroke-width="4" stroke-linecap="round" stroke-linejoin="round"/>
<path d="M908.312 625.734C908.77 626.095 908.98 626.518 908.995 627.08C909.014 627.812 908.55 628.783 909.964 629.018C910.026 629.028 910.076 629.26 910.072 629.387C910.023 631.063 911.3 632.457 911.23 634.195C911.072 638.099 911.021 642.018 911.239 645.918C911.376 648.372 910.601 650.663 910.298 653.034" stroke="black" stroke-width="4" stroke-linecap="round" stroke-linejoin="round"/>
<path d="M854.705 557.484C853.998 557.792 853.238 557.671 852.499 557.672C847.278 557.681 842.057 557.656 836.836 557.69C835.441 557.699 833.846 557.219 832.86 558.635C832.597 559.012 832.089 558.89 831.769 558.81C829.313 558.197 827.033 559.006 824.703 559.408C823.398 559.634 823.032 560.356 823.62 561.32C824.5 562.765 825.544 564.134 826.458 565.564C827.162 566.667 827.659 567.903 828.101 569.058C828.49 570.074 830.07 570.609 829.556 571.903" stroke="black" stroke-width="4" stroke-linecap="round" stroke-linejoin="round"/>
<path d="M879.854 563.061C881.545 562.933 883.767 562.173 884.797 562.831C886.185 563.716 887.763 564.019 889.131 564.774C890.323 565.432 891.686 565.857 892.857 566.537C897.721 569.358 902.728 572.013 906.989 575.556C911.185 579.043 914.114 583.348 916.761 587.739C917.359 588.73 918.347 590.22 917.797 591.706C920.345 594.758 918.62 598.248 919.121 601.511" stroke="black" stroke-width="4" stroke-linecap="round" stroke-linejoin="round"/>
<path d="M956.182 595.935C954.148 595.221 953.315 597.06 952.548 597.762C948.027 601.9 943.355 605.933 939.376 610.52C936.604 613.715 934.156 617.059 931.879 620.525C931.328 621.364 931.337 621.871 932.133 622.468C936.096 625.44 939.851 628.601 944.212 631.19C946.529 632.565 949.392 632.649 951.458 633.921C953.914 635.433 957.18 634.933 959.286 636.872C959.39 636.968 959.713 636.894 959.932 636.882C964.017 636.662 967.955 638.191 972.066 637.653" stroke="black" stroke-width="4" stroke-linecap="round" stroke-linejoin="round"/>
<path d="M954.638 662.259C950.159 661.837 945.658 661.974 941.184 662.12C936.032 662.288 930.886 662.165 925.739 662.262C925 662.276 924.241 662.143 923.533 662.451" stroke="black" stroke-width="4" stroke-linecap="round" stroke-linejoin="round"/>
<path d="M897.06 759.922C896.939 768.38 897.319 776.842 896.84 785.299" stroke="black" stroke-width="4" stroke-linecap="round" stroke-linejoin="round"/>
<path d="M909.305 653.706C908.672 653.327 907.981 653.213 907.209 653.215C898.753 653.232 890.296 653.224 881.84 653.234C881.619 653.234 881.398 653.354 881.178 653.418" stroke="black" stroke-width="3" stroke-linecap="round" stroke-linejoin="round"/>
<path d="M869.045 573.441C871.021 575.821 873.72 577.58 876.14 579.56C881.885 584.263 887.519 589.075 892.126 594.641C894.604 597.635 897.24 600.603 899.085 603.993C899.373 604.523 899.952 604.929 900.774 605.238C902.905 606.039 903.486 608.195 904.994 609.592C905.352 609.924 905.592 610.353 905.886 610.738" stroke="black" stroke-width="4" stroke-linecap="round" stroke-linejoin="round"/>
<path d="M915.151 625.734C915.045 626.633 914.36 627.59 915.793 628.266C916.38 628.542 916.015 629.263 916.018 629.772C916.043 634.962 916.029 640.153 916.038 645.344C916.04 645.988 915.9 646.65 916.254 647.266" stroke="black" stroke-width="4" stroke-linecap="round" stroke-linejoin="round"/>
<path d="M896.84 611.699C897.795 612.782 898.283 614.08 898.557 615.36C899.014 617.492 897.559 619.533 895.075 620.736C891.85 622.297 888.345 622.69 884.739 623.213C881.308 623.711 877.951 623.648 874.559 623.811" stroke="black" stroke-width="4" stroke-linecap="round" stroke-linejoin="round"/>
<path d="M931.475 737.238C931.475 738.2 931.566 739.169 931.45 740.12C931.328 741.13 932.168 742.446 930.384 743.033C930.222 743.086 930.156 743.52 930.162 743.775C930.222 746.56 930.166 749.326 929.313 752.052C929.13 752.637 928.869 753.108 928.5 753.581C927.907 754.341 927.972 755.21 927.926 756.078C927.874 757.05 929.117 758.466 926.842 758.77C927.172 760.18 925.794 761.59 926.842 763" stroke="black" stroke-width="4" stroke-linecap="round" stroke-linejoin="round"/>
<path d="M984.42 567.673C981.366 567.578 978.482 569 975.376 568.442C973.824 570.153 971.125 568.724 969.387 570.142C968.415 570.935 966.646 569.725 965.523 571.243C965.101 571.814 963.022 571.454 961.698 571.517C961.551 571.523 961.387 571.479 961.259 571.523C956.552 573.128 952.245 575.421 947.812 577.496C947.72 577.539 947.8 577.862 947.8 578.054" stroke="black" stroke-width="4" stroke-linecap="round" stroke-linejoin="round"/>
<path d="M937.432 838.937C935.789 839.318 933.768 838.661 932.579 840.283C927.749 840.897 922.953 841.826 918.019 841.436C915.483 839.34 911.34 840.87 908.938 838.386C908.688 838.128 907.944 838.232 907.43 838.168" stroke="black" stroke-width="4" stroke-linecap="round" stroke-linejoin="round"/>
<path d="M941.844 581.707C935.78 585.52 931.272 590.389 928.607 596.51" stroke="black" stroke-width="3" stroke-linecap="round" stroke-linejoin="round"/>
<path d="M881.398 562.675C881.48 560.792 879.392 561.214 878.504 561.069C876.782 560.787 875.102 560.172 873.229 560.284C872.251 560.343 871.68 558.874 870.132 559.147C869.003 559.346 867.517 559.68 866.605 558.453C866.561 558.394 866.324 558.441 866.177 558.446C862.501 558.555 858.815 558.213 855.146 558.637" stroke="black" stroke-width="4" stroke-linecap="round" stroke-linejoin="round"/>
<path d="M921.989 662.262C922.236 663.422 921.107 663.182 920.444 663.463C920.444 665.402 920.454 667.388 920.442 669.375C920.428 671.499 921.182 673.578 920.897 675.72C920.824 676.268 921.091 676.71 921.768 676.873" stroke="black" stroke-width="4" stroke-linecap="round" stroke-linejoin="round"/>
<path d="M929.269 597.855C928.833 597.95 927.929 597.728 928.012 598.034C928.395 599.435 926.937 600.381 927.037 601.702C927.169 603.429 927.306 605.19 925.967 606.704C925.456 607.281 925.766 607.983 925.755 608.622C925.714 610.992 925.739 613.363 925.739 615.735" stroke="black" stroke-width="4" stroke-linecap="round" stroke-linejoin="round"/>
<path d="M842.131 597.09C843.245 597.726 843.324 599.013 843.53 599.81C844.419 603.246 847.049 605.872 848.571 608.993C851.158 614.3 856.796 616.679 862.217 619.18C863.464 619.755 864.912 619.999 866.155 620.579C866.951 620.95 866.893 620.246 867.28 620.16" stroke="black" stroke-width="4" stroke-linecap="round" stroke-linejoin="round"/>
<path d="M909.856 772.418C906.951 774.261 906.179 777.369 904.151 779.744C901.723 782.587 901.273 786.22 899.535 789.356C899.516 789.389 899.664 789.842 899.708 790.105" stroke="black" stroke-width="4" stroke-linecap="round" stroke-linejoin="round"/>
<path d="M1005.16 608.047C1005.44 609.787 1004 611.084 1003.53 612.641C1003.28 613.467 1002.53 614.219 1002.24 615.148C1001.95 616.061 1001.15 616.774 1000.36 617.515C998.627 619.154 997.17 621.028 995.706 622.871C995.377 623.285 995.03 623.465 994.568 623.619" stroke="black" stroke-width="4" stroke-linecap="round" stroke-linejoin="round"/>
<path d="M918.68 604.586C915.716 608.406 910.921 610.179 906.737 612.621C906.145 612.967 905.854 613.3 905.664 613.814" stroke="black" stroke-width="4" stroke-linecap="round" stroke-linejoin="round"/>
<path d="M981.332 581.899C980.891 581.899 980.26 581.733 980.038 581.925C977.985 583.71 975.173 584.234 972.747 585.387C968.483 587.415 964.105 589.33 960.415 592.128C959.313 592.963 957.778 593.356 957.033 594.572C956.998 594.628 956.478 594.459 956.184 594.395" stroke="black" stroke-width="4" stroke-linecap="round" stroke-linejoin="round"/>
<path d="M906.326 660.532C908.385 660.532 910.444 660.53 912.503 660.532C913.675 660.533 914.236 660.492 914.412 662.057C914.869 666.12 914.692 670.14 914.489 674.181" stroke="black" stroke-width="4" stroke-linecap="round" stroke-linejoin="round"/>
<path d="M931.475 622.465C929.792 624.152 929.095 626.3 927.976 628.246C927.019 629.911 926.079 631.643 925.605 633.44C925.278 634.68 923.505 635.565 924.416 637.076" stroke="black" stroke-width="4" stroke-linecap="round" stroke-linejoin="round"/>
<path d="M908.312 613.812C909.127 616.007 910.803 617.792 912.096 619.756C912.886 620.956 913.149 622.366 914.219 623.462C914.446 623.695 914.746 624.813 913.386 624.578" stroke="black" stroke-width="3" stroke-linecap="round" stroke-linejoin="round"/>
<path d="M897.061 796.066C897.061 799.911 897.061 803.756 897.061 807.601" stroke="black" stroke-width="4" stroke-linecap="round" stroke-linejoin="round"/>
<path d="M906.768 657.84C908.439 657.231 908.007 655.576 908.868 654.507C909.569 653.636 909.946 653.339 911.181 653.374C915.368 653.491 919.563 653.419 923.754 653.419" stroke="black" stroke-width="4" stroke-linecap="round" stroke-linejoin="round"/>
<path d="M990.818 627.27C988.555 631.457 984.608 634.019 979.751 635.441C978.579 635.784 976.976 635.791 975.6 635.687C973.984 635.566 973.022 636.153 972.287 637.266" stroke="black" stroke-width="4" stroke-linecap="round" stroke-linejoin="round"/>
<path d="M935.225 625.348C934.049 627.655 932.776 629.929 931.72 632.277C930.44 635.125 929.145 637.989 928.219 640.932C927.204 644.158 925.876 647.261 924.455 650.353C924.054 651.226 924.122 652.262 923.975 653.224" stroke="black" stroke-width="3" stroke-linecap="round" stroke-linejoin="round"/>
<path d="M1035.16 574.979C1033.2 574.73 1032.53 576.093 1031.33 577.018C1029.21 578.656 1027.51 580.614 1025.45 582.285" stroke="black" stroke-width="4" stroke-linecap="round" stroke-linejoin="round"/>
<path d="M917.357 756.078C918.322 757.804 916.798 759.175 916.12 760.446C915.237 762.101 914.494 763.716 914.158 765.498" stroke="black" stroke-width="4" stroke-linecap="round" stroke-linejoin="round"/>
<path d="M900.148 605.355C899.765 607.073 901.364 608.165 901.972 609.566C902.363 610.468 902.862 611.355 903.237 612.276" stroke="black" stroke-width="4" stroke-linecap="round" stroke-linejoin="round"/>
<path d="M1013.98 580.553C1012.45 580.389 1010.93 579.889 1009.51 581.082C1009.14 581.402 1008.1 581.106 1007.36 581.136C1006.27 581.181 1005.22 580.954 1004.21 581.845C1003.45 582.516 1002.07 582 1000.96 582.091" stroke="black" stroke-width="4" stroke-linecap="round" stroke-linejoin="round"/>
<path d="M1018.61 590.938C1017.67 592.95 1015.23 594.165 1014.79 596.502C1014.68 597.096 1013.67 597.642 1012.88 596.705" stroke="black" stroke-width="4" stroke-linecap="round" stroke-linejoin="round"/>
<path d="M830.879 573.059C832.864 576.588 834.506 580.227 835.793 584.001C836.041 584.728 836.902 585.302 837.342 586.104C838.584 588.371 838.304 591.173 840.585 593.052C840.113 594.463 841.767 595.385 841.689 596.705" stroke="black" stroke-width="4" stroke-linecap="round" stroke-linejoin="round"/>
<path d="M903.017 617.273C902.756 618.227 903.665 618.731 904.136 619.379C905.412 621.136 906.784 622.839 908.074 624.588C908.295 624.888 907.914 625.143 907.65 625.348" stroke="black" stroke-width="3" stroke-linecap="round" stroke-linejoin="round"/>
<path d="M925.299 637.074C922.761 637.305 922.448 639.365 922.131 640.751C921.688 642.682 920.544 644.37 920.17 646.294C920.048 646.922 920.284 647.456 920.225 648.032" stroke="black" stroke-width="3" stroke-linecap="round" stroke-linejoin="round"/>
<path d="M914.048 661.875C911.768 661.939 909.489 662.003 907.209 662.067" stroke="black" stroke-width="3" stroke-linecap="round" stroke-linejoin="round"/>
<path d="M947.359 830.668C947.653 830.668 947.947 830.668 948.717 830.668C946.546 832.41 945.021 834.314 942.506 835.282" stroke="black" stroke-width="4" stroke-linecap="round" stroke-linejoin="round"/>
<path d="M1023.69 583.246C1023.98 583.325 1024.26 583.404 1024.64 583.507C1023.04 585.701 1021.72 588.097 1019.29 589.799C1019.1 589.931 1019.13 590.295 1019.05 590.552" stroke="black" stroke-width="3" stroke-linecap="round" stroke-linejoin="round"/>
<path d="M905.665 712.629C906.309 714.832 904.385 715.969 902.976 717.207C901.983 718.08 901.253 718.904 900.724 720.097C899.928 721.894 899.311 723.76 898.366 725.502C897.474 727.147 897.685 728.587 899.046 729.931" stroke="black" stroke-width="3" stroke-linecap="round" stroke-linejoin="round"/>
<path d="M897.723 829.902C898.245 831.069 899.303 831.817 900.344 832.62C901.032 833.151 901.929 833.609 902.135 834.516" stroke="black" stroke-width="3" stroke-linecap="round" stroke-linejoin="round"/>
<path d="M891.326 816.059C891.279 818.912 892.141 821.57 893.496 824.147C893.747 824.624 893.532 825.286 893.532 825.863" stroke="black" stroke-width="4" stroke-linecap="round" stroke-linejoin="round"/>
<path d="M922.209 743.004C922.128 744.147 922.655 745.397 920.94 746.171C920.58 746.334 920.512 747.642 920.497 748.388C920.455 750.442 918.657 751.787 918.018 753.578" stroke="black" stroke-width="4" stroke-linecap="round" stroke-linejoin="round"/>
<path d="M900.148 790.297C898.39 790.826 898.388 790.826 898.384 792.027C898.381 792.86 898.384 793.693 898.384 794.526" stroke="black" stroke-width="4" stroke-linecap="round" stroke-linejoin="round"/>
<path d="M927.504 617.465C928.914 618.487 929.493 620.193 931.254 620.925" stroke="black" stroke-width="3" stroke-linecap="round" stroke-linejoin="round"/>
<path d="M886.031 656.492C887.061 657.389 888.227 658.197 889.091 659.203C890.791 661.181 893.294 659.886 895.297 660.529" stroke="black" stroke-width="3" stroke-linecap="round" stroke-linejoin="round"/>
<path d="M923.534 653.801C923.24 654.762 922.939 655.722 922.653 656.685C922.453 657.361 923.132 657.291 923.534 657.453" stroke="black" stroke-width="4" stroke-linecap="round" stroke-linejoin="round"/>
<path d="M1013.32 597.473C1011.81 598.525 1010.35 599.604 1009.79 601.318" stroke="black" stroke-width="5" stroke-linecap="round" stroke-linejoin="round"/>
<path d="M1033.39 574.98C1032.06 573.348 1029.75 574.254 1028.09 573.453C1027.81 573.315 1027.44 573.314 1027.11 573.25" stroke="black" stroke-width="3" stroke-linecap="round" stroke-linejoin="round"/>
<path d="M955.301 821.057C954.603 820.801 954.027 820.799 953.985 821.634C953.949 822.337 953.977 823.043 953.977 823.748" stroke="black" stroke-width="4" stroke-linecap="round" stroke-linejoin="round"/>
<path d="M903.678 665.336C904.143 667.083 901.937 668.312 902.497 670.16C902.669 670.727 901.555 670.426 901.031 670.527" stroke="black" stroke-width="3" stroke-linecap="round" stroke-linejoin="round"/>
<path d="M1007.36 604.203C1007.69 605.452 1007.08 606.185 1005.6 606.318" stroke="black" stroke-width="3" stroke-linecap="round" stroke-linejoin="round"/>
<path d="M872.795 623.043C871.619 623.043 870.442 623.043 869.266 623.043" stroke="black" stroke-width="4" stroke-linecap="round" stroke-linejoin="round"/>
<path d="M1017.95 579.786C1016.77 579.722 1015.6 579.658 1014.42 579.594" stroke="black" stroke-width="3" stroke-linecap="round" stroke-linejoin="round"/>
<path d="M914.71 765.69C913.826 765.368 913.412 766.042 913.445 766.455C913.513 767.302 912.732 767.718 912.504 768.381" stroke="black" stroke-width="4" stroke-linecap="round" stroke-linejoin="round"/>
<path d="M985.964 580.363C985.301 581.452 984.219 581.351 983.096 581.132" stroke="black" stroke-width="3" stroke-linecap="round" stroke-linejoin="round"/>
<path d="M892.648 826.248C894.43 826.077 894.596 826.126 894.819 827.598C894.91 828.194 895.476 828.089 895.772 828.33C896.593 828.998 895.992 829.31 895.516 829.709" stroke="black" stroke-width="3" stroke-linecap="round" stroke-linejoin="round"/>
<path d="M846.543 567.676C846.617 567.868 846.647 568.202 846.77 568.231C848.235 568.568 849.525 569.522 851.176 569.214" stroke="black" stroke-width="3" stroke-linecap="round" stroke-linejoin="round"/>
<path d="M940.3 838.167C939.359 837.664 938.516 837.629 937.873 838.551" stroke="black" stroke-width="3" stroke-linecap="round" stroke-linejoin="round"/>
<path d="M850.734 571.711C851.624 571.902 851.949 570.985 852.641 570.902C853.584 571.278 854.197 571.736 853.823 572.672" stroke="black" stroke-width="3" stroke-linecap="round" stroke-linejoin="round"/>
<path d="M911.4 769.535C911.41 770.179 911.92 771.003 910.734 771.252C909.955 771.416 910.437 771.904 910.297 772.227" stroke="black" stroke-width="3" stroke-linecap="round" stroke-linejoin="round"/>
<path d="M942.063 835.477C941.254 836.117 940.446 836.758 939.637 837.399" stroke="black" stroke-width="3" stroke-linecap="round" stroke-linejoin="round"/>
<path d="M919.783 647.074C918.591 647.55 917.17 646.9 916.033 647.651" stroke="black" stroke-width="4" stroke-linecap="round" stroke-linejoin="round"/>
<path d="M1009.35 601.703C1008.08 602.111 1009.3 603.606 1008.03 604.01" stroke="black" stroke-width="3" stroke-linecap="round" stroke-linejoin="round"/>
<path d="M1006.26 606.699C1006.11 606.956 1005.97 607.212 1005.82 607.468" stroke="black" stroke-linecap="round" stroke-linejoin="round"/>
<path d="M912.283 768.766C912.136 768.958 911.989 769.15 911.842 769.342" stroke="black" stroke-linecap="round" stroke-linejoin="round"/>
<ellipse cx="925.849" cy="777.417" rx="57.6744" ry="27.555" transform="rotate(90 925.849 777.417)" fill="#85C4F9" fill-opacity="0.5"/>
</g>
</g>
<ellipse cx="487.173" cy="433.101" rx="47.3946" ry="44.4093" fill="#87FF95" fill-opacity="0.5"/>
<ellipse cx="487.173" cy="433.101" rx="47.3946" ry="44.4093" fill="#87FF95" fill-opacity="0.5"/>
<path d="M530.944 431.431C532.636 429.365 532.468 426.659 532.45 424.155C532.436 422.039 532.372 419.938 532.475 417.813C532.559 416.074 533.118 414.614 534.479 414.633C536.128 414.656 535.917 416.564 536.075 418.047C536.891 425.723 536.292 433.398 536 441.053C535.673 449.63 534.948 458.178 531.934 466.177C528.734 474.671 523.989 481.087 516.219 483.827C513.367 484.833 510.474 485.379 507.559 485.608C501.696 486.069 495.85 485.345 490.083 484.192C483.295 482.834 476.648 480.677 470.024 478.419C465.359 476.829 460.849 474.621 456.082 473.453C452.14 472.487 448.212 472.626 444.293 473.681C442.16 474.255 440.002 474.54 437.809 474.398C437.311 474.365 436.95 474.097 436.631 473.685" stroke="black" stroke-width="4" stroke-linecap="round" stroke-linejoin="round"/>
<path d="M523.28 422.746C525.376 425.876 527.337 429.215 530.371 431.158C532.194 432.325 531.498 434.506 531.583 435.904C531.92 441.446 531.883 447.037 530.987 452.569C530.731 454.144 529.713 455.064 529.303 456.522C528.456 459.53 528.961 462.762 527.835 465.724C525.947 470.691 523.744 475.363 518.936 476.617C516.925 477.141 515.566 478.704 513.829 479.494C510.335 481.083 506.732 480.987 503.244 479.304C499.202 477.353 496.194 473.81 493.41 469.935C487.862 462.216 483.424 453.485 477.909 445.734C476.901 444.318 475.886 442.958 474.549 442.001C472.285 440.379 470.468 441.139 469.24 444.104C468.04 446.998 467.97 450.221 467.312 453.272C466.836 455.484 466.488 457.738 466.463 460.07C466.433 462.948 467.485 464.805 469.417 466.452C475.074 471.272 481.493 473.787 488.11 475.797C490.203 476.433 492.287 477.134 494.405 477.626C495.045 477.774 495.335 478.258 495.958 478.444C495.111 480.316 493.795 480.19 492.633 479.985C490.26 479.567 487.913 478.926 485.555 478.381C477.966 476.626 471.083 472.86 464.513 468.087C461.255 465.72 457.739 465.292 453.905 466.325C448.931 467.665 443.985 469.035 439.182 471.095C438.164 471.531 437.156 471.961 436.437 472.985C435.814 473.871 434.988 473.262 434.272 473.451" stroke="black" stroke-width="3" stroke-linecap="round" stroke-linejoin="round"/>
<path d="M516.992 476.971C520.041 471 517.511 465.952 515.004 461.026C511.174 453.501 506.342 446.843 501.87 439.875C498.471 434.58 494.818 429.528 490.991 424.697C488.664 421.758 486.104 418.818 482.795 417.374C477.082 414.88 474.705 418.29 474.405 424.392C474.089 430.797 476.25 436.406 479.283 441.511C483.55 448.693 488.069 455.661 493.053 462.147C496.958 467.228 501.391 471.659 506.794 474.335C509.277 475.565 511.896 476.539 514.636 476.718C515.206 476.755 515.642 476.954 516.01 477.441" stroke="black" stroke-width="3" stroke-linecap="round" stroke-linejoin="round"/>
<path d="M529.568 454.67C528.424 453.405 529.048 451.683 528.832 450.2C527.907 443.851 525.734 438.115 523.072 432.613C519.561 425.359 515.692 418.407 510.505 412.656C507.952 409.824 505.116 407.435 501.658 406.604C499.116 405.994 496.481 405.81 494.004 407.251C491.409 408.762 490.903 412.375 492.263 416.394C494.085 421.778 496.95 426.469 499.725 431.177C504.593 439.435 509.631 447.543 515.201 455.165C516.506 456.952 517.988 458.418 519.541 459.845C522.417 462.487 525.364 462.253 528.389 460.304" stroke="black" stroke-width="3" stroke-linecap="round" stroke-linejoin="round"/>
<path d="M546.663 418.285C543.66 417.518 540.713 416.621 538.201 414.314C537.179 413.377 536.362 411.054 536.856 409.608C537.153 408.742 537.651 408.073 538.608 408.173C539.453 408.26 540.31 408.214 541.161 408.186C542.802 408.132 543.097 407.531 542.34 405.843C541.155 403.201 538.869 402.112 536.827 402.99C535.613 403.513 535.048 404.357 535.07 405.843" stroke="black" stroke-width="4" stroke-linecap="round" stroke-linejoin="round"/>
<ellipse cx="654.707" cy="281.995" rx="47.3946" ry="44.4093" fill="#87FF95" fill-opacity="0.5"/>
<ellipse cx="654.707" cy="281.995" rx="47.3946" ry="44.4093" fill="#87FF95" fill-opacity="0.5"/>
<ellipse cx="597.393" cy="383.499" rx="47.3946" ry="44.4093" fill="#87FF95" fill-opacity="0.5"/>
<ellipse cx="597.393" cy="383.499" rx="47.3946" ry="44.4093" fill="#87FF95" fill-opacity="0.5"/>
<path d="M678.7 234.949C678.452 242.824 679.829 250.483 680.854 258.19C681.071 259.818 681.396 261.409 681.09 263.127C680.6 265.867 678.184 267.884 675.946 267.367C673.473 266.796 670.973 266.397 668.483 265.938C665.471 265.381 662.462 264.803 659.443 264.303C656.764 263.86 654.081 263.407 651.387 263.15C649.017 262.923 646.687 262.375 644.323 262.085C641.044 261.682 637.772 261.383 634.492 261.512C630.959 261.651 627.46 261.943 624.051 263.507C621.414 264.717 619.075 266.32 617.016 268.534C614.741 270.982 612.901 273.944 610.819 276.613C608.018 280.203 606.833 285.034 605.991 289.877C603.776 302.617 604.416 315.525 604.508 328.377C604.547 333.851 602.82 334.795 598.905 333.146C595.532 331.725 592.111 330.42 588.527 329.69C585.58 329.09 582.636 328.545 579.67 328.425C575.48 328.254 571.282 328.295 567.095 328.832C560.502 329.68 554 330.989 548.25 335.216C542.142 339.706 538.687 346.598 536.868 354.679C535.299 361.652 534.743 368.797 534.369 376.023C534.033 382.522 534.574 389.059 533.678 395.512C533.458 397.098 533.143 398.689 532.692 400.201C531.505 404.177 528.636 406.029 525.251 404.88C520.099 403.13 514.864 402.166 509.536 401.511C506.239 401.105 502.947 400.946 499.708 401.236C491.859 401.938 484.167 403.399 477.666 409.555C473.938 413.086 471.118 417.377 468.859 422.279C464.733 431.231 462.808 441.056 461.006 450.917C460.113 455.797 459.483 460.759 457.458 465.234" stroke="black" stroke-width="4" stroke-linecap="round" stroke-linejoin="round"/>
<path d="M736.466 234.482C725.725 234.482 714.984 234.501 704.243 234.469C701.33 234.46 698.456 234.755 695.595 235.408C692.21 236.18 689.638 239.719 689.719 243.871C689.834 249.722 689.269 255.435 687.745 261.01C686.874 264.193 685.458 267.083 684.398 270.163C683.708 272.168 682.647 274.147 684.184 276.284C684.314 276.464 684.203 276.892 684.201 277.205C684.158 283.311 684.528 289.448 683.779 295.51C682.685 304.364 680.805 312.948 677.14 320.876C672.477 330.966 665.835 338.36 656.676 342.17C653.278 343.583 649.743 344.494 646.092 344.92C643.194 345.259 640.321 345.208 637.438 345.263C632.095 345.365 626.895 344.146 621.715 342.718C619.021 341.976 616.416 340.84 613.668 340.316C611.468 339.896 610.337 340.787 610.328 343.403C610.311 348.02 610.382 352.638 610.311 357.253C610.146 367.905 609.126 378.441 605.96 388.456C601.863 401.415 595.125 411.547 583.591 415.901C580.607 417.027 577.501 417.606 574.377 418.14C569.79 418.924 565.208 419.131 560.613 418.952C555.702 418.762 550.91 417.747 546.454 415.026C545.282 414.31 543.981 413.891 542.731 413.361C541.332 412.767 540.181 413.308 539.195 414.531" stroke="black" stroke-width="4" stroke-linecap="round" stroke-linejoin="round"/>
<path d="M582.422 408.661C584.363 405.52 585.474 402.035 585.152 398.1C584.835 394.232 583.892 390.524 582.407 387.074C578.393 377.752 572.77 369.741 567.438 361.525C564.204 356.543 560.805 351.611 556.282 348.111C554.072 346.401 551.805 344.977 549.024 344.741C545.892 344.476 543.297 347.191 543.135 351.619C542.961 356.384 544.139 360.796 545.889 364.991C548.875 372.153 553.15 378.286 557.329 384.427C561.946 391.213 566.615 397.992 572.008 403.967C573.499 405.619 574.984 407.366 576.93 408.16C582.447 410.412 587.011 409.793 590.83 404.161C593.967 399.535 596.504 394.292 598.055 388.674C600.774 378.828 599.716 369.516 594.035 361.223C589.797 355.036 585.745 348.66 580.841 343.179C577.033 338.922 572.949 335.08 567.678 333.826C565.049 333.2 562.309 332.977 559.833 334.729C557.62 336.296 556.025 339.354 558.499 342.885C561.446 347.092 564.571 351.126 567.505 355.359C574.577 365.565 581.674 375.75 588.267 386.404C590.339 389.752 592.967 391.9 595.98 393.637" stroke="black" stroke-width="3" stroke-linecap="round" stroke-linejoin="round"/>
<path d="M653.551 336.127C654.102 334.256 655.811 333.463 656.35 331.45C657.608 326.752 656.699 322.529 654.704 318.539C653.002 315.134 650.729 312.195 648.408 309.406C642.775 302.635 637.995 295.043 633.109 287.541C630.445 283.45 627.682 279.46 623.487 277.443C619.51 275.532 616.56 277.666 615.94 281.691C615.39 285.255 615.672 288.984 617.165 292.486C620.652 300.663 625.152 308.036 629.594 315.457C632.469 320.259 635.375 325.039 638.801 329.334C641.259 332.417 643.954 334.977 647.455 336.147C647.948 336.312 648.376 336.753 648.835 337.066" stroke="black" stroke-width="3" stroke-linecap="round" stroke-linejoin="round"/>
<path d="M672.609 310.301C672.435 308.799 672.651 307.308 672.693 305.836C672.827 301.134 673.479 296.265 670.876 291.961C669.437 289.58 667.741 287.479 665.887 285.716C658.787 278.965 651.589 272.329 643.132 268.061C640.496 266.731 637.846 265.379 634.884 265.461C632.298 265.532 631.012 267.824 631.724 270.87C632.797 275.458 634.751 279.528 637.079 283.275C643.765 294.035 650.615 304.647 658.653 314.064C660.688 316.447 662.927 317.998 665.933 317.62C667.201 317.46 668.179 316.335 669.466 316.405" stroke="black" stroke-width="3" stroke-linecap="round" stroke-linejoin="round"/>
<path d="M561.792 413.12C562.306 412.2 563.278 412.298 563.959 411.722C566.569 409.514 567.027 407.234 565.307 403.98C564.514 402.479 563.619 400.994 562.557 399.764C555.85 391.995 550.451 382.979 545.077 373.928C544.518 372.986 543.784 372.191 543.124 371.336C542.437 370.446 541.495 369.739 540.599 370.233C539.619 370.774 539.271 372.094 539.185 373.447C538.938 377.336 539.391 381.177 540.03 384.938C540.872 389.886 541.897 394.813 543.53 399.498C545.27 404.489 547.856 408.629 551.955 411.269C553.645 412.358 555.502 412.978 557.284 413.246C560.921 413.794 564.566 414.742 568.274 414.277C569.266 414.152 570.24 413.824 571.223 413.589" stroke="black" stroke-width="3" stroke-linecap="round" stroke-linejoin="round"/>
<path d="M612.288 275.562C612.691 276.749 612.235 277.887 611.853 278.825C610.273 282.706 609.679 286.837 609.092 291.045C608.251 297.063 608.479 303.095 608.333 309.13C608.213 314.06 607.919 318.98 607.923 323.92C607.925 325.719 607.442 327.519 607.18 329.319" stroke="black" stroke-width="4" stroke-linecap="round" stroke-linejoin="round"/>
<path d="M612.289 329.788C616.958 333.929 622.117 336.832 627.815 338.216C633.671 339.638 639.568 339.267 645.502 338.843C647.881 338.673 649.57 336.725 651.979 336.742C659.541 336.794 663.144 329.983 666.88 323.658C668.198 321.427 669.145 318.95 669.77 316.208C670.234 314.174 671.574 312.241 672.716 310.647C674.901 307.595 675.892 304.143 676.762 300.454C677.708 296.445 678.528 292.444 678.308 288.238" stroke="black" stroke-width="4" stroke-linecap="round" stroke-linejoin="round"/>
<path d="M597.159 357.486C598.559 360.372 600.833 361.362 603.443 361.745C604.215 361.858 604.78 361.662 604.592 360.783C603.798 357.071 604.307 353.246 603.692 349.494C602.208 340.443 597.929 337.341 591.473 335.363C589.885 334.877 588.312 335.045 586.739 334.763C583.528 334.186 582.709 335.437 583.601 339.176" stroke="black" stroke-width="3" stroke-linecap="round" stroke-linejoin="round"/>
<path d="M604.232 362.18C604.813 363.256 604.037 364.216 604.049 365.231C604.094 369.31 603.999 373.379 603.645 377.438C603.316 381.2 603.087 384.977 601.686 388.476C600.718 390.892 599.5 392.827 596.962 392.697" stroke="black" stroke-width="4" stroke-linecap="round" stroke-linejoin="round"/>
<path d="M679.29 286.592C678.578 285.994 678.793 285.079 678.686 284.247C677.894 278.087 674.559 274.486 670.06 272.024C667.674 270.718 665.098 270.377 662.589 269.69C661.428 269.372 660.367 270.087 659.259 270.256C658.29 270.404 658.377 273.329 659.457 274.605C662.047 277.666 664.999 280.218 667.911 282.808C669.65 284.354 671.531 285.619 673.571 286.65C678.826 289.305 679.736 287.798 681.423 281.885C681.87 280.318 681.924 278.595 682.259 276.974C682.418 276.206 682.455 275.269 683.219 274.854" stroke="black" stroke-width="3" stroke-linecap="round" stroke-linejoin="round"/>
<path d="M606.59 344.34C606.902 348.873 607.696 353.405 606.769 357.95C606.503 359.252 606.242 360.694 604.821 361.007" stroke="black" stroke-width="4" stroke-linecap="round" stroke-linejoin="round"/>
<path d="M529.372 411.477C526.774 409.296 523.879 408.484 520.726 408.64C518.509 408.75 518.062 409.195 517.976 411.947" stroke="black" stroke-width="4" stroke-linecap="round" stroke-linejoin="round"/>
<defs>
<clipPath id="clip0_287_6">
<rect width="1553" height="744" fill="white" transform="translate(0 143)"/>
</clipPath>
<clipPath id="clip1_287_6">
<rect width="229.442" height="228.923" fill="white" transform="translate(790.721 207.617)"/>
</clipPath>
<clipPath id="clip2_287_6">
<rect width="296.492" height="314.902" fill="white" transform="translate(775.949 530.57)"/>
</clipPath>
</defs>
</svg>
